<svg width="154" height="50" viewBox="0 0 154 50" fill="none" xmlns="http://www.w3.org/2000/svg">
<path d="M10.3553 49.8611C9.95996 49.8611 9.57418 49.8561 9.18196 49.8472C8.36943 49.8366 7.55881 49.7657 6.75673 49.6352C6.00883 49.5061 5.28432 49.2661 4.60709 48.9229C3.93607 48.5826 3.32405 48.1364 2.79446 47.6013C2.25722 47.0726 1.80993 46.4594 1.47034 45.7859C1.12701 45.1081 0.889398 44.3815 0.765793 43.6315C0.632311 42.8257 0.560091 42.0109 0.549757 41.1941C0.541531 40.9199 0.530762 40.007 0.530762 40.007V9.9764C0.530762 9.9764 0.542232 9.07757 0.549822 8.8135C0.559717 7.99799 0.631516 7.18442 0.764599 6.37982C0.888432 5.6278 1.12622 4.89915 1.46974 4.2191C1.80809 3.54611 2.25289 2.9324 2.7869 2.40177C3.32031 1.86609 3.93429 1.41757 4.60645 1.07256C5.28212 0.730511 6.00527 0.492143 6.75165 0.365442C7.55637 0.233578 8.36981 0.162286 9.18515 0.152164L10.3559 0.136292H143.699L144.884 0.152801C145.692 0.16242 146.498 0.233076 147.295 0.364168C148.049 0.492458 148.78 0.73249 149.463 1.07637C150.81 1.77167 151.906 2.87169 152.597 4.22227C152.935 4.89763 153.169 5.62033 153.291 6.36586C153.426 7.17706 153.501 7.99703 153.517 8.81922C153.521 9.18738 153.521 9.58284 153.521 9.9764C153.531 10.4639 153.531 10.9279 153.531 11.3957V38.6029C153.531 39.0752 153.531 39.536 153.521 40.0007C153.521 40.4234 153.521 40.8107 153.515 41.2093C153.5 42.0168 153.426 42.8221 153.294 43.6188C153.173 44.3742 152.936 45.1064 152.593 45.7898C152.251 46.4559 151.806 47.0639 151.275 47.5912C150.745 48.1291 150.132 48.578 149.46 48.9205C148.778 49.2662 148.048 49.5072 147.295 49.6352C146.493 49.7664 145.683 49.8373 144.87 49.8472C144.49 49.8561 144.092 49.8611 143.706 49.8611L142.299 49.8637L10.3553 49.8611Z" fill="black"/>
<path d="M31.5953 25.3896C31.6093 24.3046 31.8975 23.2407 32.4332 22.2969C32.9688 21.3532 33.7344 20.5603 34.6588 19.992C34.0716 19.1532 33.2969 18.463 32.3962 17.9761C31.4955 17.4892 30.4937 17.219 29.4704 17.187C27.2874 16.9578 25.171 18.4933 24.0586 18.4933C22.9247 18.4933 21.2119 17.2097 19.3676 17.2477C18.1746 17.2862 17.012 17.6331 15.9929 18.2546C14.9739 18.8761 14.1332 19.7509 13.5528 20.7939C11.0386 25.1468 12.914 31.5442 15.3223 35.0628C16.5273 36.7857 17.9356 38.7103 19.7783 38.642C21.5814 38.5672 22.2549 37.4922 24.4315 37.4922C26.5878 37.4922 27.2197 38.642 29.0997 38.5986C31.0346 38.5672 32.2537 36.868 33.4164 35.1288C34.2822 33.9011 34.9484 32.5443 35.3903 31.1085C34.2662 30.6331 33.3069 29.8372 32.6321 28.8203C31.9572 27.8033 31.5966 26.6101 31.5953 25.3896Z" fill="white"/>
<path d="M28.0442 14.8729C29.0992 13.6064 29.619 11.9786 29.4931 10.3351C27.8813 10.5044 26.3925 11.2747 25.3233 12.4926C24.8005 13.0876 24.4001 13.7797 24.145 14.5295C23.8899 15.2793 23.785 16.0721 23.8365 16.8624C24.6426 16.8707 25.4402 16.696 26.169 16.3513C26.8979 16.0067 27.5391 15.5012 28.0442 14.8729Z" fill="white"/>
<path d="M54.3888 34.2802H48.2354L46.7577 38.6436H44.1514L49.9798 22.5002H52.6877L58.5161 38.6436H55.8653L54.3888 34.2802ZM48.8727 32.2667H53.7503L51.3458 25.1853H51.2785L48.8727 32.2667Z" fill="white"/>
<path d="M71.1034 32.7593C71.1034 36.4168 69.1458 38.7667 66.1916 38.7667C65.4433 38.8059 64.699 38.6335 64.0441 38.2693C63.3892 37.9051 62.85 37.3639 62.4884 36.7075H62.4325V42.5372H60.0166V26.8738H62.3551V28.8314H62.3995C62.7778 28.1782 63.326 27.6398 63.9859 27.2734C64.6459 26.907 65.3928 26.7263 66.1472 26.7506C69.1343 26.7507 71.1034 29.112 71.1034 32.7593ZM68.6202 32.7593C68.6202 30.3764 67.3888 28.8098 65.5099 28.8098C63.664 28.8098 62.4224 30.4094 62.4224 32.7593C62.4224 35.1308 63.664 36.719 65.5099 36.719C67.3888 36.719 68.6202 35.1638 68.6202 32.7593Z" fill="white"/>
<path d="M84.0575 32.7593C84.0575 36.4168 82.0999 38.7667 79.1457 38.7667C78.3974 38.8059 77.6531 38.6335 76.9982 38.2693C76.3433 37.9051 75.8041 37.3639 75.4425 36.7075H75.3866V42.5372H72.9707V26.8738H75.3092V28.8314H75.3536C75.7318 28.1782 76.2801 27.6397 76.94 27.2734C77.5999 26.907 78.3468 26.7263 79.1012 26.7506C82.0885 26.7506 84.0575 29.112 84.0575 32.7593ZM81.5743 32.7593C81.5743 30.3764 80.3429 28.8098 78.464 28.8098C76.6181 28.8098 75.3765 30.4094 75.3765 32.7593C75.3765 35.1308 76.6181 36.719 78.464 36.719C80.3429 36.719 81.5743 35.1638 81.5743 32.7593H81.5743Z" fill="white"/>
<path d="M92.6196 34.1456C92.7986 35.7465 94.3538 36.7976 96.4789 36.7976C98.5153 36.7976 99.9803 35.7465 99.9803 34.303C99.9803 33.05 99.0967 32.2997 97.0045 31.7855L94.9123 31.2815C91.948 30.5655 90.5718 29.1792 90.5718 26.9296C90.5718 24.1442 92.9992 22.2311 96.4459 22.2311C99.8571 22.2311 102.196 24.1442 102.274 26.9296H99.8355C99.6895 25.3186 98.3578 24.3461 96.4116 24.3461C94.4654 24.3461 93.1337 25.33 93.1337 26.762C93.1337 27.9033 93.9843 28.5749 96.065 29.089L97.8436 29.5257C101.156 30.309 102.532 31.6395 102.532 34.0008C102.532 37.021 100.126 38.9126 96.2999 38.9126C92.7198 38.9126 90.3026 37.0654 90.1465 34.1455L92.6196 34.1456Z" fill="white"/>
<path d="M107.746 24.0885V26.8738H109.984V28.787H107.746V35.2755C107.746 36.2835 108.194 36.7533 109.178 36.7533C109.444 36.7486 109.709 36.73 109.973 36.6974V38.5991C109.53 38.6818 109.081 38.7192 108.631 38.7108C106.248 38.7108 105.318 37.8158 105.318 35.5332V28.787H103.607V26.8738H105.318V24.0885H107.746Z" fill="white"/>
<path d="M111.28 32.7593C111.28 29.0561 113.461 26.7291 116.862 26.7291C120.275 26.7291 122.446 29.0561 122.446 32.7593C122.446 36.4727 120.286 38.7896 116.862 38.7896C113.439 38.7896 111.28 36.4727 111.28 32.7593ZM119.984 32.7593C119.984 30.219 118.82 28.7197 116.862 28.7197C114.905 28.7197 113.742 30.2304 113.742 32.7593C113.742 35.3098 114.905 36.7977 116.862 36.7977C118.82 36.7977 119.984 35.3098 119.984 32.7593H119.984Z" fill="white"/>
<path d="M124.438 26.8738H126.742V28.8771H126.798C126.953 28.2514 127.32 27.6985 127.836 27.3112C128.351 26.924 128.984 26.726 129.629 26.7506C129.907 26.7497 130.185 26.7799 130.456 26.8408V29.1005C130.105 28.9931 129.738 28.9438 129.371 28.9546C129.02 28.9403 128.67 29.0022 128.345 29.1359C128.02 29.2697 127.728 29.4722 127.489 29.7294C127.25 29.9867 127.069 30.2926 126.96 30.6263C126.85 30.96 126.814 31.3134 126.853 31.6624V38.6436H124.438L124.438 26.8738Z" fill="white"/>
<path d="M141.595 35.1867C141.27 37.3233 139.189 38.7896 136.527 38.7896C133.103 38.7896 130.978 36.4955 130.978 32.8152C130.978 29.1234 133.115 26.7291 136.426 26.7291C139.682 26.7291 141.73 28.966 141.73 32.5346V33.3623H133.417V33.5083C133.378 33.9415 133.433 34.3779 133.576 34.7884C133.719 35.199 133.948 35.5745 134.248 35.8898C134.547 36.2051 134.91 36.4531 135.313 36.6173C135.715 36.7815 136.148 36.8581 136.583 36.8421C137.154 36.8956 137.727 36.7634 138.217 36.4651C138.706 36.1668 139.087 35.7184 139.301 35.1866L141.595 35.1867ZM133.428 31.6739H139.312C139.334 31.2844 139.275 30.8946 139.139 30.5291C139.003 30.1635 138.793 29.83 138.522 29.5495C138.251 29.269 137.924 29.0476 137.564 28.8991C137.203 28.7506 136.816 28.6783 136.426 28.6867C136.032 28.6843 135.642 28.7599 135.278 28.9091C134.914 29.0582 134.583 29.278 134.304 29.5558C134.026 29.8335 133.805 30.1636 133.655 30.5272C133.504 30.8907 133.427 31.2805 133.428 31.6739V31.6739Z" fill="white"/>
<path d="M48.5694 10.3491C49.0759 10.3127 49.5842 10.3893 50.0575 10.5731C50.5309 10.757 50.9575 11.0436 51.3067 11.4123C51.6558 11.781 51.9188 12.2226 52.0766 12.7053C52.2344 13.1879 52.2832 13.6996 52.2193 14.2034C52.2193 16.6815 50.88 18.106 48.5694 18.106H45.7676V10.3491H48.5694ZM46.9723 17.009H48.4348C48.7968 17.0306 49.159 16.9713 49.4951 16.8353C49.8312 16.6993 50.1327 16.49 50.3778 16.2228C50.6228 15.9556 50.8052 15.6371 50.9116 15.2904C51.018 14.9438 51.0458 14.5779 50.9929 14.2192C51.042 13.8619 51.0113 13.4982 50.9033 13.1541C50.7952 12.8101 50.6124 12.4942 50.3679 12.2291C50.1235 11.9639 49.8234 11.7562 49.4892 11.6207C49.155 11.4852 48.7949 11.4253 48.4348 11.4453H46.9723V17.009Z" fill="white"/>
<path d="M53.5804 15.1764C53.5436 14.7917 53.5876 14.4036 53.7096 14.0369C53.8316 13.6702 54.0289 13.3331 54.2888 13.0471C54.5488 12.7611 54.8656 12.5326 55.219 12.3763C55.5724 12.2199 55.9546 12.1391 56.341 12.1391C56.7275 12.1391 57.1097 12.2199 57.4631 12.3763C57.8165 12.5326 58.1333 12.7611 58.3932 13.0471C58.6531 13.3331 58.8504 13.6702 58.9724 14.0369C59.0944 14.4036 59.1384 14.7917 59.1016 15.1764C59.1391 15.5615 59.0956 15.9502 58.974 16.3175C58.8523 16.6847 58.6551 17.0225 58.3951 17.309C58.1351 17.5956 57.8181 17.8245 57.4643 17.9812C57.1106 18.1379 56.7279 18.2189 56.341 18.2189C55.9541 18.2189 55.5715 18.1379 55.2177 17.9812C54.864 17.8245 54.5469 17.5956 54.2869 17.309C54.0269 17.0225 53.8298 16.6847 53.7081 16.3175C53.5864 15.9502 53.5429 15.5615 53.5804 15.1764ZM57.9133 15.1764C57.9133 13.9075 57.3433 13.1655 56.3429 13.1655C55.3387 13.1655 54.7738 13.9075 54.7738 15.1764C54.7738 16.4555 55.3388 17.1918 56.3429 17.1918C57.3433 17.1918 57.9133 16.4504 57.9133 15.1764H57.9133Z" fill="white"/>
<path d="M66.4406 18.1058H65.2422L64.0323 13.7945H63.9409L62.7361 18.1058H61.5491L59.9355 12.252H61.1073L62.156 16.7188H62.2423L63.4458 12.252H64.5541L65.7576 16.7188H65.849L66.8926 12.252H68.0478L66.4406 18.1058Z" fill="white"/>
<path d="M69.4048 12.252H70.5169V13.182H70.6032C70.7497 12.848 70.9967 12.568 71.3098 12.381C71.6229 12.1941 71.9866 12.1095 72.3501 12.139C72.6349 12.1176 72.9209 12.1606 73.1869 12.2647C73.4529 12.3688 73.692 12.5315 73.8866 12.7406C74.0812 12.9497 74.2262 13.1999 74.311 13.4726C74.3958 13.7454 74.4181 14.0337 74.3763 14.3163V18.1058H73.221V14.6064C73.221 13.6657 72.8122 13.1978 71.9578 13.1978C71.7644 13.1888 71.5714 13.2217 71.3919 13.2943C71.2124 13.3669 71.0508 13.4774 70.918 13.6183C70.7853 13.7592 70.6845 13.9272 70.6227 14.1106C70.561 14.2941 70.5396 14.4888 70.5601 14.6813V18.1058H69.4048L69.4048 12.252Z" fill="white"/>
<path d="M76.2173 9.96689H77.3726V18.1058H76.2173V9.96689Z" fill="white"/>
<path d="M78.9784 15.1764C78.9416 14.7917 78.9856 14.4035 79.1076 14.0368C79.2297 13.6701 79.427 13.333 79.6869 13.047C79.9469 12.761 80.2637 12.5325 80.6172 12.3761C80.9706 12.2198 81.3528 12.139 81.7393 12.139C82.1257 12.139 82.5079 12.2198 82.8614 12.3761C83.2148 12.5325 83.5317 12.761 83.7916 13.047C84.0516 13.333 84.2489 13.6701 84.3709 14.0368C84.4929 14.4035 84.5369 14.7917 84.5002 15.1764C84.5376 15.5615 84.4941 15.9502 84.3724 16.3175C84.2507 16.6847 84.0535 17.0225 83.7935 17.309C83.5335 17.5956 83.2164 17.8245 82.8626 17.9812C82.5088 18.1379 82.1262 18.2188 81.7393 18.2188C81.3523 18.2188 80.9697 18.1379 80.6159 17.9812C80.2622 17.8245 79.9451 17.5956 79.6851 17.309C79.425 17.0225 79.2278 16.6847 79.1061 16.3175C78.9844 15.9502 78.9409 15.5615 78.9784 15.1764ZM83.3112 15.1764C83.3112 13.9075 82.7412 13.1655 81.7408 13.1655C80.7367 13.1655 80.1718 13.9075 80.1718 15.1764C80.1718 16.4555 80.7367 17.1918 81.7408 17.1918C82.7412 17.1918 83.3113 16.4504 83.3113 15.1764H83.3112Z" fill="white"/>
<path d="M85.7163 16.4504C85.7163 15.3967 86.5009 14.7892 87.8935 14.7029L89.4792 14.6115V14.1062C89.4792 13.4879 89.0704 13.1388 88.2808 13.1388C87.6358 13.1388 87.189 13.3756 87.0607 13.7895H85.9423C86.0604 12.784 87.0062 12.1391 88.3341 12.1391C89.8017 12.1391 90.6294 12.8697 90.6294 14.1062V18.1059H89.5173V17.2832H89.4259C89.2403 17.5783 88.9798 17.8189 88.6709 17.9803C88.362 18.1418 88.0158 18.2184 87.6676 18.2023C87.4218 18.2279 87.1735 18.2016 86.9385 18.1253C86.7035 18.049 86.4871 17.9243 86.3032 17.7593C86.1194 17.5942 85.9722 17.3925 85.8711 17.167C85.77 16.9416 85.7173 16.6975 85.7163 16.4504ZM89.4792 15.9502V15.4608L88.0497 15.5522C87.2435 15.6061 86.8779 15.8804 86.8779 16.3964C86.8779 16.9233 87.3349 17.2299 87.9634 17.2299C88.1475 17.2485 88.3336 17.2299 88.5104 17.1752C88.6872 17.1205 88.8512 17.0308 88.9926 16.9114C89.134 16.792 89.25 16.6453 89.3336 16.4802C89.4172 16.3151 89.4667 16.1348 89.4792 15.9502Z" fill="white"/>
<path d="M92.1479 15.1764C92.1479 13.3267 93.0988 12.1549 94.5778 12.1549C94.9437 12.1381 95.3067 12.2257 95.6246 12.4076C95.9425 12.5894 96.2021 12.858 96.3729 13.1819H96.4593V9.96689H97.6145V18.1058H96.5075V17.181H96.4161C96.232 17.5027 95.9634 17.7679 95.6394 17.948C95.3154 18.128 94.9483 18.216 94.5778 18.2023C93.0887 18.2024 92.1479 17.0306 92.1479 15.1764ZM93.3413 15.1764C93.3413 16.418 93.9266 17.1651 94.9054 17.1651C95.8791 17.1651 96.4809 16.4072 96.4809 15.1815C96.4809 13.9615 95.8728 13.1928 94.9054 13.1928C93.9329 13.1928 93.3413 13.945 93.3413 15.1764H93.3413Z" fill="white"/>
<path d="M102.394 15.1764C102.358 14.7917 102.402 14.4036 102.524 14.0369C102.646 13.6702 102.843 13.3331 103.103 13.0471C103.363 12.7611 103.68 12.5326 104.033 12.3763C104.386 12.2199 104.769 12.1391 105.155 12.1391C105.541 12.1391 105.924 12.2199 106.277 12.3763C106.63 12.5326 106.947 12.7611 107.207 13.0471C107.467 13.3331 107.664 13.6702 107.786 14.0369C107.908 14.4036 107.952 14.7917 107.916 15.1764C107.953 15.5615 107.91 15.9502 107.788 16.3175C107.666 16.6847 107.469 17.0225 107.209 17.309C106.949 17.5956 106.632 17.8245 106.278 17.9812C105.925 18.1379 105.542 18.2189 105.155 18.2189C104.768 18.2189 104.385 18.1379 104.032 17.9812C103.678 17.8245 103.361 17.5956 103.101 17.309C102.841 17.0225 102.644 16.6847 102.522 16.3175C102.4 15.9502 102.357 15.5615 102.394 15.1764ZM106.727 15.1764C106.727 13.9075 106.157 13.1655 105.157 13.1655C104.153 13.1655 103.588 13.9075 103.588 15.1764C103.588 16.4555 104.153 17.1918 105.157 17.1918C106.157 17.1918 106.727 16.4504 106.727 15.1764Z" fill="white"/>
<path d="M109.465 12.252H110.577V13.182H110.664C110.81 12.848 111.057 12.568 111.37 12.381C111.683 12.1941 112.047 12.1095 112.411 12.139C112.695 12.1176 112.981 12.1606 113.247 12.2647C113.513 12.3688 113.753 12.5315 113.947 12.7406C114.142 12.9497 114.287 13.1999 114.372 13.4726C114.456 13.7454 114.479 14.0337 114.437 14.3163V18.1058H113.282V14.6064C113.282 13.6657 112.873 13.1978 112.018 13.1978C111.825 13.1888 111.632 13.2217 111.452 13.2943C111.273 13.3669 111.111 13.4774 110.979 13.6183C110.846 13.7592 110.745 13.9272 110.683 14.1106C110.621 14.2941 110.6 14.4888 110.621 14.6813V18.1058H109.465V12.252Z" fill="white"/>
<path d="M120.965 10.7946V12.2787H122.233V13.2518H120.965V16.2618C120.965 16.875 121.217 17.1435 121.792 17.1435C121.94 17.1431 122.087 17.1341 122.233 17.1169V18.0792C122.026 18.1163 121.815 18.136 121.605 18.1382C120.32 18.1382 119.808 17.6862 119.808 16.5576V13.2517H118.879V12.2786H119.808V10.7946H120.965Z" fill="white"/>
<path d="M123.811 9.96689H124.956V13.1928H125.048C125.201 12.8556 125.455 12.5741 125.774 12.3864C126.094 12.1988 126.463 12.1142 126.832 12.1441C127.116 12.1287 127.399 12.176 127.662 12.2827C127.925 12.3893 128.161 12.5527 128.354 12.7611C128.546 12.9696 128.69 13.2179 128.776 13.4885C128.861 13.7591 128.886 14.0452 128.848 14.3264V18.1058H127.692V14.6114C127.692 13.6764 127.257 13.2029 126.44 13.2029C126.242 13.1866 126.042 13.2139 125.855 13.2829C125.668 13.3519 125.499 13.4608 125.358 13.6022C125.218 13.7435 125.11 13.9139 125.042 14.1013C124.975 14.2886 124.949 14.4885 124.966 14.687V18.1058H123.811L123.811 9.96689Z" fill="white"/>
<path d="M135.585 16.5253C135.428 17.0603 135.088 17.523 134.624 17.8326C134.16 18.1422 133.602 18.2789 133.048 18.2188C132.662 18.229 132.279 18.1551 131.925 18.0023C131.571 17.8496 131.254 17.6215 130.997 17.334C130.739 17.0466 130.548 16.7065 130.435 16.3376C130.322 15.9686 130.291 15.5795 130.344 15.1974C130.293 14.814 130.324 14.4241 130.437 14.054C130.549 13.6839 130.74 13.3423 130.996 13.0524C131.252 12.7624 131.567 12.5307 131.92 12.3732C132.273 12.2156 132.656 12.1358 133.043 12.1391C134.672 12.1391 135.654 13.2519 135.654 15.09V15.4932H131.521V15.5579C131.503 15.7727 131.53 15.989 131.6 16.1927C131.671 16.3965 131.783 16.5833 131.929 16.7412C132.076 16.8991 132.254 17.0246 132.453 17.1096C132.651 17.1946 132.864 17.2373 133.08 17.2349C133.356 17.2681 133.636 17.2183 133.884 17.0919C134.132 16.9656 134.337 16.7683 134.473 16.5252L135.585 16.5253ZM131.521 14.6388H134.478C134.492 14.4423 134.465 14.245 134.399 14.0594C134.333 13.8739 134.229 13.7043 134.093 13.5614C133.957 13.4186 133.793 13.3058 133.611 13.2302C133.429 13.1545 133.234 13.1178 133.037 13.1223C132.837 13.1198 132.639 13.1573 132.454 13.2326C132.268 13.308 132.1 13.4196 131.959 13.5609C131.818 13.7022 131.706 13.8704 131.631 14.0555C131.556 14.2406 131.518 14.439 131.521 14.6388H131.521Z" fill="white"/>
</svg>
