<svg width="86" height="156" viewBox="0 0 86 156" fill="none" xmlns="http://www.w3.org/2000/svg">
<path d="M73.7482 127.978C73.7482 127.978 43.9606 130.62 13.9329 127.978C13.9329 127.978 10.0893 160.408 6.48599 209.173C3.19111 253.764 0.720666 282.921 0 298.055C0 298.055 4.21995 301.178 7.82328 301.178C12.8679 301.178 18.0166 298.775 18.0166 298.775C18.0166 298.775 21.5159 301.418 26.8008 301.418C34.2477 301.418 35.7931 299.256 35.7931 299.256C35.7931 299.256 39.2924 301.418 43.3761 301.418C49.8621 301.418 53.0891 299.496 53.0891 299.496C53.0891 299.496 57.1728 301.418 62.2175 301.418C67.0219 301.418 70.1448 299.016 70.1448 299.016C70.1448 299.016 74.2286 300.457 78.7928 300.457C83.5973 300.457 85.519 298.775 85.519 298.775C85.519 298.775 78.7882 181.558 77.3515 162.57C76.824 155.596 73.7482 127.978 73.7482 127.978Z" fill="#3F4042"/>
<path d="M72.4041 60.2957C72.4041 70.608 72.3435 82.9187 72.8845 108.34C73.2131 123.78 76.047 147.195 77.9688 163.771C77.9688 163.771 70.4823 171.278 43.3372 171.278C18.3541 171.278 8.64844 162.33 8.64844 162.33C8.64844 162.33 9.37005 154.796 10.9072 142.692C12.829 127.558 14.0301 118.91 14.7508 104.256C15.8837 81.2217 13.7899 67.9828 14.991 58.6142C16.0814 50.1096 72.4041 49.2455 72.4041 60.2957Z" fill="#E6E9EF"/>
<path d="M66.6387 31.4691C66.6387 21.751 62.555 6.10352e-05 44.7785 6.10352e-05C24.1194 6.10352e-05 20.0357 20.4002 20.0357 30.0278C20.0357 34.1733 19.7954 42.2791 15.2312 49.726C11.3257 56.0984 10.9072 62.698 10.9072 62.698C10.9072 62.698 27.0021 101.614 43.5774 101.614C57.9907 101.614 76.7281 71.8264 79.8509 60.536C79.8509 60.536 77.4487 53.3293 73.1247 47.564C70.3559 43.8723 66.6387 36.9943 66.6387 31.4691Z" fill="#3F4042"/>
<path d="M27.6855 33.3306C27.6855 33.3306 27.0018 52.1258 44.4179 52.1258C58.7112 52.1258 60.1398 33.3306 60.1398 33.3306C60.1398 33.3306 40.3803 23.421 27.6855 33.3306Z" fill="#2F3133"/>
<path d="M55.5881 91.5246C55.5881 91.5246 64.2429 90.4806 65.4372 92.0051V101.614L56.7892 101.662L55.5881 91.5246Z" fill="#EFB3AB"/>
<path d="M27.4824 30.0278C27.4824 30.0278 39.6331 12.0112 43.8951 12.0112C48.1571 12.0112 60.3928 28.0907 60.3928 30.0278C60.3928 35.5529 57.7504 49.2456 44.298 49.2456C30.6053 49.2456 27.4824 37.3894 27.4824 30.0278Z" fill="#EFB3AB"/>
<path d="M36.3703 92.2453C36.3703 92.2453 28.9645 87.4413 25.7505 88.1817L25.7498 88.1788C25.7498 88.1788 22.9207 88.1615 21.0006 88.6415C19.6835 88.9708 17.7382 91.3882 17.8804 92.2417C18.0519 93.2703 18.8355 93.4394 19.6191 93.191C18.4689 94.0198 17.288 95.6564 17.4 96.3283C17.6399 97.7685 19.0801 97.5285 20.0402 96.8083C21.0004 96.0884 22.2003 95.6082 22.2003 95.6082H24.5994V95.9697C23.8069 96.0365 22.9378 96.1472 22.202 96.3312C20.8849 96.6606 18.9395 99.0779 19.0817 99.9314C19.3217 101.372 20.7619 101.132 21.722 100.411C22.6822 99.6914 23.8821 99.2112 23.8821 99.2112H24.5994V99.4358C24.1307 99.5343 23.6671 99.6511 23.2501 99.789C21.9611 100.216 20.2014 102.771 20.407 103.612C20.7537 105.03 22.172 104.683 23.0757 103.894C23.6006 103.435 24.2107 103.052 24.6314 102.811L34.6887 102.815L36.3703 92.2453ZM20.5204 92.7281C20.5152 92.7296 20.5091 92.7325 20.5036 92.7337C20.5091 92.7296 20.5151 92.7257 20.5209 92.7216C21.4811 92.0017 22.681 91.5215 22.681 91.5215H24.5994V92.2746C23.6452 92.3003 21.8616 92.3928 20.5204 92.7281Z" fill="#EFB3AB"/>
<path d="M79.1294 62.698C76.9314 69.3262 71.9227 77.3515 65.1965 86.2397C65.6491 91.9919 65.4368 99.2117 65.4368 99.2117C65.4368 99.2117 47.4201 92.966 36.3699 89.8431L32.0459 111.703C32.0459 111.703 72.4356 128.569 81.7718 122.513C86.1972 119.643 86.8292 106.122 85.135 92.2453C83.4263 78.25 79.3706 63.9042 79.1294 62.698Z" fill="#E6E9EF"/>
<path d="M44.418 116.868C44.418 116.868 59.0338 122.688 74.4267 123.742" stroke="#C2C6CC" stroke-width="0.720666" stroke-miterlimit="10" stroke-linecap="round" stroke-linejoin="round"/>
<path d="M65.3174 86.3599L65.5576 99.3319" stroke="#C2C6CC" stroke-width="0.720666" stroke-miterlimit="10" stroke-linecap="round" stroke-linejoin="round"/>
<path d="M65.5576 99.3318C65.5576 99.3318 69.4012 101.254 72.7643 103.896" stroke="#C2C6CC" stroke-width="0.720666" stroke-miterlimit="10" stroke-linecap="round" stroke-linejoin="round"/>
<path d="M10.9068 62.698C10.9068 62.698 17.633 79.7538 25.8006 88.1615C24.3592 97.29 24.119 99.6922 24.119 99.6922C24.119 99.6922 45.4988 91.2844 57.9903 91.2844L58.711 110.742C58.711 110.742 17.7848 128.569 8.44859 122.513C-0.439621 116.748 7.78391 68.753 10.9068 62.698Z" fill="#E6E9EF"/>
<path d="M23.9993 99.3319C23.9993 99.3319 49.2226 89.9632 57.8706 91.1643L58.8315 110.863C58.8315 110.863 24.5542 125.171 13.2266 123.782" stroke="#C2C6CC" stroke-width="0.720666" stroke-miterlimit="10" stroke-linecap="round" stroke-linejoin="round"/>
<path d="M21.4836 99.211C21.4836 99.211 14.6298 101.734 12.708 105.578" stroke="#C2C6CC" stroke-width="0.720666" stroke-miterlimit="10" stroke-linecap="round" stroke-linejoin="round"/>
<path d="M54.8887 24.4109C54.4851 23.6821 52.9489 22.6282 51.337 22.4954C49.8933 22.3765 48.9627 22.6643 48.4695 22.8958C48.2012 23.0217 48.1212 23.3729 48.3112 23.6006C48.4962 23.8221 48.7722 24.0246 49.1318 23.937C49.3629 23.8805 50.5791 23.6963 51.6839 23.9153C52.979 24.1721 53.7926 24.5181 54.3905 24.8337C54.6187 24.9541 55.139 24.8628 54.8887 24.4109Z" fill="#423835"/>
<path d="M33.1396 24.6512C33.5432 23.9223 35.0794 22.8685 36.6913 22.7356C38.135 22.6167 39.0657 22.9045 39.5588 23.1361C39.8272 23.2619 39.9071 23.6132 39.7171 23.8409C39.5322 24.0624 39.2561 24.2649 38.8965 24.1772C38.6654 24.1207 37.4492 23.9365 36.3444 24.1556C35.0494 24.4124 34.2357 24.7583 33.6378 25.0739C33.4096 25.1943 32.8891 25.103 33.1396 24.6512Z" fill="#423835"/>
<path d="M37.5684 27.5703C37.0957 27.6796 36.8012 28.1514 36.9105 28.6242C37.0198 29.0969 37.4916 29.3915 37.9644 29.2822C38.4371 29.1729 38.7316 28.7011 38.6223 28.2283C38.513 27.7555 38.0412 27.461 37.5684 27.5703Z" fill="#302A2A"/>
<path d="M49.8194 27.5703C49.3467 27.6796 49.0522 28.1514 49.1615 28.6242C49.2708 29.0969 49.7426 29.3915 50.2153 29.2822C50.6881 29.1729 50.9826 28.7011 50.8733 28.2283C50.764 27.7555 50.2922 27.461 49.8194 27.5703Z" fill="#302A2A"/>
<path d="M42.7361 27.9859C42.7361 27.9859 45.2726 32.467 42.7361 33.0306C40.5741 33.511 41.0545 36.3937 43.2165 36.3937" stroke="#BF6762" stroke-width="0.720666" stroke-miterlimit="10" stroke-linecap="round" stroke-linejoin="round"/>
<path d="M38.7725 39.6367C38.7725 39.6367 39.7333 42.7596 43.3367 42.7596C46.94 42.7596 47.6607 39.6367 47.6607 39.6367C47.6607 39.6367 43.0965 38.9161 38.7725 39.6367Z" fill="#9B3535"/>
<path d="M46.4143 39.4861C44.9929 39.3458 42.5366 39.1957 40.0049 39.4688C40.4519 40.086 41.3742 40.8378 43.2159 40.8378C45.0409 40.8378 45.9626 40.0999 46.4143 39.4861Z" fill="#EDE2E2"/>
<path d="M72.7638 47.2037C72.7638 47.2037 66.9984 68.103 55.708 72.6672" stroke="#2F3133" stroke-width="0.720666" stroke-miterlimit="10" stroke-linecap="round" stroke-linejoin="round"/>
<path d="M18.8252 41.0379C18.8252 41.0379 21.5964 60.6561 30.4846 66.6617" stroke="#2F3133" stroke-width="0.720666" stroke-miterlimit="10" stroke-linecap="round" stroke-linejoin="round"/>
</svg>
