<svg width="25" height="25" viewBox="0 0 25 25" fill="none" xmlns="http://www.w3.org/2000/svg">
<path d="M20.4498 4.55133C19.7563 4.16902 19.0378 3.8321 18.3126 3.51433C16.7634 2.83543 15.1747 2.23066 13.5571 1.7334C12.4067 1.37971 10.9395 0.832795 9.83476 1.58316C9.42505 1.86161 9.11542 2.24831 8.84939 2.66038C8.81595 2.64676 8.78212 2.63288 8.74943 2.61953C8.47995 2.50884 8.20036 2.40852 7.91405 2.35154C7.5621 2.28132 7.22387 2.35067 6.94768 2.58422C6.42193 3.02878 6.51264 3.82833 7.01734 4.23798C7.03408 4.25398 7.05217 4.2686 7.07209 4.28183C7.28581 4.42352 7.51663 4.53807 7.75163 4.64133C7.50522 5.12749 7.26755 5.61809 7.03774 6.11257C6.81643 6.02987 6.58801 5.95578 6.35541 5.91858C6.01653 5.86449 5.69017 5.95665 5.43428 6.18644C4.93285 6.63629 5.03611 7.41718 5.52943 7.81789C5.5463 7.83377 5.56452 7.84851 5.58428 7.86161C5.75467 7.97442 5.93571 8.06971 6.12106 8.15645C5.90632 8.65925 5.69678 9.16432 5.4923 9.67142C5.31101 9.60588 5.12644 9.54889 4.9383 9.51146C4.58648 9.44125 4.24838 9.51059 3.97206 9.74415C3.4463 10.1888 3.53702 10.988 4.04172 11.3979C4.05858 11.4139 4.07668 11.4285 4.09646 11.4418C4.28295 11.5653 4.48198 11.6686 4.68569 11.7614C4.49502 12.2715 4.31032 12.7839 4.13169 13.2984C3.91011 13.2129 3.68283 13.1376 3.45062 13.0912C3.09867 13.021 2.76056 13.0906 2.48424 13.3242C1.95849 13.7687 2.04933 14.5681 2.55391 14.9778C2.57064 14.9937 2.58887 15.0084 2.60865 15.0215C2.8505 15.182 3.11375 15.3086 3.38082 15.4217C3.40148 15.4304 3.42328 15.4395 3.44429 15.4484C3.32228 15.8323 3.19852 16.2249 3.20777 16.6281C3.21918 17.1212 3.43605 17.5485 3.75467 17.9158C4.13509 18.3546 4.61271 18.6735 5.11362 18.9598C6.47982 19.7406 7.94684 20.3597 9.40326 20.9513C10.8408 21.5355 12.3036 22.099 13.8036 22.5054C14.3669 22.6581 14.9558 22.7943 15.5435 22.7404C16.0078 22.6977 16.4363 22.5271 16.7709 22.1972C17.0597 21.9124 17.2481 21.5418 17.4413 21.1902C18.2996 19.6298 19.0502 18.0075 19.7658 16.3782C20.6072 14.4621 21.398 12.5178 22.054 10.5303C22.3394 9.66496 22.6617 8.75929 22.7667 7.851C22.8688 6.96401 22.5783 6.14594 21.9178 5.53765C21.4856 5.13946 20.9625 4.83355 20.4498 4.55133Z" fill="#68182B"/>
<path d="M21.9972 6.8086C21.7982 6.27427 21.344 5.90812 20.9043 5.61719C19.7037 4.82245 18.3447 4.2411 17.0147 3.69961C15.8374 3.22013 14.6387 2.7777 13.4208 2.40697C13.2087 2.3423 13.0958 2.39977 12.9713 2.61016C12.3764 3.61552 11.8168 4.64129 11.2905 5.68372C10.1791 7.88565 9.20592 10.156 8.35407 12.4695C7.60966 14.4911 6.95823 16.548 6.41841 18.6333C6.37573 18.7982 6.3899 18.8671 6.50986 18.9264C7.92801 19.6283 9.39351 20.2394 10.873 20.8012C12.095 21.2653 13.3517 21.7514 14.639 22.006C14.6922 22.0164 14.7456 22.0258 14.7991 22.0353C14.8136 22.0379 14.8493 22.043 14.8682 22.0458C15.0346 22.0656 15.2035 22.075 15.371 22.0704C15.8001 22.0583 16.1701 21.8979 16.433 21.5521C16.8407 21.0159 17.127 20.3433 17.4305 19.7458C18.2651 18.103 19.0276 16.4218 19.7379 14.7225C20.4732 12.964 21.1662 11.1791 21.7078 9.35118C21.9419 8.56067 22.3005 7.62324 21.9972 6.8086ZM19.8653 9.03221C19.7077 9.76605 19.4039 10.4822 19.1118 11.1709C18.9561 11.538 18.7928 11.9028 18.6091 12.2573C18.4843 12.4986 18.3532 12.7515 18.1677 12.9534C18.007 13.1197 17.8237 13.2687 17.5885 13.3069C17.2135 13.3681 16.7757 13.1672 16.4245 13.0506C15.9845 12.9047 15.5486 12.7462 15.1157 12.5803C14.1616 12.2151 13.2115 11.8211 12.3059 11.3477C11.912 11.142 11.4307 10.9223 11.2324 10.5005C11.0968 10.2119 11.1442 9.90897 11.2151 9.61136C11.3973 8.8485 11.6895 8.1032 12.0033 7.38559C12.1582 7.03164 12.3237 6.67872 12.5251 6.34797C12.6828 6.08869 12.8694 5.82838 13.1484 5.68747C13.5874 5.46614 14.0812 5.62558 14.5222 5.75768C14.9845 5.89621 15.4389 6.05907 15.8891 6.23138C16.8213 6.58837 17.7405 6.98527 18.6367 7.42392C18.9685 7.58591 19.3814 7.74183 19.6516 7.9982C19.9397 8.27177 19.9431 8.66993 19.8653 9.03221Z" fill="#00EBED"/>
<path d="M19.4944 8.78862C19.4682 9.02434 19.3569 9.35444 19.271 9.6121C19.1364 10.0165 18.9839 10.4148 18.8218 10.8089C18.6619 11.1984 18.4911 11.5841 18.3012 11.9601C18.1815 12.1975 18.0439 12.4836 17.8773 12.6647C17.5353 13.0191 17.3496 12.915 16.8524 12.7599C16.4753 12.6421 16.1021 12.5119 15.731 12.3762C14.8461 12.0527 13.9707 11.6987 13.1191 11.2956C12.7489 11.1206 12.3789 10.9383 12.0281 10.7265C11.677 10.5146 11.5094 10.247 11.5682 9.9213C11.6855 9.2709 11.9343 8.63208 12.1789 8.02063C12.3199 7.66794 12.4725 7.31931 12.6445 6.98049C12.7707 6.73232 12.9029 6.46898 13.0857 6.25623C13.3652 5.93129 13.7222 5.96165 14.1094 6.06527C14.5168 6.1743 14.9175 6.3088 15.3141 6.45197C16.1813 6.76507 17.0327 7.12305 17.8689 7.51015C18.2191 7.67223 18.5674 7.83938 18.909 8.01876C19.3638 8.25732 19.5447 8.33221 19.4944 8.78862Z" fill="#FF2E60"/>
<path d="M7.46694 3.72601C7.35343 3.65189 7.22156 3.48223 7.28782 3.25231C7.35878 3.00701 7.60617 2.97765 7.7981 3.02227C8.02247 3.07384 8.24203 3.14805 8.45637 3.23137C8.63031 3.29907 8.82733 3.38755 9.01125 3.49242C9.05964 3.51901 9.13744 3.60727 9.18178 3.71856C9.22624 3.82972 9.23727 3.96373 9.15213 4.08184C9.07245 4.19239 8.98073 4.23133 8.90332 4.25792C8.72394 4.31943 8.55176 4.22288 8.28533 4.13579C8.00019 4.02927 7.72679 3.89313 7.46694 3.72601Z" fill="#FFC522"/>
<path d="M5.96117 7.29422C5.91165 7.26131 5.69562 7.04944 5.80206 6.81965C5.94181 6.51891 6.23165 6.58506 6.28714 6.59681C6.48718 6.63979 6.68343 6.70459 6.87484 6.77567C6.92741 6.79519 7.08578 6.86441 7.11315 6.87135C7.21842 6.91646 7.32383 6.96499 7.43799 7.02536C7.6559 7.14069 7.79805 7.36609 7.71379 7.59209C7.69757 7.6352 7.60598 7.75431 7.4698 7.81268C7.3654 7.85731 7.23276 7.85666 7.09924 7.81558C6.96354 7.77386 6.83002 7.7252 6.69854 7.67228C6.44307 7.56899 6.1926 7.44372 5.96117 7.29422Z" fill="#FFC522"/>
<path d="M4.48839 10.8835C4.37196 10.8075 4.22148 10.5785 4.33904 10.3613C4.49514 10.0729 4.78878 10.1741 4.86175 10.1914C5.07256 10.2422 5.27905 10.3125 5.48087 10.391C5.64722 10.4557 5.83483 10.5395 6.01207 10.6386C6.13178 10.7048 6.32092 10.9383 6.22972 11.1632C6.13016 11.4086 5.82472 11.4525 5.68889 11.418C5.26196 11.3063 4.86201 11.1253 4.48839 10.8835Z" fill="#FFC522"/>
<path d="M2.98733 14.4551C2.88394 14.3862 2.72408 14.1674 2.85241 13.9384C3.00672 13.6625 3.29112 13.7513 3.3722 13.7708C3.58365 13.8216 3.79063 13.8922 3.99298 13.9709C4.16691 14.0385 4.36393 14.1272 4.54785 14.2321C4.68634 14.3119 4.81606 14.564 4.73699 14.7543C4.65517 14.9512 4.36909 15.0415 4.2234 15.0049C3.78291 14.8923 3.37132 14.7052 2.98733 14.4551Z" fill="#FFC522"/>
<path d="M5.80109 18.5628C5.52328 18.4141 5.24988 18.2578 4.98676 18.0859C4.75961 17.9376 4.69196 17.8883 4.49571 17.7012C4.19851 17.4178 3.91865 17.092 3.89345 16.6647C3.87383 16.3297 3.98111 15.9958 4.08765 15.6732C4.14668 15.6853 4.20561 15.6972 4.2645 15.7013C4.88123 15.7437 5.48881 15.1746 5.43471 14.5581C5.40886 14.2647 5.29383 13.9551 5.06161 13.7607C4.97155 13.6852 4.86767 13.6243 4.75984 13.5689C4.93886 13.0511 5.12469 12.5358 5.31588 12.022C5.45968 12.0721 5.60637 12.1111 5.75232 12.1212C6.36904 12.1637 6.97662 11.5947 6.92239 10.9783C6.89667 10.6845 6.78151 10.3753 6.54943 10.1808C6.42414 10.076 6.27463 9.99615 6.12097 9.92619C6.32633 9.41571 6.53662 8.90735 6.74567 8.41816C6.97814 8.50351 7.22073 8.56702 7.46689 8.52468C7.7746 8.47225 8.06004 8.27373 8.24373 8.02717C8.4201 7.79045 8.44137 7.49209 8.38309 7.21088C8.32546 6.93243 8.16317 6.66987 7.9212 6.5152C7.84025 6.46351 7.75411 6.41827 7.66644 6.37503C7.89918 5.87677 8.13924 5.38178 8.38906 4.89143C8.50143 4.92547 8.61469 4.95332 8.72794 4.96126C9.34453 5.00372 9.95224 4.43477 9.89802 3.81838C9.87217 3.52457 9.75713 3.21535 9.52505 3.02086C9.50413 3.00347 9.47994 2.98934 9.45779 2.9732C9.8974 2.31448 10.4644 1.82226 11.3155 1.88944C11.4545 1.90054 12.2106 2.06111 12.3906 2.10799C12.6433 2.17392 12.6993 2.2634 12.5662 2.48928C11.4338 4.41302 10.4315 6.41178 9.5339 8.45401C8.55855 10.6732 7.70024 12.9439 6.96546 15.253C6.63164 16.3023 6.32519 17.3601 6.04722 18.4254C6.0048 18.5883 5.94869 18.6417 5.80109 18.5628Z" fill="#FF7A0D"/>
<path d="M6.53481 7.45587C6.22467 7.31028 5.88021 7.09298 5.83513 6.76514C5.82397 6.78279 5.81194 6.79841 5.80205 6.81961C5.69564 7.04939 5.91163 7.2613 5.96116 7.29418C6.19262 7.44368 6.44306 7.56897 6.69846 7.6722C6.82997 7.72515 6.9635 7.77378 7.09916 7.8155C7.23268 7.85658 7.36533 7.85723 7.46973 7.8126C7.60591 7.75423 7.69749 7.63512 7.71371 7.59201C7.7379 7.52683 7.7417 7.4622 7.73197 7.39966C7.39338 7.7115 7.00595 7.67685 6.53481 7.45587Z" fill="#FFA222"/>
<path d="M6.1922 11.2304C5.92969 11.3057 5.64822 11.2698 5.32795 11.1553C4.8872 10.998 4.45421 10.7414 4.38263 10.2998C4.36768 10.319 4.35221 10.3368 4.33904 10.3613C4.22147 10.5785 4.37199 10.8075 4.48839 10.8835C4.862 11.1253 5.26195 11.3063 5.68889 11.418C5.81086 11.4491 6.06853 11.4154 6.1922 11.2304Z" fill="#FFA222"/>
<path d="M8.90332 4.25799C8.98073 4.2314 9.07245 4.19245 9.15213 4.0819C9.19342 4.02469 9.21142 3.96367 9.2146 3.90316C8.98706 4.04724 8.73509 4.0625 8.4337 3.99064C8.0838 3.9072 7.37993 3.63947 7.31114 3.19678C7.30264 3.21469 7.29379 3.23169 7.28782 3.25238C7.22156 3.48229 7.35343 3.65195 7.46694 3.72607C7.72679 3.89322 8.00016 4.02933 8.28533 4.13585C8.55176 4.22294 8.72394 4.31949 8.90332 4.25799Z" fill="#FFA222"/>
<path d="M4.73692 14.7544C4.77519 14.6623 4.7639 14.5561 4.72716 14.4617C4.7003 14.5079 4.67001 14.5527 4.63113 14.5953C4.42311 14.8237 4.05913 14.7641 3.80006 14.7021C3.42936 14.6134 2.92074 14.333 2.8428 13.9609C2.73701 14.1818 2.88727 14.3888 2.98722 14.4552C3.37121 14.7052 3.78281 14.8924 4.2233 15.005C4.36905 15.0415 4.65509 14.9513 4.73692 14.7544Z" fill="#FFA222"/>
<path d="M12.5867 7.10205C12.439 7.40279 12.3032 7.70973 12.1789 8.0207C11.9343 8.63215 11.6855 9.27097 11.5682 9.92137C11.5094 10.2471 11.677 10.5147 12.0281 10.7266C12.3789 10.9383 12.7489 11.1207 13.1191 11.2957C13.9707 11.6988 14.8461 12.0527 15.731 12.3763C16.1021 12.5119 16.4753 12.6421 16.8524 12.76C17.3496 12.9151 17.5353 13.0192 17.8774 12.6647C18.044 12.4837 18.1815 12.1976 18.3012 11.9602C18.4911 11.5842 18.6619 11.1985 18.8218 10.809C18.9775 10.4305 19.1233 10.0478 19.2542 9.65983C18.9517 10.3666 18.5782 11.0479 18.2019 11.7027C18.0077 12.0404 17.7555 12.3399 17.3795 12.4767C16.9329 12.6393 16.3409 12.3793 15.9266 12.2167C15.1503 11.9119 14.3598 11.6144 13.6054 11.2603C13.0809 11.0141 12.22 10.7245 11.981 10.1584C11.7993 9.72805 12.0478 9.05874 12.1487 8.63396C12.272 8.11508 12.428 7.60786 12.5867 7.10205Z" fill="#EA0F4D"/>
<path d="M17.8457 8.13858C17.239 7.81412 16.1303 7.41342 15.4956 7.14733C15.1976 7.02255 14.8639 6.88402 14.5289 6.8292C14.1778 6.77173 13.8819 6.98551 13.6539 7.27857C13.334 7.6896 13.1476 8.25646 13.129 8.45042C13.0656 9.11722 13.3442 9.46965 13.8856 9.83103C14.5059 10.245 15.2572 10.4841 15.959 10.7198C16.6331 10.9461 17.4209 11.195 18.007 10.6487C18.272 10.4015 18.5018 9.9814 18.572 9.57201C18.659 9.0653 18.7239 8.60773 17.8457 8.13858Z" fill="#FF6699"/>
<path d="M4.00195 15.9452C4.21895 15.8594 4.5628 15.8656 4.71228 15.8239C4.92016 15.7659 5.14352 15.6163 5.26728 15.4396C5.51623 15.0839 5.60389 14.5823 5.35242 14.2017C5.39461 14.3175 5.42412 14.4384 5.43476 14.5579C5.48886 15.1744 4.88128 15.7435 4.26455 15.701C4.20566 15.697 4.14673 15.685 4.0877 15.6729C4.05796 15.7629 4.02907 15.8536 4.00195 15.9452Z" fill="#EF6200"/>
<path d="M4.49597 17.7009C4.69221 17.8881 4.75986 17.9373 4.98702 18.0856C5.25014 18.2575 5.52354 18.4138 5.80135 18.5625C5.94895 18.6414 6.00505 18.588 6.04751 18.4253C6.32545 17.3599 6.63193 16.3021 6.96575 15.2528C7.70053 12.9437 8.55883 10.6731 9.53419 8.45383C10.3845 6.51925 11.3329 4.62574 12.3926 2.7959C11.5243 3.56947 10.9184 4.76617 10.4389 5.73674C10.0199 6.58504 9.68762 7.47407 9.31035 8.34063C8.92635 9.22272 8.51171 10.0914 8.1309 10.9753C7.42589 12.6116 6.71265 14.3001 6.26162 16.0266C6.05017 16.8355 5.8248 17.8201 4.7201 17.5277C4.42202 17.4488 4.18258 17.2409 3.96973 16.9968C4.07675 17.2682 4.2811 17.496 4.49597 17.7009Z" fill="#EF6200"/>
<path d="M5.20361 12.3347C5.5064 12.2133 5.94196 12.2739 6.22862 12.1716C6.42905 12.1001 6.6671 11.9457 6.78733 11.7644C7.08301 11.3195 7.04931 10.7229 6.69308 10.3197C6.66383 10.2867 6.63292 10.2601 6.60136 10.2368C6.79569 10.4316 6.89909 10.7093 6.9225 10.9781C6.97673 11.5945 6.36912 12.1635 5.75243 12.121C5.60648 12.1109 5.45979 12.0719 5.31599 12.0218C5.27736 12.1257 5.24175 12.2307 5.20361 12.3347Z" fill="#EF6200"/>
<path d="M9.67972 4.61869C9.96921 4.31756 10.1407 3.71049 9.80095 3.37397C9.79006 3.36312 9.77903 3.3548 9.76813 3.34521C9.8401 3.49371 9.88404 3.65731 9.89812 3.81814C9.95234 4.43453 9.34464 5.00348 8.72804 4.96102C8.61479 4.95308 8.50154 4.92523 8.38916 4.89119C8.35054 4.96718 8.31353 5.04395 8.27539 5.1201C8.50747 5.05544 8.81684 5.07838 8.97939 5.05631C9.25885 5.01839 9.49311 4.81294 9.67972 4.61869Z" fill="#EF6200"/>
<path d="M8.25097 8.22962C8.54704 7.84556 8.67359 7.22463 8.30026 6.83073C8.23387 6.76077 8.16775 6.70694 8.10175 6.66748C8.24351 6.81746 8.34158 7.0092 8.38326 7.21062C8.44154 7.49184 8.42026 7.79019 8.2439 8.02691C8.0602 8.27348 7.77477 8.47199 7.46706 8.52443C7.2209 8.56679 6.97831 8.50326 6.74584 8.41791C6.69933 8.52707 6.65272 8.63975 6.60596 8.75056C6.90329 8.64634 7.27979 8.70316 7.5902 8.64417C7.82835 8.59919 8.10489 8.4192 8.25097 8.22962Z" fill="#EF6200"/>
<path d="M17.5409 19.5227C17.3677 19.7812 17.1914 20.038 17.0107 20.2915C16.584 20.8908 16.1686 21.5252 15.4164 21.7277C14.8275 21.886 14.1973 21.6537 13.6468 21.4607C13.0106 21.238 12.387 20.9839 11.7623 20.7293C10.586 20.25 9.41281 19.7584 8.26488 19.2146C7.75748 18.9742 7.37907 18.6548 7.25226 18.0907C7.10518 17.4361 7.34297 16.6919 7.52222 16.0674C8.11968 13.9865 8.91592 11.9562 9.69808 9.93892C10.3771 8.18749 11.0715 6.43729 11.7998 4.70312C11.6272 5.02858 11.4566 5.35504 11.2905 5.68392C10.1791 7.88585 9.20592 10.1562 8.35407 12.4697C7.60966 14.4913 6.95823 16.5482 6.41841 18.6335C6.37573 18.7984 6.3899 18.8673 6.50986 18.9266C7.92801 19.6285 9.39351 20.2396 10.873 20.8014C12.095 21.2655 13.3517 21.7516 14.639 22.0062C14.6922 22.0166 14.7456 22.026 14.7991 22.0355C14.8136 22.0381 14.8493 22.0432 14.8682 22.046C15.0346 22.0658 15.2035 22.0752 15.371 22.0706C15.8001 22.0585 16.1701 21.8981 16.433 21.5523C16.8407 21.0161 17.127 20.3435 17.4305 19.746C17.4682 19.6718 17.5036 19.5968 17.5409 19.5227Z" fill="#19BFBB"/>
<path d="M19.8865 8.34469C19.7823 7.90568 19.4632 7.6576 19.0845 7.43892C18.2418 6.95225 17.3055 6.60259 16.4021 6.24612C15.6623 5.95432 14.9104 5.63263 14.1371 5.43777C13.2415 5.21215 12.6744 5.60288 12.2975 6.40582C11.9268 7.19575 11.6513 8.04595 11.398 8.87876C11.3191 9.13869 11.2094 9.46879 11.1777 9.7877C11.1888 9.72871 11.2012 9.67008 11.2151 9.61135C11.3973 8.8485 11.6894 8.1032 12.0032 7.38558C12.1581 7.03163 12.3236 6.67871 12.5251 6.34796C12.6828 6.08868 12.8694 5.82837 13.1484 5.68746C13.5873 5.46613 14.0812 5.62557 14.5221 5.75767C14.9844 5.8962 15.4389 6.05906 15.8891 6.23137C16.8212 6.58836 17.7405 6.98526 18.6367 7.42391C18.9685 7.5859 19.3813 7.74182 19.6516 7.99819C19.861 8.1971 19.919 8.46179 19.9057 8.73078C19.9184 8.59845 19.9157 8.46821 19.8865 8.34469Z" fill="#19BFBB"/>
<path d="M21.7075 9.35125C21.9416 8.56067 22.3002 7.62324 21.997 6.8086C21.7979 6.27427 21.3437 5.90812 20.904 5.61719C19.7034 4.82245 18.3444 4.2411 17.0145 3.69961C15.8372 3.22013 14.6385 2.7777 13.4205 2.40697C13.2084 2.3423 13.0955 2.39977 12.971 2.61016C12.8262 2.85469 12.6839 3.10035 12.5435 3.34743C12.8268 3.07454 13.1465 2.85092 13.5143 2.80542C14.145 2.72752 14.9526 3.19567 15.5231 3.41561C16.883 3.93997 18.2337 4.50402 19.5249 5.1803C20.4686 5.67443 21.5844 6.16675 21.7261 7.34419C21.8133 8.06671 21.6226 8.81756 21.4246 9.50842C20.8966 11.3518 20.2174 13.1574 19.5517 14.9546C19.3691 15.4476 19.1848 15.9403 18.9987 16.432C19.2504 15.8645 19.4982 15.2951 19.7376 14.7225C20.4729 12.964 21.1659 11.1792 21.7075 9.35125Z" fill="#6CFFFB"/>
<path d="M17.0021 13.4686C17.382 13.5627 17.7659 13.5719 18.1116 13.3742C18.5494 13.1233 18.7092 12.417 18.8915 11.9952C19.2141 11.2487 19.5442 10.4951 19.7742 9.71384C19.8628 9.41284 19.9537 9.07338 19.9036 8.77051C19.897 8.85837 19.8834 8.94621 19.865 9.03217C19.7075 9.76602 19.4036 10.4821 19.1115 11.1708C18.9558 11.538 18.7925 11.9028 18.6088 12.2572C18.484 12.4986 18.3529 12.7515 18.1675 12.9534C18.0067 13.1196 17.8234 13.2687 17.5883 13.3068C17.2133 13.3681 16.7754 13.1672 16.4243 13.0506C15.9843 12.9046 15.5483 12.7462 15.1155 12.5803C14.1614 12.215 13.2112 11.8211 12.3057 11.3477C11.9432 11.1583 11.5094 10.9551 11.2876 10.5955C11.3915 10.9764 11.7401 11.2356 12.1493 11.4501C12.9744 11.883 13.8331 12.2588 14.6913 12.6209C15.4419 12.9374 16.2085 13.2721 17.0021 13.4686Z" fill="#6CFFFB"/>
</svg>
