<svg width="139" height="475" viewBox="0 0 139 475" fill="none" xmlns="http://www.w3.org/2000/svg">
<path d="M110.194 440.946C110.194 440.946 111.842 440.173 112.142 442.896C112.442 445.619 112.404 449.216 113.347 453.189C113.347 453.189 116.798 460.441 122.653 468.507C123.311 469.413 123.663 470.463 123.653 471.513L123.641 472.58L83.2895 473.38C83.2895 473.38 82.5743 470.783 83.33 469.484C87.0037 463.165 85.0559 461.216 86.473 451.124C86.8902 448.154 86.9591 445.084 86.2511 440.907C85.9419 439.083 87.2592 438.585 87.8126 438.608C87.8126 438.608 100.637 445.312 110.194 440.946Z" fill="#563439"/>
<path d="M123.153 472.919L123.11 476.47L83.2855 473.6L83.329 470.048C83.329 470.048 112.229 465.295 123.153 472.919Z" fill="#3D2429"/>
<path d="M86.4973 453.167C86.4973 453.167 87.4756 456.47 93.6645 458.43" stroke="#3D2429" stroke-width="1.04867" stroke-miterlimit="10" stroke-linecap="round" stroke-linejoin="round"/>
<path d="M32.1936 436.664C32.1936 436.664 30.5642 435.639 30.2084 438.312C29.8526 440.985 29.8153 444.582 28.7916 448.403C28.7916 448.403 25.196 455.115 19.1825 462.269C18.5073 463.073 18.1333 464.067 18.1224 465.117L18.1114 466.184L58.3825 473.174C58.3825 473.174 59.1501 470.691 58.4229 469.278C54.8861 462.406 56.8713 460.758 55.6658 450.466C55.3109 447.436 55.3058 444.36 56.0994 440.299C56.4459 438.525 55.141 437.825 54.588 437.764C54.588 437.764 41.645 442.489 32.1936 436.664Z" fill="#563439"/>
<path d="M18.1159 466.757L18.0723 470.309L57.8966 473.179L57.9401 469.628C57.9401 469.628 29.2078 460.72 18.1159 466.757Z" fill="#3D2429"/>
<path d="M55.6347 451.798C55.6347 451.798 54.5885 454.946 48.3683 455.957" stroke="#3D2429" stroke-width="1.04867" stroke-miterlimit="10" stroke-linecap="round" stroke-linejoin="round"/>
<path d="M54.3227 40.6552C54.3227 40.6552 47.209 37.0586 44.7629 42.6631C43.2859 46.0472 45.9809 55.8162 56.2216 53.8471L54.3227 40.6552Z" fill="#EFB3AB"/>
<path d="M52.8697 42.0106C52.8697 42.0106 46.7709 40.2397 46.9796 45.654C47.243 52.4874 53.6854 52.0192 53.6854 52.0192C53.6854 52.0192 55.1073 43.1706 52.8697 42.0106Z" fill="#D69592"/>
<path d="M101.145 42.3006C101.145 42.3006 108.277 39.4085 110.696 45.2554C112.157 48.7859 109.414 58.288 99.1822 55.3047L101.145 42.3006Z" fill="#EFB3AB"/>
<path d="M102.593 43.8076C102.593 43.8076 108.7 42.6406 108.465 48.0333C108.168 54.8392 101.728 53.7338 101.728 53.7338C101.728 53.7338 100.35 44.7461 102.593 43.8076Z" fill="#D69592"/>
<path d="M58.5206 53.1858C58.5206 53.1858 61.6343 70.2903 56.9206 86.9067C56.9206 86.9067 64.9402 96.0219 77.872 96.8289C87.7408 97.4448 93.835 92.965 92.9818 89.7953C91.0601 82.6558 91.3769 64.1702 91.3769 64.1702L58.5206 53.1858Z" fill="#EFB3AB"/>
<path d="M78.8277 81.1169C84.8354 81.4904 89.1955 78.9467 91.4299 77.1797C91.3365 74.4608 91.2983 71.8279 91.286 69.6535L59.5261 62.7217C59.6382 65.152 59.6844 67.9306 59.5865 70.9073C61.227 73.0997 66.1434 80.3284 78.8277 81.1169Z" fill="#D69592"/>
<path d="M53.3448 43.5707C52.9846 51.5374 53.0971 60.7048 57.3798 66.127C63.7718 74.2197 73.6545 77.5915 80.532 77.174C86.3276 76.8221 93.6767 73.3522 97.2544 69.0589C101.648 63.7861 102.621 56.6173 102.08 47.2605C101.603 39.0003 105.23 13.8675 77.1003 12.4751C58.4282 11.5508 54.1786 25.138 53.3448 43.5707Z" fill="#EFB3AB"/>
<path d="M60.6318 36.4888C61.8086 35.2888 63.5127 34.3132 66.5608 34.2495C69.6093 34.1858 70.8895 35.0437 71.4993 35.5568C71.7721 35.7862 70.8116 36.5114 69.5228 36.3033C69.5228 36.3033 68.2154 35.8606 65.6751 35.9136C63.643 35.956 62.4098 36.4517 61.431 36.9425C60.7387 37.289 60.2595 36.8682 60.6318 36.4888Z" fill="#423835"/>
<path d="M95.29 37.9021C94.1199 36.5902 92.4223 35.4503 89.3755 35.0892C86.3288 34.728 85.0446 35.4592 84.4322 35.9113C84.1585 36.1135 85.1143 36.9308 86.4038 36.8491C86.4038 36.8491 87.7128 36.5348 90.2521 36.8358C92.283 37.0765 93.5128 37.6914 94.4888 38.2766C95.1785 38.6902 95.6601 38.317 95.29 37.9021Z" fill="#423835"/>
<path d="M70.0449 42.8299C70.0433 43.4971 69.4646 44.0092 68.7526 43.9741C68.0406 43.9389 67.4649 43.3693 67.4665 42.7021C67.468 42.0349 68.0467 41.5228 68.7587 41.558C69.4707 41.5931 70.0468 42.1628 70.0449 42.8299Z" fill="#302A2A"/>
<path d="M89.3556 43.227C89.354 43.8942 88.7753 44.4063 88.0637 44.3712C87.3517 44.336 86.7759 43.7667 86.7775 43.0996C86.779 42.4324 87.3577 41.9203 88.0694 41.9554C88.7814 41.9906 89.3571 42.5599 89.3556 43.227Z" fill="#302A2A"/>
<path d="M78.0756 44.0236C78.0756 44.0236 80.292 50.3784 77.3673 50.7283C73.5661 51.183 73.901 55.3715 78.7384 54.9678" stroke="#BF6762" stroke-width="1.04867" stroke-miterlimit="10" stroke-linecap="round" stroke-linejoin="round"/>
<path d="M32.3889 185.526C32.3889 185.526 26.6993 204.33 26.2663 209.112C26.1046 210.899 21.3601 307.004 18.1204 329.105C15.3445 348.044 10.3019 430.144 10.3019 430.144C10.3019 430.144 19.0443 441.007 47.5891 442.781C53.0501 443.121 64.8536 440.584 71.9043 441.297C80.4619 442.162 98.0533 446.51 104.323 446.308C113.088 446.026 126.543 442.031 126.543 442.031C126.543 442.031 123.978 359.757 123.726 336.336C123.488 314.292 116.752 201.466 116.752 201.466L32.3889 185.526Z" fill="#E6E9EF"/>
<path d="M96.9901 92.9457C95.8417 80.0705 90.6943 80.7099 90.6943 80.7099C89.5199 87.3746 78.0347 96.9643 78.0347 96.9643L70.5094 96.4953C70.5094 96.4953 61.3931 92.0079 57.8157 78.6611C57.8157 78.6611 54.7994 77.1927 53.729 79.6868C52.6586 82.1809 48.7805 88.6612 48.7805 88.6612C48.7805 88.6612 33.6472 92.5195 32.2514 94.0332C28.9939 97.5653 29.9549 124.986 29.4967 154.679C29.2565 170.248 29.8343 171.8 29.8533 184.355C29.861 189.516 25.7346 222.463 28.0629 226.449C28.0629 226.449 43.316 234.711 74.4613 236.652C101.485 238.336 119.386 229.149 119.386 229.149C119.386 229.149 118.322 205.056 118.161 196.054C117.99 186.581 118.105 179.406 117.353 163.354C115.847 131.172 118.511 103.15 116.031 100.854C112.322 97.4221 96.9901 92.9457 96.9901 92.9457Z" fill="#E6E9EF"/>
<path d="M50.4931 38.9948C50.4931 38.9948 44.8641 4.80213 78.1143 6.44756C111.364 8.09298 106.565 41.8069 106.565 41.8069C106.565 41.8069 103.139 41.3788 100.76 42.8501C100.76 42.8501 102.425 55.9646 102.086 55.9478C102.086 55.9478 99.0358 54.2075 98.7028 51.6481C98.7028 51.6481 99.0564 41.8369 98.3908 40.5079C95.8293 35.3918 95.7061 28.2965 94.6968 24.7504C94.6968 24.7504 89.5972 28.6302 77.0437 28.0086C64.4902 27.3874 59.0746 21.7157 59.0746 21.7157C59.0746 21.7157 59.7121 38.5935 56.9969 38.7769C56.9969 38.7769 57.531 44.8152 56.9761 47.3581C56.633 48.9303 53.5 54.0159 53.5676 53.5465C55.293 41.5534 54.1305 39.4724 50.4931 38.9948Z" fill="#423835"/>
<path d="M71.0854 61.7902C71.0854 61.7902 76.8388 65.3492 84.0695 62.4089" stroke="#9B3535" stroke-width="1.04867" stroke-miterlimit="10" stroke-linecap="round" stroke-linejoin="round"/>
<path d="M53.3154 54.043C53.3154 54.043 52.9225 75.8306 76.6288 77.1171C102.667 78.53 101.707 56.4326 101.707 56.4326L98.3331 52.1573C98.3331 52.1573 99.3048 69.5878 89.1481 70.9823C89.1481 70.9823 85.8379 67.1848 76.6684 66.7321C67.499 66.2793 64.7844 69.1472 64.7844 69.1472C64.7844 69.1472 56.0017 62.3924 56.8585 46.949L53.3154 54.043Z" fill="#423835"/>
<path d="M36.0762 93.6072C36.0762 93.6072 28.8908 94.4635 25.4019 99.6587C21.9129 104.854 -1.80098 159.411 15.6249 174.189C29.8852 186.282 96.3987 162.673 96.3987 162.673L92.6611 142.699L39.5766 145.436C39.5766 145.436 39.4605 96.3342 36.0762 93.6072Z" fill="#E6E9EF"/>
<path d="M109.463 97.6721C109.463 97.6721 116.608 99.4236 119.914 105.047C123.219 110.669 145.028 168.107 127.122 180.69C112.469 190.987 52.5828 154.372 52.5828 154.372L52.7463 133.672L102.23 144.407C102.23 144.407 105.991 99.9729 109.463 97.6721Z" fill="#E6E9EF"/>
<path d="M52.865 135.783C52.865 135.783 42.2603 133.088 39.4626 134.946L39.1674 149.719L53.1352 149.315L52.865 135.783Z" fill="#EFB3AB"/>
<path d="M87.3506 141.157C87.3506 141.157 99.2286 136.429 102.888 136.589L102.692 144.386L87.3506 141.157Z" fill="#EFB3AB"/>
<path d="M52.8709 148.178L52.492 154.789C52.492 154.789 93.4693 180.191 117.335 182.491" stroke="#C2C6CC" stroke-width="1.04867" stroke-miterlimit="10" stroke-linecap="round" stroke-linejoin="round"/>
<path d="M53.0496 133.991L102.813 144.768C102.813 144.768 116.533 151.479 120.181 155.102" stroke="#C2C6CC" stroke-width="1.04867" stroke-miterlimit="10" stroke-linecap="round" stroke-linejoin="round"/>
<path d="M105.063 109.544C105.063 109.544 102.563 131.699 102.475 140.359" stroke="#C2C6CC" stroke-width="1.04867" stroke-miterlimit="10" stroke-linecap="round" stroke-linejoin="round"/>
<path d="M39.3435 149.887C39.3435 149.887 33.2462 150.139 26.7184 155.724" stroke="#C2C6CC" stroke-width="1.04867" stroke-miterlimit="10" stroke-linecap="round" stroke-linejoin="round"/>
<path d="M28.7999 177.645C28.7999 177.645 64.2952 174.783 77.2179 169.264" stroke="#C2C6CC" stroke-width="1.04867" stroke-miterlimit="10" stroke-linecap="round" stroke-linejoin="round"/>
<path d="M40.0537 111.782C40.0537 111.782 42.9852 124.789 39.4294 133.924" stroke="#C2C6CC" stroke-width="1.04867" stroke-miterlimit="10" stroke-linecap="round" stroke-linejoin="round"/>
<path d="M31.3972 437.609C31.3972 437.609 46.8152 338.907 48.5267 307.919" stroke="#C2C6CC" stroke-width="1.04867" stroke-miterlimit="10" stroke-linecap="round" stroke-linejoin="round"/>
<path d="M73.2434 285.578C73.2434 285.578 78.2922 419.064 71.0018 442.091" stroke="#C2C6CC" stroke-width="1.04867" stroke-miterlimit="10" stroke-linecap="round" stroke-linejoin="round"/>
<path d="M98.1443 286.855L113.658 441.892" stroke="#C2C6CC" stroke-width="1.04867" stroke-miterlimit="10" stroke-linecap="round" stroke-linejoin="round"/>
<path d="M59.6402 67.7736C59.6402 67.7736 60.8905 56.4461 76.6715 57.4242C93.5045 58.4676 94.6479 70.5796 94.6479 70.5796L86.2301 73.006C86.2301 73.006 87.4861 61.3531 76.9654 60.701C66.7954 60.0707 66.5972 71.4634 66.5972 71.4634L59.6402 67.7736Z" fill="#423835"/>
<path d="M77.7616 4.22134C69.2827 3.69295 55.0579 5.46434 47.6477 25.2082C42.1724 39.7971 31.8441 80.8658 36.598 92.4246C36.598 92.4246 42.307 89.4679 46.8661 91.7396C46.8661 91.7396 52.03 100.011 59.1409 97.8043L65.8807 90.9167L64.8524 73.9797C64.8524 73.9797 53.609 69.6354 53.9421 50.1128C53.9421 50.1128 60.2305 33.9423 60.3209 28.6482C60.3209 28.6482 64.4982 32.5522 70.1794 31.2501C70.1794 31.2501 75.7642 35.573 80.0717 31.8666C80.0717 31.8666 83.206 34.7118 88.1974 32.373C88.1974 32.373 91.2227 35.6765 95.565 32.8991C95.565 32.8991 97.6985 50.0478 101.654 52.0926C101.654 52.0926 102.323 67.7674 91.6599 74.5236L91.4536 93.2714C91.4536 93.2714 95.1604 101.043 102.249 100.16L116.751 100.07C116.751 100.07 117.028 80.5878 114.254 59.8337C112.511 46.7959 110.29 38.1174 106.351 25.5543C102.326 12.7159 91.9181 5.10354 77.7616 4.22134Z" fill="#BF4A5B"/>
<path d="M64.9481 74.4648C64.9481 74.4648 53.5342 70.0915 53.8759 50.4507C53.8759 50.4507 53.9097 50.3648 53.9707 50.2078C53.8805 50.2279 53.7907 50.2487 53.6997 50.2731C53.6997 50.2731 44.906 83.1201 50.4056 96.3679C52.6046 98.1013 55.6404 99.5098 59.1456 98.4327L65.9894 91.505L64.9481 74.4648Z" fill="#A3324C"/>
<path d="M101.168 51.8924C101.168 51.8924 101.844 67.6644 91.0096 74.4599L90.7965 93.3238C90.7965 93.3238 94.5611 101.144 101.763 100.257L106.965 100.227C110.256 92.7956 101.168 51.8924 101.168 51.8924Z" fill="#A3324C"/>
<path d="M107.845 48.2676C107.845 48.2676 115.87 91.3676 112.607 100.114" stroke="#A3324C" stroke-width="1.04867" stroke-miterlimit="10" stroke-linecap="round" stroke-linejoin="round"/>
<path d="M48.9335 43.45C48.9335 43.45 42.0082 80.5188 41.9374 92.3039" stroke="#A3324C" stroke-width="1.04867" stroke-miterlimit="10" stroke-linecap="round" stroke-linejoin="round"/>
<path d="M50.6396 19.6621C50.6396 19.6621 56.9449 26.5886 77.5842 27.844C102.072 29.3336 106.011 24.5008 106.011 24.5008C106.011 24.5008 107.107 22.0312 104.252 20.2767C104.252 20.2767 75.8817 24.7503 53.2864 15.904C53.2864 15.904 49.0829 15.9655 50.6396 19.6621Z" fill="#483038"/>
</svg>
