<svg width="176" height="52" viewBox="0 0 176 52" fill="none" xmlns="http://www.w3.org/2000/svg">
<g clip-path="url(#clip0_6930_178480)">
<path fill-rule="evenodd" clip-rule="evenodd" d="M168.547 51.9999H6.51512C2.94159 51.9999 0.03125 49.0693 0.03125 45.4999V6.50007C0.03125 2.91779 2.94159 9.15527e-05 6.51512 9.15527e-05H168.547C172.118 9.15527e-05 175.031 2.91779 175.031 6.50007V45.4999C175.031 49.0693 172.118 51.9999 168.547 51.9999Z" fill="black"/>
<path d="M92.4849 17.2015C91.313 17.2015 90.325 16.7897 89.5437 15.9793C88.7689 15.1915 88.3362 14.1055 88.3556 12.9967C88.3556 11.8135 88.7559 10.8117 89.5437 10.0174C90.3218 9.20698 91.3097 8.79526 92.4817 8.79526C93.6408 8.79526 94.6287 9.20698 95.4229 10.0174C96.2107 10.8376 96.611 11.8394 96.611 12.9967C96.5981 14.1833 96.1978 15.185 95.4229 15.976C94.6448 16.793 93.6569 17.2015 92.4849 17.2015ZM57.6132 17.2015C56.4671 17.2015 55.4727 16.7962 54.6591 15.9955C53.8519 15.198 53.4419 14.1898 53.4419 13C53.4419 11.8102 53.8519 10.802 54.6591 10.0045C55.4565 9.20374 56.4509 8.7985 57.6132 8.7985C58.1814 8.7985 58.7335 8.91197 59.263 9.14214C59.7828 9.36583 60.2057 9.67057 60.5189 10.0434L60.5964 10.1374L59.7215 10.9997L59.6311 10.8928C59.1371 10.3027 58.4752 10.0142 57.6003 10.0142C56.819 10.0142 56.1377 10.293 55.576 10.8441C55.011 11.3985 54.7236 12.1247 54.7236 13.0032C54.7236 13.8818 55.011 14.608 55.576 15.1623C56.1377 15.7134 56.819 15.9922 57.6003 15.9922C58.4333 15.9922 59.1339 15.7134 59.6795 15.1623C60.0023 14.8381 60.2025 14.3843 60.2735 13.8105H57.4679V12.598H61.4778L61.4939 12.7082C61.523 12.9125 61.552 13.1232 61.552 13.3177C61.552 14.4361 61.2163 15.3406 60.5512 16.0085C59.7957 16.7995 58.8078 17.2015 57.6132 17.2015ZM103.979 17.0296H102.742L98.955 10.9446L98.9873 12.0404V17.0264H97.7507V8.97032H99.1616L99.2004 9.03192L102.761 14.7636L102.729 13.6711V8.97032H103.979V17.0296ZM83.1931 17.0296H81.9404V10.1828H79.7676V8.97032H85.3627V10.1828H83.1899V17.0296H83.1931ZM78.7474 17.0296H77.4979V8.97032H78.7474V17.0296ZM71.7253 17.0296H70.4758V10.1828H68.303V8.97032H73.8981V10.1828H71.7253V17.0296ZM67.512 17.0167H62.7208V8.97032H67.512V10.1828H63.9735V12.3937H67.1665V13.5932H63.9735V15.8042H67.512V17.0167ZM90.4606 15.1461C91.0192 15.707 91.6972 15.989 92.4849 15.989C93.2953 15.989 93.9572 15.7134 94.5092 15.1461C95.0581 14.595 95.3358 13.872 95.3358 13C95.3358 12.1279 95.0581 11.4017 94.5125 10.8539C93.9539 10.293 93.2727 10.011 92.4882 10.011C91.6778 10.011 91.0159 10.2865 90.4671 10.8539C89.9182 11.405 89.6406 12.1279 89.6406 13C89.6406 13.872 89.915 14.5982 90.4606 15.1461Z" fill="white"/>
<path fill-rule="evenodd" clip-rule="evenodd" d="M88.2394 28.2823C85.1884 28.2823 82.7153 30.6067 82.7153 33.8129C82.7153 36.99 85.2045 39.3436 88.2394 39.3436C91.2904 39.3436 93.7635 37.0029 93.7635 33.8129C93.7635 30.6067 91.2904 28.2823 88.2394 28.2823ZM88.2394 37.1521C86.5702 37.1521 85.1335 35.7645 85.1335 33.8C85.1335 31.8062 86.5735 30.4479 88.2394 30.4479C89.9086 30.4479 91.3453 31.8062 91.3453 33.8C91.3485 35.7775 89.9086 37.1521 88.2394 37.1521ZM76.1871 28.2823C73.1361 28.2823 70.663 30.6067 70.663 33.8129C70.663 36.99 73.1522 39.3436 76.1871 39.3436C79.2381 39.3436 81.7112 37.0029 81.7112 33.8129C81.7112 30.6067 79.2349 28.2823 76.1871 28.2823ZM76.1871 37.1521C74.5179 37.1521 73.0812 35.7645 73.0812 33.8C73.0812 31.8062 74.5211 30.4479 76.1871 30.4479C77.8563 30.4479 79.293 31.8062 79.293 33.8C79.293 35.7775 77.8563 37.1521 76.1871 37.1521ZM61.8457 29.9713V32.3119H67.4408C67.2697 33.6249 66.8371 34.5942 66.1752 35.2588C65.3552 36.0823 64.0896 36.977 61.8586 36.977C58.4201 36.977 55.7307 34.189 55.7307 30.7364C55.7307 27.2838 58.4201 24.4958 61.8586 24.4958C63.715 24.4958 65.0678 25.2317 66.0719 26.1718L67.7249 24.512C66.3302 23.1698 64.4738 22.1422 61.8715 22.1422C57.1545 22.1422 53.1963 26 53.1963 30.7234C53.1963 35.4598 57.1513 39.3047 61.8715 39.3047C64.4189 39.3047 66.3302 38.4683 67.8412 36.8927C69.3812 35.3463 69.8687 33.1646 69.8687 31.4042C69.8687 30.8563 69.8268 30.3636 69.7396 29.9454H61.8425C61.8457 29.9421 61.8457 29.9713 61.8457 29.9713ZM120.506 31.7932C120.044 30.5516 118.649 28.2693 115.789 28.2693C112.954 28.2693 110.597 30.5095 110.597 33.8C110.597 36.9057 112.928 39.3306 116.063 39.3306C118.582 39.3306 120.047 37.7842 120.651 36.8765L118.782 35.6187C118.162 36.5426 117.3 37.1488 116.076 37.1488C114.84 37.1488 113.974 36.5847 113.4 35.4728L120.764 32.4092C120.764 32.4124 120.506 31.7932 120.506 31.7932ZM112.996 33.6411C112.938 31.5047 114.649 30.4187 115.873 30.4187C116.838 30.4187 117.642 30.8952 117.917 31.589L112.996 33.6411ZM107.014 38.9999H109.432V22.7516H107.014V38.9999ZM103.042 29.511H102.955C102.41 28.8593 101.373 28.2693 100.05 28.2693C97.302 28.2693 94.7708 30.6975 94.7708 33.8162C94.7708 36.9219 97.2891 39.3209 100.05 39.3209C101.357 39.3209 102.41 38.7276 102.955 38.063H103.042V38.8573C103.042 40.9678 101.919 42.1057 100.108 42.1057C98.6258 42.1057 97.7056 41.0359 97.3311 40.1411L95.2293 41.0229C95.833 42.4817 97.4441 44.2875 100.104 44.2875C102.939 44.2875 105.341 42.6114 105.341 38.5234V28.6H103.055V29.511C103.059 29.511 103.042 29.511 103.042 29.511ZM100.266 37.1521C98.5967 37.1521 97.202 35.7516 97.202 33.8162C97.202 31.8646 98.5967 30.4511 100.266 30.4511C101.919 30.4511 103.201 31.8808 103.201 33.8162C103.217 35.7516 101.922 37.1521 100.266 37.1521ZM131.829 22.7516H126.046V38.9999H128.464V32.8469H131.832C134.508 32.8469 137.14 30.8985 137.14 27.8057C137.14 24.713 134.518 22.7516 131.829 22.7516ZM131.9 30.5775H128.461V25.0015H131.9C133.711 25.0015 134.734 26.5025 134.734 27.7895C134.734 29.0636 133.698 30.5775 131.9 30.5775ZM146.832 28.2531C145.075 28.2531 143.264 29.0344 142.515 30.7364L144.659 31.6311C145.121 30.7364 145.967 30.4316 146.861 30.4316C148.114 30.4316 149.379 31.1838 149.408 32.5259V32.6977C148.976 32.4513 148.026 32.0753 146.89 32.0753C144.575 32.0753 142.228 33.3461 142.228 35.7289C142.228 37.9107 144.126 39.3112 146.241 39.3112C147.865 39.3112 148.759 38.5753 149.318 37.7226H149.405V38.9805H151.736V32.7561C151.736 29.8578 149.592 28.2531 146.832 28.2531ZM146.528 37.1521C145.737 37.1521 144.63 36.763 144.63 35.7645C144.63 34.5067 146.012 34.0301 147.19 34.0301C148.256 34.0301 148.759 34.2603 149.392 34.578C149.218 36.0369 147.991 37.1391 146.528 37.1521ZM160.24 28.6L157.464 35.6478H157.376L154.5 28.6H151.897L156.214 38.4521L153.754 43.9276H156.272L162.913 28.6H160.24ZM138.473 38.9999H140.891V22.7516H138.473V38.9999Z" fill="white"/>
<path fill-rule="evenodd" clip-rule="evenodd" d="M13.54 9.7938C13.1655 10.199 12.9492 10.8182 12.9492 11.6287V40.3745C12.9492 41.185 13.1655 41.8042 13.553 42.1932L13.6531 42.2807L29.6927 26.175V25.8152L13.6401 9.70627L13.54 9.7938Z" fill="url(#paint0_linear_6930_178480)"/>
<path fill-rule="evenodd" clip-rule="evenodd" d="M35.029 31.5599L29.6792 26.1881V25.812L35.029 20.4402L35.1452 20.5115L41.4733 24.123C43.2845 25.1474 43.2845 26.8397 41.4733 27.8771L35.1452 31.4885L35.029 31.5599Z" fill="url(#paint1_linear_6930_178480)"/>
<path fill-rule="evenodd" clip-rule="evenodd" d="M35.1452 31.4885L29.6793 26L13.5396 42.2062C14.1304 42.8416 15.1216 42.9129 16.229 42.2937L35.1452 31.4885Z" fill="url(#paint2_linear_6930_178480)"/>
<path fill-rule="evenodd" clip-rule="evenodd" d="M35.1452 20.5115L16.229 9.72252C15.1216 9.08711 14.1272 9.17464 13.5396 9.81005L29.6793 26L35.1452 20.5115Z" fill="url(#paint3_linear_6930_178480)"/>
<path opacity="0.2" fill-rule="evenodd" clip-rule="evenodd" d="M35.0289 31.3719L16.2417 42.0895C15.1924 42.6958 14.2561 42.6536 13.6523 42.1025L13.5522 42.203L13.6523 42.2905C14.2561 42.8384 15.1924 42.8838 16.2417 42.2776L35.1581 31.4886L35.0289 31.3719Z" fill="black"/>
<path opacity="0.12" fill-rule="evenodd" clip-rule="evenodd" d="M41.4736 27.689L35.0132 31.3718L35.1294 31.4885L41.4574 27.8771C42.3647 27.3584 42.8102 26.6776 42.8102 26C42.7553 26.6225 42.2936 27.2125 41.4736 27.689Z" fill="black"/>
<path opacity="0.25" fill-rule="evenodd" clip-rule="evenodd" d="M16.2295 9.91058L41.4738 24.311C42.2938 24.7746 42.7555 25.3809 42.8265 26.0001C42.8265 25.3225 42.381 24.6417 41.4738 24.123L16.2295 9.72255C14.4182 8.68191 12.9492 9.55073 12.9492 11.6288V11.8168C12.9492 9.73552 14.4182 8.88291 16.2295 9.91058Z" fill="white"/>
</g>
<defs>
<linearGradient id="paint0_linear_6930_178480" x1="28.2539" y1="11.3186" x2="2.54729" y2="18.14" gradientUnits="userSpaceOnUse">
<stop stop-color="#00A0FF"/>
<stop offset="0.00657" stop-color="#00A1FF"/>
<stop offset="0.2601" stop-color="#00BEFF"/>
<stop offset="0.5122" stop-color="#00D2FF"/>
<stop offset="0.7604" stop-color="#00DFFF"/>
<stop offset="1" stop-color="#00E3FF"/>
</linearGradient>
<linearGradient id="paint1_linear_6930_178480" x1="43.8353" y1="26.0001" x2="12.5084" y2="26.0001" gradientUnits="userSpaceOnUse">
<stop stop-color="#FFE000"/>
<stop offset="0.4087" stop-color="#FFBD00"/>
<stop offset="0.7754" stop-color="#FFA500"/>
<stop offset="1" stop-color="#FF9C00"/>
</linearGradient>
<linearGradient id="paint2_linear_6930_178480" x1="32.1731" y1="28.9866" x2="11.4215" y2="63.7698" gradientUnits="userSpaceOnUse">
<stop stop-color="#FF3A44"/>
<stop offset="1" stop-color="#C31162"/>
</linearGradient>
<linearGradient id="paint3_linear_6930_178480" x1="9.4754" y1="0.232537" x2="18.7335" y2="15.7673" gradientUnits="userSpaceOnUse">
<stop stop-color="#32A071"/>
<stop offset="0.0685" stop-color="#2DA771"/>
<stop offset="0.4762" stop-color="#15CF74"/>
<stop offset="0.8009" stop-color="#06E775"/>
<stop offset="1" stop-color="#00F076"/>
</linearGradient>
<clipPath id="clip0_6930_178480">
<rect width="175.499" height="51.9998" fill="white" transform="translate(0.03125 9.15527e-05)"/>
</clipPath>
</defs>
</svg>
