<svg width="25" height="25" viewBox="0 0 25 25" fill="none" xmlns="http://www.w3.org/2000/svg">
<path d="M22.301 8.68364C21.9978 7.92089 21.3637 7.41016 20.5672 7.22868C19.6577 7.02126 18.7095 7.1433 17.7948 7.27864C17.7836 7.21019 17.7718 7.14271 17.7601 7.07545C18.2791 6.73987 18.6355 6.19577 18.2863 5.55214C17.9122 4.86274 17.1714 4.67125 16.4541 4.50657C14.9971 4.21985 13.4687 4.22375 11.9901 4.21156C10.3391 4.19803 8.63648 4.20158 7.00734 4.50364C6.34301 4.64702 5.27417 4.90037 5.02388 5.63484C4.77136 6.37516 5.2206 6.85886 5.82195 7.13754C5.81353 7.18662 5.80539 7.23645 5.7971 7.2859C4.21376 7.05375 2.13052 6.82391 1.30834 8.52711C0.879581 9.41542 1.23867 10.3522 1.79556 11.0902C2.33248 11.8014 2.98232 12.3523 3.76733 12.7706C4.58804 13.208 5.46432 13.5323 6.33524 13.8544C6.39736 13.9718 6.46168 14.0881 6.53231 14.2015C7.07947 15.0796 8.15488 15.5588 9.05588 15.9669C9.53166 16.1824 10.4901 16.3675 10.6603 16.923C10.874 17.62 10.597 18.4005 10.1529 18.9352C9.17696 20.1102 6.72552 19.9106 6.3087 21.5018C6.00016 22.6798 7.39958 22.9304 8.1878 23.0251C9.91099 23.2321 11.675 23.2282 13.407 23.1809C14.3407 23.1555 16.1219 23.3125 16.9065 22.6563C18.3957 21.4113 16.3209 20.3394 15.2624 20.0087C14.3298 19.7174 13.4315 19.123 13.0722 18.1822C12.4204 16.4756 14.3475 16.1469 15.4783 15.5678C16.3325 15.1305 16.9263 14.5046 17.3293 13.7671C17.3433 13.7636 17.3571 13.7613 17.3717 13.756C18.1766 13.4588 18.9915 13.1745 19.7554 12.7794C20.5381 12.3745 21.1841 11.8235 21.72 11.1236C22.2457 10.4365 22.6423 9.54308 22.301 8.68364ZM4.86793 11.3054C4.437 11.1157 3.98314 10.8865 3.6818 10.5135C3.42563 10.1963 3.07692 9.52699 3.47291 9.18521C3.76218 8.93587 4.22446 8.91966 4.58561 8.92892C4.80304 8.93441 5.0201 8.95658 5.23386 8.99749C5.51181 9.05122 5.56772 9.13538 5.55188 9.4573C5.51693 10.1674 5.53361 10.8843 5.63168 11.5806C5.37137 11.505 5.11789 11.4154 4.86793 11.3054ZM20.0758 10.176C19.8301 10.6491 19.4173 10.9441 18.95 11.1765C18.8025 11.2502 18.6501 11.3128 18.5003 11.3819C18.0446 11.592 18.0156 11.4843 18.0437 11.1304C18.0904 10.5449 18.0853 9.94527 18.0467 9.35244C18.0271 9.05059 18.1839 8.92929 18.4433 8.89967C18.5609 8.88614 18.6794 8.87884 18.7977 8.87603C19.1734 8.86702 19.5942 8.89309 19.9278 9.08408C20.0699 9.16544 20.1935 9.27994 20.2283 9.44586C20.2798 9.69086 20.1872 9.96102 20.0758 10.176Z" fill="#68182B"/>
<path d="M5.48721 12.8419C4.50875 12.4657 3.53711 12.0156 2.81528 11.2709C2.30405 10.7437 1.67385 10.0006 1.77616 9.20822C1.86849 8.49275 2.48434 8.01332 3.14843 7.86287C3.85929 7.70172 4.61361 7.7759 5.33897 7.87871C5.63948 7.92121 5.69086 7.95339 5.65616 8.24937C5.6391 8.39116 5.62363 8.53403 5.60951 8.6775C5.32229 8.58748 5.00473 8.55642 4.7157 8.53974C4.25405 8.51317 3.71469 8.5412 3.31909 8.80881C2.80068 9.15973 2.84708 9.78653 3.08706 10.2995C3.35978 10.8824 3.86833 11.2628 4.43375 11.5381C4.84386 11.7376 5.26361 11.8919 5.70321 12.0084C5.74122 12.204 5.78603 12.3975 5.83867 12.5882C5.93973 12.9537 5.89514 12.9984 5.48721 12.8419Z" fill="#FF7A0D"/>
<path d="M17.3291 11.4227C17.1841 13.0387 16.5826 14.1999 15.1463 15.0001C14.3504 15.4433 12.9783 15.5985 12.5037 16.4359C12.0985 17.1507 12.3191 18.1846 12.6602 18.8666C13.0034 19.5533 13.7199 20.0339 14.3853 20.3627C14.9872 20.66 17.4044 21.1397 16.579 22.0764C16.2704 22.4265 15.4157 22.3971 15.0046 22.4351C14.1053 22.5183 13.1993 22.5356 12.297 22.542C10.7196 22.5535 9.04528 22.582 7.49363 22.257C7.20946 22.1977 7.065 22.1045 6.95695 21.7972C6.72807 21.1463 8.08475 20.789 8.45394 20.6841C9.13752 20.4897 9.76322 20.1418 10.3137 19.6972C10.8849 19.2358 11.3206 18.4818 11.356 17.7406C11.4053 16.709 11.1994 16.1907 10.2463 15.7713C9.0726 15.2552 7.68087 14.8015 6.9688 13.6585C6.18862 12.4063 6.17877 10.69 6.23028 9.26887C6.25379 8.62074 6.34198 7.97674 6.45208 7.33838C8.11886 7.74948 9.84033 7.75179 11.5538 7.74948C13.3174 7.74705 15.4211 7.9049 17.1417 7.35569C17.3664 8.70353 17.4519 10.0579 17.3291 11.4227Z" fill="#FFC522"/>
<path d="M17.167 6.65587C15.5399 7.23907 13.5139 7.0744 11.8129 7.09024C9.9633 7.1073 8.0819 7.12728 6.29014 6.62079C5.89366 6.4868 5.32509 6.15683 5.75287 5.69605C6.07212 5.35221 6.74303 5.23272 7.18176 5.13817C8.66497 4.86315 10.2149 4.87116 11.718 4.86873C13.221 4.86605 14.7979 4.84961 16.2791 5.14107C16.6715 5.2311 17.0937 5.33013 17.4421 5.53609C17.8708 5.79019 17.8291 6.37645 17.167 6.65587Z" fill="#FF7A0D"/>
<path d="M21.1737 10.763C20.7127 11.3579 20.1584 11.822 19.4953 12.1738C19.0568 12.4064 18.5993 12.5969 18.1362 12.7739C17.7308 12.9283 17.7233 12.8645 17.803 12.569C17.857 12.3688 17.9018 12.1643 17.9388 11.9564C18.885 11.7203 19.9453 11.2852 20.4161 10.3754C20.6609 9.90244 20.7735 9.26773 20.3205 8.8811C19.9653 8.5777 19.4656 8.49644 19.013 8.48232C18.686 8.47209 18.308 8.48207 17.9774 8.58001C17.9666 8.48135 17.9549 8.38306 17.9425 8.28562C17.917 8.08088 18.0124 7.9051 18.227 7.87417C19.4321 7.69986 20.96 7.57233 21.6028 8.74153C21.9888 9.44288 21.6193 10.1879 21.1737 10.763Z" fill="#FF7A0D"/>
<path d="M16.579 22.0765C16.7151 21.9221 16.7615 21.7805 16.7443 21.6498C16.1545 22.2253 14.9681 22.2107 14.1961 22.2702C12.9821 22.3638 11.7589 22.3626 10.5427 22.3227C9.62658 22.2927 8.50464 22.3406 7.64614 21.9735C7.12652 21.7515 7.6085 21.3538 7.9018 21.2076C8.28512 21.0162 8.71325 20.8958 9.10902 20.7295C9.5988 20.5239 10.0765 20.2806 10.5008 19.9591C11.7344 19.0239 12.1825 16.5333 10.7879 15.5623C10.3082 15.2283 9.77017 15.0343 9.22692 14.8304C8.40729 14.5228 7.75587 14.1135 7.25804 13.3781C6.47618 12.2231 6.41101 10.5712 6.63587 9.23622C6.75766 8.51186 7.10921 8.04484 7.87586 8.00636C8.37415 7.98139 8.89049 8.06106 9.38794 8.08784C10.5929 8.15217 11.8002 8.18479 13.0068 8.16349C13.9471 8.14681 14.9015 8.10075 15.824 7.9049C16.1479 7.83583 16.6268 7.72133 16.8655 7.43582C15.1993 7.88759 13.2242 7.74715 11.5538 7.74948C9.84033 7.75179 8.11886 7.74948 6.45208 7.33838C6.34198 7.97677 6.25379 8.62074 6.23028 9.26887C6.17877 10.69 6.18862 12.4063 6.9688 13.6585C7.68087 14.8015 9.07263 15.2552 10.2463 15.7713C11.1994 16.1907 11.4053 16.709 11.356 17.7406C11.3206 18.4818 10.885 19.2358 10.3137 19.6972C9.76325 20.1418 9.13752 20.4897 8.45394 20.6841C8.08475 20.789 6.72807 21.1463 6.95695 21.7972C7.065 22.1045 7.20946 22.1977 7.49363 22.257C9.04531 22.582 10.7196 22.5535 12.297 22.542C13.1993 22.5356 14.1053 22.5183 15.0046 22.4351C15.4158 22.3972 16.2705 22.4265 16.579 22.0765Z" fill="#FFA222"/>
<path d="M16.0966 8.92533C15.795 8.71607 15.3259 8.7843 14.9905 8.82009C14.4944 8.87307 13.9972 8.91766 13.4991 8.95371C11.3507 9.10597 11.6769 9.88113 12.537 11.3446C12.8705 11.9119 13.029 12.5337 13.3009 13.1741C13.5433 13.7454 13.8758 14.2818 14.5571 14.2738C15.3301 14.2646 15.8559 13.479 16.151 12.864C16.4596 12.2213 16.5812 11.481 16.646 10.7763C16.706 10.1245 16.6843 9.33288 16.0966 8.92533Z" fill="#FBE134"/>
<path d="M21.7329 9.08789C21.7292 9.35755 21.6387 9.62298 21.5323 9.87084C21.34 10.3185 21.0043 10.7254 20.6702 11.0737C20.3273 11.4309 18.4534 12.7378 17.8582 12.3431C17.8406 12.4185 17.8231 12.4944 17.803 12.5688C17.7232 12.8643 17.7308 12.9281 18.1362 12.7737C18.5993 12.5967 19.0568 12.4062 19.4953 12.1736C20.1584 11.8218 20.7127 11.3577 21.1738 10.7628C21.5466 10.2817 21.8642 9.68169 21.7329 9.08789Z" fill="#EF6200"/>
<path d="M3.24365 8.86615C3.26766 8.84642 3.29239 8.82705 3.3193 8.80878C3.71494 8.54117 4.25427 8.51317 4.71592 8.53971C5.00498 8.55639 5.3225 8.58745 5.60972 8.67747C5.61374 8.63619 5.61898 8.59524 5.62301 8.55408C5.16672 8.4369 4.62165 8.44822 4.21688 8.48405C3.85573 8.51635 3.48641 8.6273 3.24365 8.86615Z" fill="#EF6200"/>
<path d="M17.9546 8.38618C17.9624 8.45073 17.9704 8.51481 17.9776 8.57985C18.3082 8.48191 18.6862 8.47193 19.0132 8.48216C19.4658 8.49629 19.9655 8.57755 20.3207 8.88095C20.544 9.07169 20.6296 9.32286 20.6298 9.5851C20.6516 9.16829 20.4677 8.75903 20.0411 8.54465C19.5051 8.2752 18.6072 8.19276 17.9546 8.38618Z" fill="#EF6200"/>
<path d="M17.7206 5.98399C17.6039 6.14661 17.4185 6.27913 17.1515 6.38484C16.5952 6.60495 15.9584 6.65073 15.3679 6.70957C14.1427 6.83149 12.9065 6.86498 11.6759 6.87546C10.4381 6.88606 9.1958 6.85257 7.96289 6.7361C7.39868 6.68263 6.10194 6.50005 5.60658 5.96338C5.55372 6.28434 5.97502 6.51455 6.28978 6.62076C8.08153 7.12722 9.96294 7.10726 11.8125 7.09021C13.5136 7.07437 15.5396 7.23904 17.1666 6.65584C17.551 6.49351 17.7251 6.22796 17.7206 5.98399Z" fill="#EF6200"/>
<path d="M5.48729 12.8421C5.89521 12.9986 5.9398 12.9539 5.83871 12.5883C5.82081 12.5238 5.80899 12.4574 5.7929 12.3922C4.80786 12.5677 3.79762 11.9278 3.05751 11.2898C2.53412 10.8383 1.95469 10.1564 1.76807 9.43359C1.79523 10.1406 2.35311 10.7942 2.81535 11.271C3.53719 12.0157 4.50882 12.4658 5.48729 12.8421Z" fill="#EF6200"/>
<path d="M15.6314 5.44046C14.1886 5.26435 11.9204 5.20744 10.5712 5.25362C9.66471 5.28468 8.75725 5.32852 7.85443 5.41293C6.69742 5.52194 6.18216 5.82793 7.74797 6.03863C8.86055 6.18809 10.0405 6.15372 11.107 6.15494C12.6058 6.15678 14.2496 6.16626 15.7446 5.96333C16.8671 5.81138 16.8839 5.59323 15.6314 5.44046Z" fill="#FFB85A"/>
<path d="M21.5655 8.68205C20.903 7.5797 19.4107 7.70262 18.2274 7.87387C18.0588 7.89823 17.9649 8.01235 17.9443 8.15913C18.6833 7.95913 19.426 7.83829 20.2088 7.94559C20.7618 8.02127 21.2109 8.26683 21.5655 8.68205Z" fill="#FFB85A"/>
<path d="M3.14888 7.86285C2.86007 7.92828 2.58052 8.05603 2.34912 8.23838C2.77775 8.05933 3.29176 7.99878 3.7304 7.97383C4.26891 7.94349 5.0895 7.92413 5.66076 8.20209C5.68305 7.95225 5.62203 7.91876 5.33943 7.8787C4.61407 7.77589 3.85974 7.70174 3.14888 7.86285Z" fill="#FFB85A"/>
</svg>
