<svg width="16" height="25" viewBox="0 0 16 25" fill="none" xmlns="http://www.w3.org/2000/svg">
<g clip-path="url(#clip0_12248_159017)">
<path d="M2.96731 16.3881C2.86181 16.2977 2.76436 16.2095 2.67162 16.1212C0.547676 14.0967 -0.417044 11.1789 0.153892 8.50639C0.923822 4.78868 4.23849 2.18507 8.00153 2.25452C11.8186 2.17877 15.3051 4.81261 15.8731 8.71696C16.3285 11.5581 15.6413 14.1719 13.6122 16.1056C13.5101 17.8317 12.9629 20.2408 11.3412 21.2684C10.9474 22.7184 10.3123 23.6864 8.36114 23.7567C6.71047 23.8463 5.46483 22.7677 5.20708 21.2023C4.33781 20.7027 3.79145 19.6788 3.51959 18.7975C3.26991 18.0749 3.00798 17.2472 2.96731 16.3881Z" fill="white"/>
<path d="M14.5065 12.852C14.9698 11.5943 15.0187 10.2024 14.8071 8.8884C14.4521 6.68672 13.0899 4.81579 11.0231 3.93825C9.00531 3.08165 6.52573 3.11915 4.58148 4.15731C2.84626 5.08367 1.61848 6.8188 1.21013 8.73162C0.692878 11.153 1.64823 13.6532 3.41686 15.339C3.61927 15.532 3.83469 15.7094 4.05527 15.8803C4.05008 15.932 4.04602 15.9836 4.04412 16.0346C4.01458 16.8434 4.27927 17.6884 4.54044 18.4442C4.69863 18.9014 4.86864 19.3553 5.17036 19.7397C5.46494 20.1148 5.81408 20.3427 6.23025 20.5094C6.20544 21.3859 6.68457 22.4351 7.61765 22.6048C8.30712 22.73 9.2444 22.7478 9.74555 22.1689C10.1215 21.7346 10.3327 21.1423 10.3308 20.5673C10.4469 20.5207 10.5613 20.4707 10.6721 20.4136C10.6941 20.4023 10.7131 20.3897 10.7298 20.3759C11.4887 19.9238 11.8498 19.1182 12.1022 18.3067C12.3446 17.5277 12.5896 16.6476 12.5203 15.824C12.5154 15.7661 12.508 15.7076 12.4987 15.6493C13.4021 14.9061 14.1014 13.9519 14.5065 12.852Z" fill="#68182B"/>
<path d="M9.69774 20.9453C9.67479 21.0601 9.64129 21.1733 9.59521 21.2839C9.50998 21.4877 9.38662 21.7252 9.2078 21.8639C8.96063 22.0559 8.64006 22.0705 8.28417 22.0682C7.96865 22.0662 7.58734 22.044 7.35007 21.8613C7.17202 21.7244 7.05188 21.4857 6.96687 21.2839C6.92166 21.1763 6.88794 21.0664 6.86468 20.9544C6.82379 20.756 6.90095 20.7238 7.08628 20.7643C7.87749 20.9369 8.73562 20.9674 9.5371 20.8041C9.69621 20.7717 9.71727 20.8477 9.69774 20.9453Z" fill="#E5E5E5"/>
<path d="M11.1398 19.1182C10.9586 19.4337 10.7174 19.7075 10.3719 19.8994C9.3993 20.4002 8.13746 20.4046 7.096 20.1559C6.63838 20.0465 6.163 19.9157 5.82016 19.5779C5.68026 19.4402 5.5698 19.2922 5.47763 19.1358C5.34414 18.9096 5.38777 18.8547 5.60265 18.8168C7.36411 18.5067 9.23835 18.4155 10.9925 18.7788C11.2015 18.8222 11.2615 18.9071 11.1398 19.1182Z" fill="#DDA96B"/>
<path d="M11.7194 17.4671C11.6883 17.591 11.6553 17.7143 11.6209 17.8368C11.6004 17.9094 11.5796 17.9827 11.5582 18.0561C11.5035 18.244 11.3938 18.2571 11.204 18.2162C9.31055 17.8087 7.28628 17.911 5.38534 18.2541C5.16321 18.2941 5.10092 18.2559 5.0416 18.081C4.9748 17.8829 4.91262 17.6821 4.85793 17.4797C4.78802 17.2207 4.7843 17.1747 5.09717 17.12C7.19476 16.755 9.4413 16.6416 11.5295 17.0975C11.7556 17.1469 11.7681 17.2727 11.7194 17.4671Z" fill="#E5E5E5"/>
<path d="M11.929 16.3C11.9042 16.5516 11.8229 16.552 11.6151 16.5075C9.41733 16.0389 7.0684 16.1674 4.86783 16.5585C4.61273 16.6036 4.66519 16.5365 4.64922 16.3747C4.63807 16.2624 4.62893 16.1358 4.63401 16.0156C4.65241 15.5659 4.81579 15.5702 5.22095 15.4728C5.73888 15.3483 6.27818 15.3022 6.80701 15.2626C7.5486 15.2071 8.29296 15.1862 9.03656 15.1911C9.69493 15.1954 10.3563 15.2157 11.0109 15.2905C11.1803 15.31 11.3643 15.3357 11.5437 15.3784C11.8425 15.449 11.8655 15.476 11.9172 15.7245C11.9553 15.9066 11.948 16.1089 11.929 16.3Z" fill="#DDA96B"/>
<path d="M6.10865 13.1198C5.80537 12.5742 5.52721 11.9416 5.48609 11.3102C5.47407 11.1244 5.4614 10.8405 5.64188 10.7306C5.88685 10.5813 6.1512 10.6925 6.33188 10.8762C6.78279 11.3344 7.02708 12.0252 7.22783 12.6212C7.42273 13.2006 7.58557 13.8036 7.6763 14.4129C7.71169 14.6472 7.41248 14.66 7.26522 14.5474C6.7774 14.1748 6.40312 13.6493 6.10865 13.1198Z" fill="#FF2E60"/>
<path d="M8.83619 14.4127C8.91578 13.8839 9.04972 13.3607 9.20827 12.8538C9.40484 12.2242 9.64242 11.5463 10.0536 11.0202C10.2032 10.8288 10.3892 10.6452 10.6514 10.6668C10.9312 10.69 11.0186 10.876 11.0283 11.1265C11.0516 11.7402 10.7847 12.3805 10.5114 12.9159C10.2151 13.4967 9.82527 14.0829 9.30812 14.4987C9.17751 14.6037 8.79428 14.6879 8.83619 14.4127Z" fill="#FF2E60"/>
<path d="M12.4045 14.9428C12.281 15.0557 12.2028 15.0148 12.1018 14.9518C11.9541 14.8607 11.7746 14.8181 11.6073 14.7839C10.9915 14.6577 10.352 14.6278 9.72428 14.609C10.1413 14.2193 10.4763 13.7327 10.7443 13.2387C11.0776 12.6242 11.3869 11.897 11.3865 11.185C11.3863 10.912 11.3277 10.6079 11.0857 10.4452C10.7867 10.2439 10.3745 10.2701 10.0906 10.481C9.5403 10.8899 9.25322 11.6567 9.02679 12.2759C8.75482 13.0194 8.54504 13.8061 8.45112 14.5971C8.32082 14.5988 8.19063 14.6025 8.06041 14.606C7.97893 13.9229 7.80929 13.2457 7.59508 12.5954C7.37173 11.917 7.096 11.1439 6.58427 10.6234C6.35057 10.3857 6.05533 10.2601 5.71788 10.3268C5.36886 10.3963 5.18078 10.6495 5.13777 10.9865C5.05333 11.6503 5.33886 12.3656 5.61998 12.9513C5.9184 13.5734 6.32178 14.1962 6.84764 14.6641C6.24747 14.7048 5.64213 14.7634 5.05785 14.9001C4.82547 14.9545 4.55425 15.0186 4.36838 15.1761C4.26619 15.2629 4.30886 15.3341 4.10193 15.155C2.46129 13.7373 1.42237 11.5593 1.70008 9.37417C1.91649 7.67025 2.85587 6.02829 4.27206 5.04381C5.94896 3.87787 8.18922 3.65914 10.1232 4.24145C12.0191 4.81219 13.4748 6.24204 14.0317 8.14868C14.6885 10.3958 14.3228 12.988 12.6536 14.7029C12.5732 14.7856 12.4898 14.8652 12.4045 14.9428Z" fill="#FFC522"/>
<path d="M12.3741 5.50293C13.4264 6.94997 13.9307 8.77242 13.8888 10.5788C13.8602 11.8176 13.3431 13.2253 12.2713 13.9265C11.8556 14.1985 11.3095 14.3064 10.8969 13.9771C10.7508 13.8605 10.65 13.7014 10.5798 13.5218C10.3421 13.9159 10.061 14.2948 9.72412 14.6096C10.3518 14.6284 10.9914 14.6583 11.6072 14.7845C11.7744 14.8187 11.9539 14.8612 12.1016 14.9524C12.2026 15.0153 12.2808 15.0563 12.4044 14.9434C12.4896 14.8658 12.5731 14.7862 12.6534 14.7036C14.3226 12.9886 14.6883 10.3964 14.0316 8.14933C13.7255 7.10155 13.1467 6.19931 12.3741 5.50293Z" fill="#FFA222"/>
<path d="M8.06016 14.6065C8.19035 14.603 8.32056 14.5993 8.45086 14.5976C8.52176 14.0004 8.65878 13.4059 8.83869 12.8303C8.67498 12.8898 8.50322 12.9306 8.32132 12.9421C8.08056 12.9574 7.85831 12.8921 7.65161 12.7803C7.83779 13.3742 7.98627 13.9874 8.06016 14.6065Z" fill="#FFA222"/>
<path d="M4.10169 15.1559C4.30861 15.335 4.26594 15.2638 4.36813 15.177C4.55401 15.0195 4.82519 14.9553 5.0576 14.901C5.64189 14.7643 6.24723 14.7056 6.8474 14.665C6.51491 14.3692 6.23159 14.0112 5.99258 13.6308C5.70527 14.3638 4.90052 14.4293 4.20532 14.2054C3.11721 13.8551 2.57029 12.7107 2.25644 11.7012C1.89573 10.5419 1.84809 9.29467 2.08137 8.10573C2.11247 7.94796 2.1495 7.78504 2.19009 7.62109C1.94424 8.18068 1.77612 8.7738 1.69984 9.37505C1.42213 11.5602 2.46105 13.7381 4.10169 15.1559Z" fill="#FFA222"/>
<path d="M12.7533 7.73585C12.4492 6.92491 11.9434 6.23931 11.2983 5.72324C9.8538 4.56689 7.10061 4.27719 5.21632 5.45911C4.32634 6.01706 3.57735 6.96073 3.18277 7.92689C2.92392 8.56067 2.81532 9.57568 3.75901 9.55539C4.20196 9.54591 4.64073 9.29312 5.05204 9.15167C5.38741 9.03636 5.72023 8.94277 6.07665 8.92403C6.57342 8.89756 6.93003 9.22014 7.27666 9.52452C8.23644 10.368 9.30084 9.20304 10.3112 9.06856C10.9817 8.97926 11.4546 9.41936 12.0506 9.60676C12.3155 9.6901 12.6305 9.65394 12.8364 9.46311C13.2602 9.07045 12.9127 8.16127 12.7533 7.73585Z" fill="#FBE134"/>
<path d="M10.8638 10.7373C10.9856 11.4738 10.5907 12.3776 10.2804 12.9833C9.95485 13.6194 9.47705 14.1114 8.97534 14.5935C9.08758 14.6055 9.23575 14.5562 9.30817 14.498C9.82531 14.0822 10.2151 13.496 10.5115 12.9153C10.7848 12.3798 11.0517 11.7395 11.0283 11.1258C11.0216 10.9559 10.9777 10.8173 10.8638 10.7373Z" fill="#EA0F4D"/>
<path d="M6.10866 13.1203C6.40313 13.6498 6.77739 14.1753 7.26521 14.548C7.33531 14.6015 7.43951 14.6256 7.52615 14.6118C6.95465 14.2032 6.55062 13.5145 6.24269 12.9187C5.97071 12.3918 5.55268 11.3539 5.78176 10.6758C5.7348 10.6868 5.68795 10.703 5.64187 10.7311C5.46139 10.8411 5.47409 11.1249 5.48608 11.3108C5.52726 11.9421 5.80539 12.5747 6.10866 13.1203Z" fill="#EA0F4D"/>
<path d="M11.4534 16.2601C11.195 16.2448 10.9347 16.187 10.6785 16.1516C9.93726 16.0491 9.18785 16.0318 8.44038 16.0357C7.69139 16.0398 6.92939 16.0577 6.18579 16.1537C5.95956 16.1828 5.73469 16.2216 5.50922 16.2553C5.23516 16.2961 4.84004 16.4318 4.63577 16.1162C4.63543 16.1157 4.63521 16.1151 4.63501 16.1146C4.63611 16.2037 4.64119 16.293 4.64935 16.3749C4.66532 16.5367 4.61286 16.6037 4.86796 16.5586C7.06853 16.1676 9.41746 16.0391 11.6153 16.5077C11.8231 16.5521 11.9043 16.5518 11.9291 16.3001C11.9408 16.1825 11.9465 16.061 11.9416 15.9424C11.8363 16.125 11.6889 16.274 11.4534 16.2601Z" fill="#C48D51"/>
<path d="M7.09618 20.1558C8.13764 20.4045 9.39948 20.4001 10.372 19.8992C10.7175 19.7074 10.9588 19.4336 11.14 19.118C11.1687 19.0683 11.1863 19.0261 11.1952 18.9893C10.4134 19.6075 9.48339 19.9166 8.46265 20.0333C7.89391 20.0984 7.31733 20.0221 6.76722 19.8765C6.2761 19.7463 5.88429 19.4904 5.51001 19.187C5.59566 19.3243 5.69588 19.4552 5.82034 19.5777C6.16318 19.9156 6.63856 20.0464 7.09618 20.1558Z" fill="#C48D51"/>
<path d="M9.45799 18.8927C8.67539 18.8196 7.88813 18.8334 7.10485 18.9011C6.12337 18.9864 5.96724 19.2577 7.08202 19.482C7.72969 19.6127 8.395 19.6128 9.07036 19.4978C10.2316 19.3007 10.714 19.0104 9.45799 18.8927Z" fill="#F4C38E"/>
<path d="M11.5435 15.3784C11.3642 15.3357 11.1802 15.31 11.0107 15.2905C10.3561 15.2157 9.69473 15.1955 9.03636 15.1911C8.29276 15.1862 7.5484 15.2071 6.80681 15.2626C6.27798 15.3022 5.73865 15.3483 5.22075 15.4728C4.89255 15.5516 4.725 15.568 4.6626 15.8088C5.06002 15.6238 5.55546 15.591 5.96742 15.5266C6.76535 15.4016 7.57442 15.3523 8.38087 15.3321C9.04102 15.3156 9.70213 15.331 10.3611 15.3729C10.8139 15.4017 11.4456 15.379 11.8871 15.6028C11.845 15.4655 11.7831 15.435 11.5435 15.3784Z" fill="#F4C38E"/>
<path d="M11.621 17.8365C11.6223 17.8322 11.6232 17.8276 11.6245 17.8235C11.5606 17.8535 11.4938 17.8809 11.4213 17.9034C11.0384 18.0221 10.6281 17.8837 10.2456 17.8349C9.502 17.7402 8.75753 17.7099 8.00854 17.7329C7.44629 17.7502 6.8856 17.8068 6.32844 17.8822C5.8792 17.9428 5.36612 18.0879 4.98413 17.9023C5.0031 17.9618 5.02172 18.0216 5.04168 18.0806C5.101 18.2556 5.16329 18.2938 5.38542 18.2537C7.28633 17.9107 9.31062 17.8084 11.2041 18.2159C11.3939 18.2568 11.5036 18.2437 11.5583 18.0557C11.5796 17.9824 11.6005 17.9091 11.621 17.8365Z" fill="#C6C6C6"/>
<path d="M9.20801 21.8643C9.29851 21.7942 9.37457 21.6987 9.43898 21.595C9.15543 21.7905 8.73365 21.8036 8.4059 21.8093C7.96911 21.817 7.4083 21.7247 7.03394 21.4316C7.11242 21.5934 7.2143 21.7572 7.35033 21.8618C7.58757 22.0445 7.96891 22.0666 8.28443 22.0686C8.64026 22.0709 8.96084 22.0564 9.20801 21.8643Z" fill="#C6C6C6"/>
<path d="M11.5295 17.0975C9.44129 16.6416 7.19474 16.755 5.09715 17.12C4.84403 17.1642 4.79949 17.2048 4.82817 17.3551C5.05979 17.297 5.29604 17.2561 5.51321 17.2169C6.33825 17.0677 7.18119 17.0107 8.01838 16.9905C9.23459 16.9609 10.5179 17.011 11.7384 17.2707C11.7245 17.186 11.6669 17.1274 11.5295 17.0975Z" fill="#F4F4F4"/>
<path d="M8.15951 21.0314C8.63732 21.0477 9.18996 20.901 9.70313 20.8958C9.70457 20.8244 9.66774 20.7774 9.5371 20.8041C8.73564 20.9674 7.87749 20.9369 7.08628 20.7643C6.90097 20.7238 6.82378 20.756 6.86468 20.9544C6.86809 20.9706 6.87329 20.9866 6.87712 21.0028C7.17151 20.8238 7.93331 21.0238 8.15951 21.0314Z" fill="#F4F4F4"/>
</g>
<defs>
<clipPath id="clip0_12248_159017">
<rect width="16" height="24" fill="white" transform="translate(0 0.207031)"/>
</clipPath>
</defs>
</svg>
