<svg width="101" height="156" viewBox="0 0 101 156" fill="none" xmlns="http://www.w3.org/2000/svg">
<path d="M42.1514 33.2317C42.1514 33.2317 37.3211 30.3954 35.5562 35.1304C34.4906 37.9894 36.1929 46.0807 43.255 44.1986L42.1514 33.2317Z" fill="#EFB3AB"/>
<path d="M41.1322 34.4042C41.1322 34.4042 36.9798 33.0702 37.0407 37.5777C37.1177 43.2667 41.5394 42.7266 41.5394 42.7266C41.5394 42.7266 42.6479 35.319 41.1322 34.4042Z" fill="#D69592"/>
<path d="M74.733 34.0881C74.733 34.0881 79.6728 31.5086 81.2445 36.3313C82.1935 39.2434 80.1663 47.2365 73.1878 44.9853L74.733 34.0881Z" fill="#EFB3AB"/>
<path d="M75.704 35.313C75.704 35.313 79.9059 34.1984 79.663 38.6979C79.3565 44.3766 74.9611 43.6051 74.9611 43.6051C74.9611 43.6051 74.153 36.1472 75.704 35.313Z" fill="#D69592"/>
<path d="M45.2453 43.6151C45.2453 43.6151 47.1241 57.8227 43.634 71.8052C43.634 71.8052 49.004 79.2284 57.8742 79.6008C64.6435 79.8851 68.8975 76.003 68.3596 73.3765C67.1481 67.4607 67.6465 52.0201 67.6465 52.0201L45.2453 43.6151Z" fill="#EFB3AB"/>
<path d="M58.7625 66.5754C62.9096 66.7496 65.9625 64.4988 67.5341 62.9539C67.5112 60.6599 67.5252 58.4372 67.55 56.6011L45.7021 51.4937C45.7423 53.5436 45.7317 55.8891 45.6184 58.4053C46.7188 60.2184 50.0065 66.2078 58.7625 66.5754Z" fill="#D69592"/>
<path d="M41.6612 35.999C41.2932 42.6512 41.2313 50.2936 44.0866 54.7157C48.348 61.3158 55.0754 63.8977 59.799 63.3895C63.7795 62.9611 68.8729 59.8964 71.392 56.2329C74.4857 51.7334 75.2615 45.7324 75.0326 37.942C74.8306 31.0646 77.6997 10.0209 58.4269 9.51438C45.6338 9.17801 42.5128 20.6079 41.6612 35.999Z" fill="#EFB3AB"/>
<path d="M46.5599 29.8856C47.394 28.8282 48.5899 27.9509 50.7032 27.8238C52.8166 27.6968 53.6905 28.4024 54.1051 28.8281C54.2906 29.0184 53.6138 29.6633 52.724 29.5154C52.724 29.5154 51.8248 29.1666 50.0636 29.2724C48.6548 29.357 47.7925 29.8116 47.1067 30.2559C46.6216 30.5695 46.296 30.2199 46.5599 29.8856Z" fill="#423835"/>
<path d="M70.6027 30.5174C69.812 29.4175 68.6531 28.4781 66.547 28.2401C64.4409 28.0021 63.5396 28.6611 63.1081 29.0643C62.9153 29.2446 63.5651 29.9244 64.4601 29.8235C64.4601 29.8235 65.3723 29.5222 67.1275 29.7206C68.5314 29.8792 69.3742 30.3785 70.0416 30.8583C70.5132 31.1975 70.8528 30.8652 70.6027 30.5174Z" fill="#423835"/>
<path d="M53.0361 34.9115C53.0249 35.4699 52.6187 35.9121 52.129 35.8993C51.6394 35.8865 51.2517 35.4232 51.2629 34.8647C51.2741 34.3063 51.6804 33.8641 52.17 33.8769C52.6597 33.8897 53.0476 34.353 53.0361 34.9115Z" fill="#302A2A"/>
<path d="M66.4471 34.9974C66.4358 35.5559 66.0296 35.9981 65.5402 35.9853C65.0505 35.9725 64.6628 35.5094 64.674 34.951C64.6853 34.3925 65.0915 33.9503 65.5809 33.9631C66.0706 33.9759 66.4583 34.439 66.4471 34.9974Z" fill="#302A2A"/>
<path d="M58.629 35.7787C58.629 35.7787 60.0336 41.0016 58.0489 41.3595C55.4694 41.8245 55.6331 45.293 58.9131 44.8463" stroke="#BF6762" stroke-width="1.04867" stroke-miterlimit="10" stroke-linecap="round" stroke-linejoin="round"/>
<path d="M27.2157 153.128C27.2157 153.128 23.0625 168.883 22.6959 172.866C22.559 174.354 17.8829 254.311 15.3461 272.748C13.1726 288.548 8.50488 356.877 8.50488 356.877C8.50488 356.877 14.287 365.699 33.6744 366.514C37.3835 366.669 45.4497 364.289 50.2343 364.718C56.0415 365.239 67.9404 368.445 72.2075 368.132C78.1734 367.694 87.3846 364.064 87.3846 364.064C87.3846 364.064 86.8809 295.767 87.0623 276.313C87.2332 258.004 84.3531 164.419 84.3531 164.419L27.2157 153.128Z" fill="#E6E9EF"/>
<path d="M71.5673 75.3773C70.9774 64.6893 67.4503 65.3408 67.4503 65.3408C66.547 70.9144 58.5537 79.1614 58.5537 79.1614L53.4186 78.9457C53.4186 78.9457 47.257 75.4229 45.0144 64.3988C45.0144 64.3988 42.9755 63.2468 42.2063 65.3472C41.4372 67.4476 38.6891 72.9304 38.6891 72.9304C38.6891 72.9304 28.2897 76.4924 27.313 77.7845C25.0336 80.7995 25.2755 103.597 24.5132 128.317C24.1134 141.279 24.4848 142.558 24.3078 153.006C24.235 157.3 20.9169 184.814 22.4476 188.077C22.4476 188.077 32.7455 194.599 53.9986 195.491C72.439 196.265 84.8106 188.205 84.8106 188.205C84.8106 188.205 84.4483 168.179 84.4738 160.692C84.5006 152.812 84.6874 146.839 84.4167 133.498C83.8742 106.751 86.1188 83.3699 84.4586 81.5165C81.9767 78.7467 71.5673 75.3773 71.5673 75.3773Z" fill="#E6E9EF"/>
<path d="M39.5925 32.3998C39.5925 32.3998 36.2354 3.87981 59.1201 4.48121C82.0049 5.08262 78.1841 33.4453 78.1841 33.4453C78.1841 33.4453 75.83 33.1667 74.1686 34.4552C74.1686 34.4552 75.1155 45.4055 74.8821 45.3993C74.8821 45.3993 72.8073 44.0123 72.6169 41.8755C72.6169 41.8755 73.0101 33.646 72.5717 32.5479C70.8848 28.3208 70.9081 22.3782 70.2667 19.4303C70.2667 19.4303 66.6939 22.8006 58.0538 22.5733C49.4137 22.3462 45.7688 17.7203 45.7688 17.7203C45.7688 17.7203 45.9507 31.8481 44.0771 32.0652C44.0771 32.0652 44.353 37.1125 43.9319 39.2563C43.6716 40.5817 41.4353 44.9164 41.4891 44.5215C42.8608 34.4316 42.0915 32.715 39.5925 32.3998Z" fill="#423835"/>
<path d="M53.6253 50.59C53.6253 50.59 57.5633 53.6248 62.6294 50.8265" stroke="#9B3535" stroke-width="1.04867" stroke-miterlimit="10" stroke-linecap="round" stroke-linejoin="round"/>
<path d="M41.4884 44.5215C41.4884 44.5215 40.8835 62.8922 57.2404 63.4197C75.2062 63.9991 74.8814 45.3991 74.8814 45.3991L72.6162 41.8753C72.6162 41.8753 73.0206 56.542 65.9828 57.9557C65.9828 57.9557 63.7542 54.8331 57.4268 54.6669C51.0993 54.5006 49.1801 56.9812 49.1801 56.9812C49.1801 56.9812 43.2163 51.4949 44.0446 38.4598L41.4884 44.5215Z" fill="#423835"/>
<path d="M29.462 77.0488C29.462 77.0488 24.5036 77.9329 22.0233 82.3609C19.5429 86.7886 2.39116 132.987 14.1596 144.944C23.7902 154.729 69.9276 133.423 69.9276 133.423L67.6593 116.8L31.0821 120.329C31.0821 120.329 31.7498 79.2512 29.462 77.0488Z" fill="#E6E9EF"/>
<path d="M80.1739 79.1781C80.1739 79.1781 85.0619 80.4757 87.2501 85.0997C89.4383 89.7235 103.565 137.235 91.0575 148.173C80.8222 157.124 40.1868 127.909 40.1868 127.909L40.6142 110.599L74.4876 118.42C74.4876 118.42 77.7504 81.1827 80.1739 79.1781Z" fill="#E6E9EF"/>
<path d="M40.3611 111.821C40.3611 111.821 33.1145 109.817 31.1637 111.435L30.7363 123.78L40.341 123.117L40.3611 111.821Z" fill="#EFB3AB"/>
<path d="M64.2934 116.066C64.2934 116.066 72.5791 111.789 75.1068 111.838L74.8521 118.435L64.2934 116.066Z" fill="#EFB3AB"/>
<path d="M40.488 122.19L40.1244 127.799C40.1244 127.799 68.0803 148.352 84.5538 149.738" stroke="#C2C6CC" stroke-width="1.04867" stroke-miterlimit="10" stroke-linecap="round" stroke-linejoin="round"/>
<path d="M40.6328 110.467L74.9645 118.573C74.9645 118.573 84.3716 124.033 86.8446 127.069" stroke="#C2C6CC" stroke-width="1.04867" stroke-miterlimit="10" stroke-linecap="round" stroke-linejoin="round"/>
<path d="M76.8352 89.594C76.8352 89.594 74.9686 107.967 74.7899 115.129" stroke="#C2C6CC" stroke-width="1.04867" stroke-miterlimit="10" stroke-linecap="round" stroke-linejoin="round"/>
<path d="M30.8574 123.652C30.8574 123.652 26.6385 124.008 22.0402 128.88" stroke="#C2C6CC" stroke-width="1.04867" stroke-miterlimit="10" stroke-linecap="round" stroke-linejoin="round"/>
<path d="M23.3103 147.278C23.3103 147.278 47.9663 143.958 57.0122 138.879" stroke="#C2C6CC" stroke-width="1.04867" stroke-miterlimit="10" stroke-linecap="round" stroke-linejoin="round"/>
<path d="M31.7534 92.2763C31.7534 92.2763 33.3951 102.965 31.0451 110.598" stroke="#C2C6CC" stroke-width="1.04867" stroke-miterlimit="10" stroke-linecap="round" stroke-linejoin="round"/>
<path d="M45.6418 55.9239C45.6418 55.9239 46.6812 46.2803 57.5866 46.7383C69.2192 47.2267 69.8242 57.4797 69.8242 57.4797L63.9617 59.7376C63.9617 59.7376 65.01 49.8178 57.7397 49.5125C50.7117 49.2174 50.3994 58.8914 50.3994 58.8914L45.6418 55.9239Z" fill="#423835"/>
<path d="M59.0475 2.50949C53.2313 2.26528 43.4332 4.07464 38.0421 20.7312C34.0587 33.0389 26.3381 67.5677 29.4273 77.1079C29.4273 77.1079 33.394 74.5067 36.4911 76.2975C36.4911 76.2975 39.9121 83.0835 44.8303 81.0759L49.5649 75.1688L49.1167 61.0517C49.1167 61.0517 41.4597 57.6857 41.9862 41.3783C41.9862 41.3783 46.5522 27.7312 46.695 23.309C46.695 23.309 49.5049 26.4715 53.4272 25.2524C53.4272 25.2524 57.1976 28.7319 60.213 25.5373C60.213 25.5373 62.3226 27.84 65.7868 25.7714C65.7868 25.7714 67.8146 28.4592 70.8397 26.0395C70.8397 26.0395 72.0438 40.3077 74.7298 41.923C74.7298 41.923 74.95 54.9947 67.5227 60.8831L67.0952 76.5408C67.0952 76.5408 69.523 82.9434 74.4055 82.0413L84.3683 81.6293C84.3683 81.6293 84.856 65.357 83.2669 48.0935C82.2685 37.2485 80.8748 30.0543 78.3608 19.6567C75.7913 9.03122 68.7583 2.91724 59.0475 2.50949Z" fill="#BF4A5B"/>
<path d="M49.1173 61.0514C49.1173 61.0514 41.4603 57.6854 41.9868 41.378C41.9868 41.378 42.0109 41.3059 42.0545 41.1742C41.9932 41.1929 41.9321 41.2123 41.8702 41.2346C41.8702 41.2346 35.4266 68.6966 38.9485 79.564C40.4104 80.9518 42.4432 82.0506 44.8311 81.0759L49.5657 75.1688L49.1173 61.0514Z" fill="#A3324C"/>
<path d="M74.7297 41.9227C74.7297 41.9227 74.9499 54.9943 67.5226 60.8828L67.0951 76.5405C67.0951 76.5405 69.5229 82.9431 74.4054 82.041L77.9229 81.8957C80.2598 75.6536 74.7297 41.9227 74.7297 41.9227Z" fill="#A3324C"/>
<path d="M79.5576 38.9426C79.5576 38.9426 84.1273 74.4218 81.8832 81.7319" stroke="#A3324C" stroke-width="1.04867" stroke-miterlimit="10" stroke-linecap="round" stroke-linejoin="round"/>
<path d="M38.3731 35.6408C38.3731 35.6408 33.3399 66.4675 33.121 76.22" stroke="#A3324C" stroke-width="1.04867" stroke-miterlimit="10" stroke-linecap="round" stroke-linejoin="round"/>
<path d="M39.7982 16.2C39.7982 16.2 44.0644 22.0912 58.3627 22.6916C75.3269 23.4039 78.1354 19.0935 78.1354 19.0935C78.1354 19.0935 78.9339 16.9129 76.981 15.4508C76.981 15.4508 57.2299 20.0335 41.693 12.8581C41.693 12.8581 38.776 13.0126 39.7982 16.2Z" fill="#483038"/>
</svg>
