<svg width="167" height="396" viewBox="0 0 167 396" fill="none" xmlns="http://www.w3.org/2000/svg">
<path d="M68.1412 49.1375C68.1412 49.1375 60.003 44.9476 57.0295 51.9424C55.2341 56.1659 58.1021 68.1188 70.0005 65.3384L68.1412 49.1375Z" fill="#EFB3AB"/>
<path d="M66.4229 50.8697C66.4229 50.8697 59.4269 48.8989 59.5295 55.5577C59.6591 63.9617 67.109 63.164 67.109 63.164C67.109 63.164 68.9767 52.221 66.4229 50.8697Z" fill="#D69592"/>
<path d="M123.034 50.4027C123.034 50.4027 131.357 46.5921 134.005 53.7165C135.604 58.0184 132.188 69.8262 120.431 66.5006L123.034 50.4027Z" fill="#EFB3AB"/>
<path d="M124.671 52.2121C124.671 52.2121 131.751 50.5657 131.342 57.2126C130.825 65.6014 123.42 64.4617 123.42 64.4617C123.42 64.4617 122.058 53.4445 124.671 52.2121Z" fill="#D69592"/>
<path d="M73.3534 64.4764C73.3534 64.4764 76.5189 85.4646 70.6386 106.12C70.6386 106.12 79.686 117.086 94.6308 117.636C106.036 118.056 113.203 112.321 112.297 108.442C110.256 99.7024 111.095 76.8928 111.095 76.8928L73.3534 64.4764Z" fill="#EFB3AB"/>
<path d="M96.1274 98.3946C103.115 98.6518 108.258 95.327 110.906 93.0448C110.868 89.6559 110.891 86.3724 110.933 83.66L74.123 76.1151C74.1908 79.1433 74.1729 82.6082 73.982 86.3253C75.8359 89.0036 81.3751 97.8515 96.1274 98.3946Z" fill="#D69592"/>
<path d="M67.3143 53.2256C66.6943 63.0525 66.59 74.3423 71.4006 80.8749C78.5804 90.6248 89.9149 94.4389 97.8733 93.6881C104.58 93.0554 113.161 88.5281 117.405 83.1161C122.618 76.4693 123.925 67.6042 123.539 56.0959C123.199 45.9362 128.033 14.8494 95.5616 14.1012C74.0074 13.6043 68.7491 30.489 67.3143 53.2256Z" fill="#EFB3AB"/>
<path d="M75.5688 44.1945C76.974 42.6325 78.989 41.3364 82.5495 41.1488C86.1103 40.9612 87.5826 42.0035 88.2812 42.6323C88.5937 42.9134 87.4535 43.8661 85.9542 43.6477C85.9542 43.6477 84.4392 43.1324 81.4719 43.2887C79.0983 43.4137 77.6456 44.0852 76.4901 44.7415C75.6727 45.2049 75.1242 44.6884 75.5688 44.1945Z" fill="#423835"/>
<path d="M116.076 45.1278C114.744 43.5031 112.792 42.1153 109.243 41.7638C105.695 41.4122 104.176 42.3857 103.449 42.9813C103.124 43.2476 104.219 44.2518 105.727 44.1028C105.727 44.1028 107.264 43.6577 110.221 43.9507C112.587 44.1851 114.007 44.9227 115.131 45.6315C115.926 46.1325 116.498 45.6417 116.076 45.1278Z" fill="#423835"/>
<path d="M86.4801 51.6195C86.4612 52.4447 85.7766 53.098 84.9514 53.0791C84.1262 53.0602 83.4728 52.3756 83.4918 51.5504C83.5107 50.7252 84.1953 50.0718 85.0205 50.0907C85.8457 50.1096 86.4994 50.7943 86.4801 51.6195Z" fill="#302A2A"/>
<path d="M109.075 51.7464C109.057 52.5716 108.372 53.225 107.547 53.206C106.722 53.1871 106.069 52.5029 106.087 51.6777C106.106 50.8525 106.791 50.1992 107.616 50.2181C108.441 50.237 109.094 50.9212 109.075 51.7464Z" fill="#302A2A"/>
<path d="M95.9033 52.9001C95.9033 52.9001 98.2698 60.6157 94.9259 61.1443C90.5799 61.8313 90.8556 66.9551 96.3819 66.2953" stroke="#BF6762" stroke-width="1.22665" stroke-miterlimit="10" stroke-linecap="round" stroke-linejoin="round"/>
<path d="M42.9771 226.254C42.9771 226.254 35.9796 249.528 35.362 255.412C35.1313 257.61 27.2529 375.727 22.9789 402.964C19.3169 426.304 11.4526 527.242 11.4526 527.242C11.4526 527.242 21.1944 540.276 53.8588 541.478C60.1081 541.708 73.6981 538.192 81.7593 538.826C91.5435 539.595 111.591 544.331 118.78 543.868C128.832 543.222 144.351 537.859 144.351 537.859C144.351 537.859 143.502 436.967 143.808 408.23C144.096 381.183 139.244 242.934 139.244 242.934L42.9771 226.254Z" fill="#EEF0F4"/>
<path d="M117.701 111.397C116.707 95.6083 110.765 96.5708 110.765 96.5708C109.243 104.804 95.7756 116.987 95.7756 116.987L87.1237 116.669C87.1237 116.669 76.7426 111.464 72.9642 95.1791C72.9642 95.1791 69.5289 93.4773 68.233 96.5802C66.9372 99.683 62.3072 107.782 62.3072 107.782C62.3072 107.782 44.7859 113.044 43.1404 114.953C39.3001 119.407 39.7075 153.084 38.4232 189.603C37.7498 208.751 38.3754 210.639 38.0772 226.073C37.9546 232.417 32.3641 273.063 34.9431 277.883C34.9431 277.883 52.2932 287.517 88.101 288.835C119.17 289.979 140.014 278.072 140.014 278.072C140.014 278.072 139.403 248.489 139.446 237.429C139.492 225.788 139.806 216.964 139.35 197.256C138.436 157.744 142.218 123.204 139.421 120.466C135.239 116.375 117.701 111.397 117.701 111.397Z" fill="#EEF0F4"/>
<path d="M63.8287 47.9088C63.8287 47.9088 58.1724 5.77756 96.7292 6.66598C135.286 7.55441 128.849 49.4531 128.849 49.4531C128.849 49.4531 124.882 49.0415 122.083 50.945C122.083 50.945 123.679 67.1214 123.285 67.1122C123.285 67.1122 119.79 65.0633 119.469 61.9067C119.469 61.9067 120.131 49.7496 119.393 48.1275C116.551 41.883 116.59 33.1043 115.509 28.7495C115.509 28.7495 109.49 33.7283 94.9327 33.3925C80.3757 33.057 74.2345 26.2234 74.2345 26.2234C74.2345 26.2234 74.541 47.0937 71.3844 47.4144C71.3844 47.4144 71.8493 54.8705 71.1398 58.0374C70.7011 59.9955 66.9335 66.3988 67.0241 65.8154C69.3351 50.9101 68.039 48.3743 63.8287 47.9088Z" fill="#423835"/>
<path d="M87.4723 74.7801C87.4723 74.7801 94.1071 79.2633 102.643 75.1295" stroke="#9B3535" stroke-width="1.22665" stroke-miterlimit="10" stroke-linecap="round" stroke-linejoin="round"/>
<path d="M67.0238 65.8154C67.0238 65.8154 66.0047 92.9535 93.5632 93.7328C123.832 94.5886 123.285 67.1118 123.285 67.1118L119.469 61.9063C119.469 61.9063 120.15 83.5727 108.293 85.661C108.293 85.661 104.538 81.0482 93.8772 80.8027C83.2166 80.5571 79.9831 84.2215 79.9831 84.2215C79.9831 84.2215 69.935 76.1168 71.3305 56.8608L67.0238 65.8154Z" fill="#423835"/>
<path d="M46.7606 113.866C46.7606 113.866 38.4066 115.172 34.2276 121.714C30.0486 128.254 1.15097 196.501 20.9787 214.165C37.2045 228.619 114.938 197.146 114.938 197.146L111.116 172.589L49.4902 177.802C49.4902 177.802 50.615 117.12 46.7606 113.866Z" fill="#EEF0F4"/>
<path d="M132.202 117.012C132.202 117.012 140.437 118.929 144.124 125.76C147.811 132.59 171.612 202.777 150.539 218.934C133.294 232.157 64.8308 189 64.8308 189L65.5509 163.429L122.622 174.981C122.622 174.981 128.119 119.973 132.202 117.012Z" fill="#EEF0F4"/>
<path d="M65.1251 165.234C65.1251 165.234 52.916 162.274 49.6292 164.664L48.9091 182.9L65.0914 181.921L65.1251 165.234Z" fill="#EFB3AB"/>
<path d="M105.446 171.505C105.446 171.505 119.406 165.187 123.665 165.259L123.236 175.004L105.446 171.505Z" fill="#EFB3AB"/>
<path d="M65.339 180.552L64.7263 188.837C64.7263 188.837 111.827 219.199 139.582 221.246" stroke="#C2C6CC" stroke-width="1.22665" stroke-miterlimit="10" stroke-linecap="round" stroke-linejoin="round"/>
<path d="M65.5825 163.233L123.425 175.208C123.425 175.208 139.275 183.273 143.441 187.759" stroke="#C2C6CC" stroke-width="1.22665" stroke-miterlimit="10" stroke-linecap="round" stroke-linejoin="round"/>
<path d="M126.576 132.399C126.576 132.399 123.431 159.54 123.13 170.12" stroke="#C2C6CC" stroke-width="1.22665" stroke-miterlimit="10" stroke-linecap="round" stroke-linejoin="round"/>
<path d="M49.1128 182.711C49.1128 182.711 42.0047 183.237 34.2575 190.434" stroke="#C2C6CC" stroke-width="1.22665" stroke-miterlimit="10" stroke-linecap="round" stroke-linejoin="round"/>
<path d="M36.3971 217.613C36.3971 217.613 77.9381 212.708 93.1789 205.205" stroke="#C2C6CC" stroke-width="1.22665" stroke-miterlimit="10" stroke-linecap="round" stroke-linejoin="round"/>
<path d="M50.6228 136.361C50.6228 136.361 53.3888 152.152 49.4296 163.426" stroke="#C2C6CC" stroke-width="1.22665" stroke-miterlimit="10" stroke-linecap="round" stroke-linejoin="round"/>
<path d="M35.9227 534.48C35.9227 534.48 55.1015 413.345 57.7245 375.418" stroke="#C2C6CC" stroke-width="1.22665" stroke-miterlimit="10" stroke-linecap="round" stroke-linejoin="round"/>
<path d="M87.7666 347.904C87.7666 347.904 89.5415 510.696 81.9565 539.037" stroke="#C2C6CC" stroke-width="1.22665" stroke-miterlimit="10" stroke-linecap="round" stroke-linejoin="round"/>
<path d="M117.573 349.001L130.65 537.968" stroke="#C2C6CC" stroke-width="1.22665" stroke-miterlimit="10" stroke-linecap="round" stroke-linejoin="round"/>
<path d="M74.0222 82.6596C74.0222 82.6596 75.7733 68.4137 94.1471 69.0902C113.746 69.8117 114.765 84.9579 114.765 84.9579L104.888 88.2935C104.888 88.2935 106.654 73.6393 94.405 73.1884C82.564 72.7524 82.0379 87.0434 82.0379 87.0434L74.0222 82.6596Z" fill="#423835"/>
<path d="M96.6077 3.7532C86.8085 3.39244 70.3004 6.06531 61.2174 30.6713C54.506 48.8527 41.4981 99.8605 46.703 113.954C46.703 113.954 53.3861 110.111 58.6041 112.756C58.6041 112.756 64.3679 122.781 72.6542 119.815L80.6313 111.089L79.8761 90.2347C79.8761 90.2347 66.9755 85.2623 67.8624 61.1721C67.8624 61.1721 75.5554 41.012 75.7959 34.4792C75.7959 34.4792 80.5302 39.151 87.1385 37.3501C87.1385 37.3501 93.4909 42.4902 98.5713 37.771C98.5713 37.771 102.126 41.1727 107.962 38.1168C107.962 38.1168 111.379 42.0874 116.475 38.5129C116.475 38.5129 118.504 59.5906 123.03 61.9769C123.03 61.9769 123.401 81.2869 110.887 89.9857L110.167 113.116C110.167 113.116 114.257 122.574 122.483 121.242L139.269 120.633C139.269 120.633 140.09 96.5947 137.413 71.0922C135.731 55.0714 133.383 44.4438 129.147 29.0838C124.818 13.3874 112.969 4.35555 96.6077 3.7532Z" fill="#BF4A5B"/>
<path d="M79.8765 90.2343C79.8765 90.2343 66.9758 85.2619 67.8627 61.1717C67.8627 61.1717 67.9035 61.0651 67.9769 60.8706C67.8736 60.8983 67.7707 60.9269 67.6663 60.9598C67.6663 60.9598 56.81 101.528 62.7438 117.582C65.2068 119.632 68.6318 121.255 72.6549 119.815L80.632 111.089L79.8765 90.2343Z" fill="#A3324C"/>
<path d="M123.029 61.9764C123.029 61.9764 123.4 81.2864 110.886 89.9852L110.166 113.115C110.166 113.115 114.257 122.574 122.483 121.241L128.409 121.026C132.346 111.805 123.029 61.9764 123.029 61.9764Z" fill="#A3324C"/>
<path d="M131.164 57.5739C131.164 57.5739 138.863 109.986 135.082 120.784" stroke="#A3324C" stroke-width="1.22665" stroke-miterlimit="10" stroke-linecap="round" stroke-linejoin="round"/>
<path d="M61.7759 52.6965C61.7759 52.6965 53.2958 98.2352 52.927 112.642" stroke="#A3324C" stroke-width="1.22665" stroke-miterlimit="10" stroke-linecap="round" stroke-linejoin="round"/>
<path d="M64.1768 23.9775C64.1768 23.9775 71.3645 32.6802 95.4547 33.5672C124.036 34.6194 128.768 28.252 128.768 28.252C128.768 28.252 130.113 25.0307 126.823 22.8707C126.823 22.8707 93.5461 29.6405 67.3692 19.0407C67.3692 19.0407 62.4546 19.2689 64.1768 23.9775Z" fill="#483038"/>
</svg>
