<svg width="25" height="25" viewBox="0 0 25 25" fill="none" xmlns="http://www.w3.org/2000/svg">
<path d="M23.2293 11.3077C23.1803 10.4695 23.1256 9.61352 22.947 8.79173C22.8591 8.387 22.7134 7.97601 22.477 7.63646C22.1063 7.10378 21.5498 6.82995 20.9245 6.73866C19.9563 6.59762 18.9745 6.53309 17.9991 6.47115C17.4906 6.43882 16.9812 6.41434 16.4718 6.39042C16.2817 4.118 14.8944 3.20752 12.6814 3.20752C10.4834 3.20752 9.09994 4.10571 8.8952 6.34459C8.02138 6.37907 7.1481 6.431 6.27785 6.51727C5.13731 6.63047 3.83178 6.73294 3.06484 7.71744C2.56346 8.36114 2.39565 9.16697 2.28224 9.96199C2.13254 11.0122 2.07828 12.075 2.06045 13.1352C2.02654 15.1634 2.05976 17.2662 2.44017 19.2644C2.59682 20.0875 2.94754 20.823 3.70172 21.2449C4.26335 21.5592 4.89571 21.6675 5.52303 21.7525C6.09847 21.8302 6.67633 21.8899 7.25484 21.9376C9.91658 22.1575 12.5971 22.1786 15.2655 22.1215C16.4668 22.096 17.6685 22.0509 18.8678 21.9725C19.3323 21.9421 19.7966 21.9068 20.2601 21.8609C20.8061 21.8069 21.3782 21.7648 21.8468 21.4431C22.3217 21.1167 22.5775 20.6231 22.7901 20.098C23.054 19.4219 23.102 18.636 23.1657 17.9196C23.2623 16.8352 23.2971 15.7449 23.3057 14.6565C23.315 13.54 23.2943 12.4223 23.2293 11.3077ZM13.7581 6.30093C13.0438 6.28889 12.3298 6.28591 11.6156 6.29051C11.2538 6.2928 11.0805 6.17572 11.2116 5.8916C11.4543 5.36556 11.9703 5.1942 12.6814 5.1942C13.4043 5.1942 13.9261 5.37107 14.1634 5.91822C14.326 6.29363 14.1059 6.30689 13.7581 6.30093Z" fill="#68182B"/>
<path d="M21.338 8.14643C21.8473 7.82402 21.9271 8.0937 22.0226 8.28611C22.3256 8.89655 22.3752 9.62839 22.4362 10.2927C21.8445 10.1914 21.2488 10.1165 20.6519 10.0557C20.7104 9.19323 20.8484 8.45678 21.338 8.14643Z" fill="#DDA96B"/>
<path d="M11.0392 4.14151C11.5615 3.97084 12.1352 3.93799 12.6813 3.93799C13.2377 3.93799 13.7795 4.01533 14.3232 4.14151C15.3695 4.38426 15.6734 5.41186 15.7547 6.3582C15.5023 6.34847 15.2497 6.34224 14.9972 6.33452C14.8362 5.02319 14.0129 4.46416 12.6813 4.46416C11.3594 4.46416 10.5385 5.01443 10.3684 6.30409C10.2613 6.30627 10.1541 6.30544 10.0469 6.308C9.9016 6.3114 9.75643 6.31666 9.61108 6.32085C9.70006 5.34667 10.015 4.47607 11.0392 4.14151Z" fill="#FF7A0D"/>
<path d="M5.25726 7.37053C6.37813 7.18324 7.5325 7.13321 8.66559 7.08371C11.2277 6.97147 13.7977 7.00041 16.3594 7.11358C17.4494 7.16174 18.5391 7.22596 19.6259 7.32521C20.0718 7.36578 20.5648 7.37741 21.0018 7.49761C19.7898 8.22257 19.9275 10.4111 19.9186 11.7372C19.9085 13.2532 19.1351 13.6499 17.8632 13.8654C16.9111 14.0263 15.9378 14.1362 14.9685 14.1822C14.5181 14.2031 14.3954 14.1972 14.3102 13.7797C14.241 13.4434 14.1075 13.1287 13.8533 12.8907C13.305 12.377 12.4176 12.3587 11.784 12.7287C11.3414 12.9867 11.1599 13.2956 11.0595 13.7634C10.9828 14.1194 10.8741 14.2041 10.4027 14.1803C9.51654 14.1351 8.63168 14.0326 7.75507 13.9054C6.56841 13.7328 5.61626 13.5359 5.45591 12.103C5.32388 10.9243 5.69138 8.3931 4.55884 7.54168C4.78645 7.46275 5.02417 7.40961 5.25726 7.37053Z" fill="#FFC522"/>
<path d="M13.3167 15.7877C12.9405 16.0323 12.3017 16.095 11.9427 15.7877C11.4796 15.3916 11.6887 14.1871 11.8121 13.6825C11.9324 13.3632 12.3507 13.2264 12.6557 13.2095C13.1679 13.1811 13.5079 13.4612 13.6059 13.9523C13.712 14.4851 13.8382 15.4493 13.3167 15.7877Z" fill="#00EBED"/>
<path d="M3.2303 8.93491C3.50873 8.0478 4.01318 7.76596 4.39038 8.4923C4.59502 8.88651 4.68543 9.46517 4.7228 10.0543C4.13084 10.1141 3.54025 10.1881 2.95337 10.2879C3.01052 9.82853 3.09296 9.37253 3.2303 8.93491Z" fill="#DDA96B"/>
<path d="M22.2985 19.1174C22.2514 19.3836 22.196 19.6521 22.0977 19.9039C21.9041 20.382 21.6406 20.8205 21.1329 20.9883C20.7202 21.1242 20.2607 21.1332 19.8306 21.1701C18.7822 21.26 17.7305 21.313 16.6789 21.3509C14.1332 21.4426 11.5805 21.4472 9.03575 21.3226C7.88404 21.2662 6.73036 21.1862 5.58702 21.0309C4.66786 20.9061 3.60683 20.6725 3.27697 19.6667C3.0673 19.0274 3.00732 18.3251 2.94323 17.6586C2.84377 16.6253 2.7955 15.5867 2.77848 14.5489C2.76385 13.6359 2.77317 12.7212 2.82437 11.8092C2.85241 11.309 2.96399 11.02 3.33974 10.9606C3.8067 10.8867 4.27592 10.8297 4.74659 10.7822C4.75058 11.3356 4.72879 11.8299 4.73795 12.1033C4.76654 12.9578 5.12472 13.661 5.81253 14.1404C6.38906 14.5421 7.26339 14.5717 7.92782 14.6619C8.93126 14.7976 9.94218 14.9076 10.9549 14.931C10.9809 15.5813 11.1791 16.2007 11.7326 16.5203C12.4436 16.9306 13.5599 16.7086 14.0776 16.0752C14.3318 15.7639 14.3735 15.338 14.3803 14.9357C15.9743 14.9188 18.1472 14.92 19.55 14.1404C20.5146 13.6044 20.561 12.1452 20.6154 10.7822C21.0535 10.8264 21.4901 10.8789 21.9251 10.9453C22.4693 11.0289 22.525 11.4338 22.5508 12.0984C22.5665 12.5044 22.5766 12.9104 22.5828 13.3162C22.6128 15.2318 22.6342 17.2247 22.2985 19.1174Z" fill="#FF7A0D"/>
<path d="M19.8151 8.92168C19.3944 10.2272 19.9706 11.8656 19.0553 13.0078C18.6215 13.5498 17.8066 13.5801 17.1823 13.6643C16.5218 13.7536 15.8559 13.8117 15.1895 13.8181C14.5247 13.8247 14.4728 12.8826 14.0395 12.5477C13.6295 12.231 13.2073 12.1205 12.6986 12.142C12.2803 12.1596 11.8341 12.2531 11.477 12.4779C11.0365 12.7555 10.9236 13.3672 10.4811 13.6577C9.93592 14.0158 8.92543 13.7321 8.34825 13.6268C7.85085 13.5361 7.35104 13.4918 6.86984 13.325C6.01372 13.028 5.79047 12.1888 5.71347 11.2971C5.70112 11.0201 5.68849 10.6992 5.6648 10.3654C5.65282 10.0553 5.63821 9.75953 5.59873 9.50193C5.52507 9.02159 5.34838 8.26416 4.9209 7.94082C5.60605 9.01359 5.34079 11.074 5.45608 12.1032C5.61643 13.5361 6.56857 13.733 7.75524 13.9056C8.63185 14.0328 9.51671 14.1353 10.4029 14.1805C10.8742 14.2043 10.983 14.1196 11.0597 13.7636C11.1601 13.2958 11.3416 12.9869 11.7842 12.7289C12.4178 12.3589 13.3052 12.3772 13.8535 12.8909C14.1077 13.1289 14.2412 13.4436 14.3103 13.7799C14.3956 14.1974 14.5183 14.2033 14.9686 14.1824C15.9379 14.1364 16.9113 14.0265 17.8633 13.8655C19.1352 13.6501 19.9087 13.2533 19.9188 11.7374C19.9264 10.6049 19.83 8.84604 20.5559 7.9043C20.2046 8.14597 19.9325 8.55721 19.8151 8.92168Z" fill="#FFA222"/>
<path d="M17.4807 7.83224C14.5165 7.65402 11.5061 7.66766 8.54602 7.80842C8.24128 7.82289 7.9413 7.83397 7.67632 7.87347C7.41344 7.90594 7.17559 7.97124 7.03133 8.10241C6.85876 8.23493 6.75624 8.4317 6.76301 8.73313C6.77925 9.46092 7.50402 9.93344 8.42529 9.90948C9.05261 9.89325 9.66713 9.67175 10.2681 9.55422C11.1047 9.39058 11.97 9.33259 12.8316 9.34312C14.2212 9.36043 15.5488 9.77734 16.9361 9.84374C18.4347 9.91516 18.7621 9.07105 18.5859 8.39244C18.4736 7.96002 18.097 7.86914 17.4807 7.83224Z" fill="#FBE134"/>
<path d="M4.72269 10.0542C4.68532 9.46503 4.59491 8.88641 4.39028 8.4922C4.08727 7.90894 3.70247 7.97697 3.41846 8.48545C3.92848 8.52859 4.33112 9.01395 4.33895 9.58177C4.34146 9.7711 4.28377 9.94824 4.19588 10.1148C4.37155 10.0943 4.54678 10.0721 4.72269 10.0542Z" fill="#C48D51"/>
<path d="M21.1091 9.25243C21.1854 8.75548 21.5581 8.40766 21.9745 8.18748C21.889 8.02062 21.7634 7.8774 21.3382 8.14636C20.8486 8.45672 20.7106 9.19316 20.6521 10.0557C20.913 10.0822 21.1733 10.113 21.4335 10.1458C21.2121 9.93117 21.0405 9.69978 21.1091 9.25243Z" fill="#C48D51"/>
<path d="M13.3074 4.2876C11.8456 4.12679 10.251 4.63109 10.1804 6.30606C10.2432 6.30564 10.3058 6.30499 10.3685 6.30377C10.5386 5.01408 11.3595 4.46385 12.6814 4.46385C14.013 4.46385 14.8363 5.02287 14.9973 6.3342C15.086 6.33691 15.1745 6.33988 15.263 6.34244C15.2406 5.90199 15.0573 5.43532 14.8465 5.1251C14.4921 4.60294 13.9046 4.35331 13.3074 4.2876Z" fill="#EF6200"/>
<path d="M22.5827 13.3162C22.5764 12.9104 22.5664 12.5044 22.5507 12.0984C22.5249 11.4338 22.4692 11.0289 21.925 10.9453C21.4901 10.8789 21.0534 10.8264 20.6153 10.7822C20.6073 10.9778 20.5995 11.1749 20.5892 11.3714C20.6545 11.3692 20.7195 11.3668 20.7851 11.3652C21.0383 11.3594 21.2893 11.3783 21.5324 11.4534C22.048 11.6128 22.0951 12.1861 22.1095 12.6431C22.1679 14.5194 22.1645 16.4696 21.8699 18.3257C21.7968 18.7867 21.7223 19.2743 21.523 19.6982C21.2211 20.3411 20.5925 20.4618 19.972 20.5613C18.9418 20.7263 17.8949 20.7877 16.8541 20.8297C14.4968 20.9247 12.1301 20.8614 9.77606 20.7176C8.17441 20.62 6.44871 20.5862 4.89229 20.1478C3.34796 19.7128 3.32403 17.2898 3.26048 16.0015C3.21048 14.9864 3.2485 13.9647 3.30527 12.9511C3.33332 12.4483 3.36406 11.9497 3.70709 11.556C3.97235 11.2513 4.36539 11.2023 4.74579 11.1487C4.74699 11.0308 4.74753 10.9081 4.74658 10.7822C4.2759 10.8297 3.80669 10.8868 3.33972 10.9606C2.96398 11.02 2.85243 11.309 2.82435 11.8092C2.77316 12.7212 2.76387 13.6359 2.77847 14.5489C2.79549 15.5867 2.84375 16.6253 2.94321 17.6586C3.00731 18.3251 3.06728 19.0274 3.27695 19.6667C3.60682 20.6725 4.66785 20.9061 5.58701 21.0309C6.73034 21.1862 7.88403 21.2662 9.03574 21.3226C11.5805 21.4472 14.1332 21.4426 16.6789 21.3509C17.7305 21.313 18.7822 21.26 19.8306 21.1701C20.2607 21.1332 20.7202 21.1242 21.1329 20.9883C21.6406 20.8205 21.9041 20.3819 22.0977 19.9039C22.196 19.6521 22.2514 19.3836 22.2985 19.1174C22.6342 17.2247 22.6128 15.2319 22.5827 13.3162Z" fill="#EF6200"/>
<path d="M20.4922 12.4072C20.374 13.1693 20.1264 13.8201 19.55 14.1405C18.1473 14.9201 15.9743 14.9188 14.3804 14.9358C14.3736 15.3381 14.3318 15.7639 14.0776 16.0752C13.56 16.7086 12.4436 16.9307 11.7327 16.5204C11.1792 16.2007 10.9809 15.5813 10.955 14.931C9.94222 14.9076 8.93132 14.7977 7.92785 14.6619C7.26343 14.5717 6.38909 14.5421 5.81256 14.1405C5.43828 13.8796 5.16506 13.5503 4.98608 13.1686C5.11185 13.7465 5.40479 14.2504 6.03925 14.6019C7.0286 15.1498 8.34812 15.088 9.44039 15.1156C9.89085 15.127 10.3573 15.1589 10.6323 15.5731C10.7768 15.7908 10.8438 16.0693 10.9627 16.3036C11.2208 16.8129 11.8441 16.9911 12.3644 17.0318C12.924 17.0754 13.559 17.0635 14.0347 16.7226C14.518 16.3764 14.5497 15.6664 15.052 15.3493C15.4022 15.1279 15.9903 15.2085 16.3893 15.1851C16.7691 15.1631 17.1479 15.1289 17.5259 15.0871C18.0983 15.0238 18.6469 14.8979 19.1708 14.6507C20.0897 14.2169 20.4774 13.3587 20.4922 12.4072Z" fill="#FFB85A"/>
<path d="M12.5332 15.7048C11.9645 15.6258 11.8892 14.9172 11.8878 14.4655C11.8863 14.0502 11.9649 13.6712 12.1516 13.3398C11.9997 13.4161 11.8706 13.5274 11.8121 13.6824C11.6887 14.1869 11.4796 15.3914 11.9427 15.7875C12.3017 16.0949 12.9405 16.0322 13.3167 15.7875C13.5262 15.6515 13.6301 15.414 13.6738 15.1447C13.4437 15.5283 13.0779 15.7802 12.5332 15.7048Z" fill="#19BFBB"/>
</svg>
