<svg width="25" height="25" viewBox="0 0 25 25" fill="none" xmlns="http://www.w3.org/2000/svg">
<g clip-path="url(#clip0_11295_103301)">
<path d="M1.63064 17.5485C1.64058 18.1558 1.91321 18.8914 2.50343 19.1687C3.12447 19.4606 3.92447 19.4438 4.59447 19.4669C4.88418 19.4771 5.17415 19.4812 5.464 19.4862C5.15502 20.0887 4.88433 20.7122 4.621 21.3339C4.44945 21.7394 4.28355 22.1478 4.13026 22.5603C3.97206 22.9867 3.94197 23.4496 4.25539 23.8183C4.52908 24.1403 5.06192 24.2598 5.46727 24.1869C5.90404 24.1082 6.2996 23.8889 6.54437 23.5188C6.94171 22.9179 7.23805 22.2339 7.54317 21.5851C7.86502 20.901 8.1789 20.2103 8.4563 19.5069C9.83984 19.5095 11.2232 19.5056 12.6067 19.494C14.3051 19.4797 16.0034 19.4571 17.7017 19.426C17.9481 20.0576 18.2268 20.6782 18.5113 21.2934C18.8305 21.9842 19.1566 22.6774 19.538 23.3375C19.7587 23.7191 20.0381 23.9792 20.4664 24.1211C20.88 24.2583 21.3546 24.2256 21.7324 23.9967C22.5991 23.4711 21.9849 22.3377 21.7048 21.6582C21.3856 20.8841 21.0522 20.107 20.6603 19.3633C21.2425 19.3522 21.8284 19.3374 22.3989 19.2335C23.0178 19.1206 23.3181 18.9393 23.546 18.6068C23.844 18.1715 23.876 17.5567 23.7863 17.0561C23.6873 16.5022 23.3972 16.0816 22.906 15.8681C23.0574 14.5953 23.0882 13.3077 23.0959 12.0278C23.1054 10.436 23.0654 8.8415 22.9488 7.25347C22.8667 6.13752 22.8227 4.91454 22.3441 3.88047C21.9936 3.12274 21.3389 2.71022 20.514 2.60144C19.9138 2.52218 19.3094 2.47095 18.7057 2.4273C17.4097 2.33403 16.107 2.27271 14.8028 2.24528C14.8119 2.05055 14.8134 1.85567 14.7974 1.66023C14.7774 1.41367 14.7716 1.13299 14.6881 0.899136C14.5925 0.631126 14.405 0.415656 14.127 0.324737C13.976 0.275672 13.8118 0.260351 13.6551 0.243423C13.2577 0.200373 12.8531 0.199776 12.4546 0.221973C12.2414 0.23408 12.0281 0.255269 11.8174 0.290283C11.5877 0.328101 11.4174 0.494505 11.2849 0.672568C11.0881 0.937065 11.0494 1.25063 11.0365 1.56987C11.0274 1.80122 11.0361 2.03246 11.045 2.26381C10.1408 2.29169 9.23804 2.33594 8.33838 2.39928C7.5311 2.45619 6.72563 2.53373 5.92401 2.64438C5.11718 2.75574 4.29805 2.89737 3.64706 3.41612C2.68591 4.18189 2.51258 5.48849 2.39295 6.62066C2.23297 8.13265 2.22792 9.66332 2.26588 11.1816C2.30281 12.6609 2.38372 14.1454 2.57676 15.6139C2.59649 15.7638 2.62196 15.9135 2.64466 16.0632C1.99094 16.3006 1.61895 16.8495 1.63064 17.5485Z" fill="#68182B"/>
<path d="M7.47271 19.8161C7.07981 20.7627 6.6346 21.6947 6.15187 22.5954C6.03637 22.8108 5.92133 23.1156 5.7157 23.2614C5.55337 23.3765 5.33942 23.4359 5.13853 23.4119C4.85015 23.3782 4.73303 23.2378 4.83623 22.9314C4.86515 22.8456 4.9053 22.7618 4.93335 22.687C5.06558 22.3357 5.20628 21.9874 5.35187 21.6413C5.61504 21.0149 5.89006 20.3875 6.20629 19.7838C6.31674 19.5722 6.40005 19.4987 6.58333 19.5C6.7427 19.5015 6.90207 19.5029 7.06117 19.5041C7.16881 19.5049 7.2766 19.5049 7.38424 19.5049C7.57693 19.5049 7.59279 19.5262 7.47271 19.8161Z" fill="#FFC522"/>
<path d="M20.7257 21.3751C20.8757 21.7231 21.0198 22.0739 21.1574 22.4269C21.2517 22.6693 21.4867 23.0489 21.3341 23.3004C21.3141 23.3337 21.3334 23.3139 21.2978 23.3332C21.2378 23.3659 21.165 23.3849 21.0989 23.4007C20.9426 23.4379 20.8007 23.4088 20.6523 23.3519C20.3771 23.2465 20.2701 23.0163 20.1365 22.775C19.8127 22.191 19.524 21.5877 19.2431 20.9829C19.0398 20.5459 18.8429 20.1055 18.6578 19.6604C18.5808 19.4748 18.557 19.4086 18.7804 19.4042C19.0474 19.3985 19.3141 19.3927 19.5808 19.3864C19.8309 19.3808 19.7842 19.4093 19.8697 19.5665C20.189 20.1523 20.4619 20.7642 20.7257 21.3751Z" fill="#FFC522"/>
<path d="M11.8432 1.46021C11.8685 1.09119 11.9146 1.04695 12.3776 1.01485C12.7287 0.991493 13.0827 0.990185 13.434 1.01294C13.455 1.0144 13.6959 1.00943 13.828 1.06272C13.9372 1.10651 13.9427 1.20782 13.9502 1.23088C14.003 1.39818 13.9957 1.64149 13.9987 1.68166C14.0077 1.79975 14.0104 1.91768 14.0089 2.03551C14.0067 2.23446 14.049 2.23592 13.7625 2.2333C13.2039 2.22949 12.6452 2.23184 12.0868 2.24089C11.8986 2.2438 11.8426 2.20397 11.8373 1.99844C11.8356 1.93842 11.8348 1.57946 11.8432 1.46021Z" fill="#FFC522"/>
<path d="M3.09692 7.8991C3.12881 7.26981 3.17283 6.63715 3.27159 6.01403C3.34188 5.56982 3.42621 5.10869 3.63113 4.70305C4.29829 3.38097 6.05677 3.38916 7.36399 3.26711C10.6948 2.95635 14.0745 2.96932 17.4132 3.13762C18.0934 3.17178 18.7735 3.21513 19.4518 3.2757C20.0126 3.32578 20.7499 3.30534 21.2113 3.66576C21.6312 3.99334 21.7907 4.57241 21.8915 5.06855C21.9914 5.56048 22.0443 6.06145 22.0909 6.56055C22.3582 9.42936 22.415 12.3799 22.1705 15.252C22.1662 15.3001 22.1622 15.3478 22.1578 15.3957C22.137 15.6218 22.0767 15.672 21.8715 15.6555C21.6 15.6339 21.3256 15.629 21.0527 15.6279C21.1978 14.5 21.2189 13.3531 21.2248 12.218C21.2316 10.8989 21.199 9.57809 21.1072 8.26233C21.0421 7.33042 21.0147 6.30222 20.6385 5.42973C20.3751 4.81811 19.8916 4.43403 19.2193 4.33769C18.7087 4.26486 18.1926 4.22192 17.6778 4.18384C14.7985 3.97073 11.8762 3.95059 8.99628 4.1643C8.33861 4.21307 7.68182 4.27887 7.0292 4.37319C6.36663 4.46908 5.68983 4.60062 5.17909 5.05955C4.44285 5.72094 4.32793 6.80875 4.23824 7.72676C4.11341 9.00549 4.1103 10.2972 4.14351 11.5803C4.17554 12.8199 4.24238 14.064 4.40209 15.2947C4.42357 15.4603 4.44968 15.6251 4.47576 15.7896C4.2031 15.8007 3.92778 15.8174 3.65576 15.8482C3.4639 15.8704 3.4138 15.839 3.38621 15.6487C3.23439 14.5932 3.16471 13.523 3.1134 12.4609C3.03984 10.9425 3.01984 9.41778 3.09692 7.8991Z" fill="#FF2E60"/>
<path d="M10.6896 14.0822C10.2196 13.8198 9.63868 13.8494 9.11206 13.8422C8.57285 13.8351 7.85366 13.7661 7.37775 14.0572C6.79926 14.4112 6.86746 15.1274 6.89961 15.7168C6.31917 15.7305 5.73874 15.7444 5.15846 15.7648C5.04563 15.7685 4.94364 15.7103 4.91457 15.5201C4.76974 14.5652 4.70878 13.5949 4.66252 12.6322C4.60084 11.3484 4.58319 10.0593 4.64456 8.77474C4.67037 8.23334 4.70726 7.68958 4.78674 7.15285C4.84158 6.78309 4.90713 6.39934 5.05925 6.05454C5.31085 5.48481 5.75206 5.13799 6.35842 4.97581C6.95411 4.81669 7.59178 4.76445 8.20439 4.70459C11.0125 4.43 13.8668 4.44375 16.6825 4.59349C17.2587 4.62428 17.8346 4.66296 18.4087 4.71785C18.8963 4.76471 19.4945 4.76075 19.8689 5.11475C20.2114 5.43896 20.3381 5.93877 20.4206 6.38559C20.5011 6.82236 20.5451 7.26597 20.5833 7.70812C20.6911 8.94682 20.7322 10.1921 20.7427 11.4354C20.753 12.6391 20.739 13.8479 20.6351 15.0482C20.6254 15.1599 20.6142 15.2714 20.6014 15.3825C20.5783 15.5892 20.4167 15.6257 20.2333 15.6236C19.6074 15.6172 18.9811 15.614 18.355 15.6122C15.9417 15.6046 13.5279 15.6135 11.1144 15.6423C11.1496 15.16 11.1622 14.346 10.6896 14.0822Z" fill="#DDA96B"/>
<path d="M10.3345 15.4212C10.3197 15.6483 10.2799 15.6517 10.01 15.6557C9.33583 15.6652 8.66184 15.6773 7.98789 15.691C7.74031 15.696 7.68885 15.6888 7.67268 15.4293C7.65044 15.0772 7.68069 14.6984 8.06676 14.6634C8.41369 14.6319 8.76386 14.6301 9.11197 14.6304C9.4251 14.631 9.74592 14.6361 10.0568 14.6777C10.3385 14.7157 10.355 15.1063 10.3345 15.4212Z" fill="#00EBED"/>
<path d="M2.50337 17.1291C2.69416 16.7117 3.35794 16.6804 3.77289 16.6372C4.57483 16.5543 5.38492 16.5436 6.19068 16.5213C9.54932 16.4276 12.9105 16.4038 16.2703 16.3991C17.6819 16.397 19.0933 16.3991 20.5047 16.4149C21.1514 16.4222 21.8401 16.3762 22.4681 16.5471C22.6511 16.597 22.7736 16.635 22.8796 16.8321C23.0168 17.0865 23.0507 17.4027 23.0282 17.6861C23.0113 17.9029 22.9572 18.182 22.7505 18.2989C22.2667 18.5403 21.5638 18.5443 20.9827 18.5622C20.3913 18.5808 19.7999 18.5952 19.2082 18.6084C17.6338 18.6434 16.0593 18.6679 14.485 18.6866C11.1745 18.726 7.84909 18.7986 4.53968 18.6768C4.15805 18.6628 3.77229 18.6475 3.39392 18.593C3.27266 18.5754 3.15136 18.5532 3.03321 18.522C2.82996 18.468 2.76677 18.4385 2.63898 18.2605C2.41383 17.9475 2.35705 17.4491 2.50337 17.1291Z" fill="#FF7A0D"/>
<path d="M11.837 1.99854C11.8423 2.20406 11.8983 2.2439 12.0865 2.24099C12.645 2.23194 13.2036 2.22959 13.7622 2.2334C14.0487 2.23602 14.0064 2.23456 14.0086 2.03561C14.0101 1.91782 14.0074 1.79984 13.9984 1.68176C13.9976 1.67021 13.9973 1.64073 13.9966 1.60205C13.8425 1.91602 13.4713 1.98041 13.1558 2.01677C12.7169 2.06785 12.1574 2.06143 11.8362 1.75022C11.8356 1.86292 11.8361 1.96834 11.837 1.99854Z" fill="#FFA222"/>
<path d="M5.71567 23.2614C5.9213 23.1156 6.03634 22.8108 6.15184 22.5954C6.63458 21.6947 7.07978 20.7627 7.47268 19.816C7.59276 19.5261 7.5769 19.5048 7.38417 19.5048C7.27653 19.5048 7.16874 19.5048 7.0611 19.5041C7.01928 19.5039 6.97734 19.5033 6.93536 19.5029C7.1717 19.8705 6.97316 20.2929 6.7914 20.7416C6.60903 21.1924 6.39645 21.6327 6.18546 22.0712C6.00799 22.4396 5.83663 22.814 5.57049 23.1306C5.48123 23.2368 5.37643 23.3284 5.26538 23.4141C5.42642 23.4065 5.58727 23.3525 5.71567 23.2614Z" fill="#FFA222"/>
<path d="M19.2431 20.9834C19.5241 21.5881 19.8127 22.1914 20.1365 22.7755C20.2701 23.0167 20.3771 23.2469 20.6523 23.3524C20.8007 23.4093 20.9426 23.4383 21.0989 23.4011C21.165 23.3854 21.2378 23.3664 21.2978 23.3337C21.3334 23.3144 21.3142 23.3341 21.3342 23.3008C21.3542 23.2675 21.3669 23.2321 21.3746 23.1948C20.6228 23.2105 20.2797 22.5746 19.9113 21.8931C19.6425 21.3965 18.7534 19.9719 19.2127 19.395C19.0686 19.3982 18.9245 19.4017 18.7804 19.4047C18.5569 19.409 18.5808 19.4753 18.6578 19.6608C18.843 20.1059 19.0399 20.5463 19.2431 20.9834Z" fill="#FFA222"/>
<path d="M21.2353 6.92374C21.1508 6.2289 21.0989 5.48985 20.7939 4.84875C20.2286 3.65967 18.5154 3.81482 17.4175 3.74782C14.4743 3.56796 11.467 3.56535 8.52957 3.84838C7.49191 3.94808 6.25661 3.95888 5.30541 4.41519C4.08063 5.0023 3.90126 6.40569 3.7724 7.61375C3.57432 9.47271 3.70864 11.3623 3.83647 13.2222C3.89579 14.0865 3.97318 14.951 4.08807 15.8099C4.21749 15.8013 4.34691 15.7944 4.47577 15.7891C4.44966 15.6246 4.42358 15.4598 4.4021 15.2943C4.24243 14.0636 4.17555 12.8194 4.14352 11.5798C4.11031 10.2967 4.11342 9.00504 4.23825 7.72631C4.32794 6.8083 4.44286 5.72049 5.1791 5.0591C5.68984 4.60017 6.36664 4.46863 7.02921 4.37274C7.68183 4.27846 8.33862 4.21262 8.99629 4.16385C11.8762 3.95014 14.7985 3.97028 17.6778 4.18339C18.1926 4.22151 18.7087 4.26441 19.2193 4.33724C19.8916 4.43358 20.3751 4.81762 20.6386 5.42928C21.0147 6.30177 21.0421 7.32997 21.1072 8.26188C21.199 9.57768 21.2316 10.8984 21.2248 12.2176C21.2189 13.3527 21.1978 14.4996 21.0527 15.6275C21.1436 15.6278 21.2346 15.63 21.3256 15.6314C21.6956 12.7521 21.584 9.79412 21.2353 6.92374Z" fill="#EA0F4D"/>
<path d="M6.88797 14.9842C6.27198 14.9471 5.70635 14.7777 5.48025 14.1077C5.08899 12.9479 5.10132 11.565 5.01414 10.3582C4.93573 9.27536 4.87967 8.19181 4.79397 7.10986C4.79158 7.12418 4.78922 7.13864 4.78698 7.15291C4.70751 7.68964 4.67062 8.2334 4.64481 8.7748C4.58344 10.0594 4.60109 11.3484 4.66276 12.6323C4.70903 13.595 4.76994 14.5653 4.91481 15.5202C4.94389 15.7104 5.04587 15.7685 5.15871 15.7649C5.73899 15.7444 6.31942 15.7305 6.89985 15.7168C6.8871 15.4824 6.86915 15.2281 6.88797 14.9842Z" fill="#C48D51"/>
<path d="M18.355 15.6123C18.9811 15.6141 19.6074 15.6173 20.2333 15.6237C20.4167 15.6258 20.5783 15.5893 20.6014 15.3826C20.6142 15.2715 20.6254 15.16 20.6351 15.0483C20.739 13.848 20.7529 12.6392 20.7427 11.4355C20.7401 11.1041 20.7344 10.7728 20.7267 10.4414C20.6376 11.1379 20.519 11.8308 20.3875 12.5208C20.2746 13.1136 20.1716 13.7327 19.9024 14.2805C19.42 15.2625 17.8088 14.992 16.9239 14.9966C15.3144 15.0052 13.705 14.9867 12.0963 14.9486C11.7673 14.9407 11.4393 14.9385 11.1116 14.9377C11.1374 15.188 11.1289 15.4432 11.1144 15.6424C13.5279 15.6136 15.9417 15.6048 18.355 15.6123Z" fill="#C48D51"/>
<path d="M17.423 5.65667C15.0802 5.52647 11.4743 5.3313 8.44228 5.78701C6.95065 6.01122 6.66007 6.34127 6.33746 7.65576C6.23707 8.06581 6.20921 8.50078 6.19396 8.88979C6.10989 11.0486 7.28764 11.3471 8.19471 11.4921C10.9931 11.9393 17.0557 11.7341 18.3977 11.2982C18.8769 11.1424 19.2721 10.8733 19.469 10.4025C19.6927 9.86792 19.72 8.47858 19.231 6.66544C19.0662 6.05558 18.6519 5.72498 17.423 5.65667Z" fill="#F4C38E"/>
<path d="M19.0559 18.309C16.9605 18.3373 14.8652 18.3581 12.7699 18.3818C10.8228 18.4038 8.87572 18.424 6.92837 18.4316C6.47766 18.4333 6.0262 18.4393 5.57538 18.4291C4.56694 18.4065 3.03541 18.5757 2.44151 17.5751C2.43396 17.5623 2.42978 17.5483 2.42312 17.5352C2.42166 17.7898 2.49624 18.0624 2.63887 18.2606C2.76666 18.4386 2.82982 18.4681 3.0331 18.5221C3.15125 18.5533 3.27255 18.5755 3.39381 18.5931C3.77218 18.6476 4.15794 18.6629 4.53957 18.6769C7.84898 18.7987 11.1744 18.7261 14.4849 18.6867C16.0592 18.668 17.6337 18.6435 19.2081 18.6085C19.7998 18.5953 20.3912 18.5809 20.9826 18.5624C21.5638 18.5444 22.2666 18.5405 22.7504 18.299C22.9018 18.2133 22.9711 18.0403 23.0039 17.869C22.0087 18.4945 20.0286 18.2961 19.0559 18.309Z" fill="#EF6200"/>
<path d="M2.51758 17.108C3.78817 16.8792 5.12142 16.9474 6.40833 16.9259C8.42923 16.8919 10.4501 16.9011 12.4709 16.8678C14.4463 16.8351 16.4208 16.7767 18.3965 16.7855C19.8644 16.7922 21.4282 16.6877 22.9086 16.9005C22.8983 16.8779 22.8915 16.8538 22.8798 16.8321C22.7738 16.635 22.6513 16.597 22.4682 16.5471C21.8402 16.3762 21.1516 16.4222 20.5049 16.4149C19.0934 16.3991 17.682 16.397 16.2705 16.3991C12.9107 16.4038 9.54949 16.4276 6.19085 16.5213C5.38509 16.5436 4.57499 16.5543 3.77306 16.6372C3.36589 16.6797 2.72215 16.7127 2.51758 17.108Z" fill="#FFB85A"/>
<path d="M8.76156 15.3885C8.46445 15.386 8.00308 15.4631 7.66992 15.3612C7.67079 15.3839 7.67125 15.4069 7.67273 15.4296C7.6889 15.6892 7.74033 15.6963 7.98794 15.6914C8.66193 15.6777 9.33592 15.6656 10.01 15.6561C10.28 15.652 10.3197 15.6486 10.3346 15.4215C10.3377 15.3735 10.3393 15.324 10.3399 15.2739C9.84636 15.4304 9.25925 15.3924 8.76156 15.3885Z" fill="#19BFBB"/>
</g>
<defs>
<clipPath id="clip0_11295_103301">
<rect width="24" height="24" fill="white" transform="translate(0.630371 0.20752)"/>
</clipPath>
</defs>
</svg>
