<svg width="25" height="25" viewBox="0 0 25 25" fill="none" xmlns="http://www.w3.org/2000/svg">
<path d="M22.3426 9.5947C22.305 8.6351 22.2483 7.66527 22.0707 6.7199C21.8852 5.73346 21.2198 5.65883 20.3565 5.69287C20.2159 5.20965 19.9511 4.81936 19.3816 4.67391C18.2006 4.3723 16.6948 4.40167 15.4706 4.38531C14.6376 4.37447 13.8507 4.53995 13.0947 4.88614C12.2586 5.26915 11.8882 5.10267 11.1035 4.7485C10.5754 4.51017 9.99112 4.37205 9.41841 4.29919C8.2118 4.14555 6.99914 4.19498 5.79704 4.37343C4.82441 4.51775 3.67471 4.51459 3.20519 5.51126C3.1785 5.56785 3.15811 5.62973 3.13645 5.69049C2.49147 5.66161 1.99855 5.67435 1.62044 6.29644C1.20933 6.97234 1.27165 8.16359 1.22444 8.92318C1.07879 11.2769 1.11318 13.6549 1.2529 16.0079C1.34618 17.5751 1.36503 19.6979 3.46687 19.5543C5.52263 19.4138 7.44369 19.2353 9.49027 19.739C10.3076 19.94 10.9238 20.5269 11.756 20.6098C12.0787 20.6422 12.4376 20.5287 12.6856 20.3246C13.0928 19.9901 13.623 19.854 14.1232 19.7279C16.0965 19.2298 18.0943 19.3597 20.084 19.5607C22.1399 19.7683 22.1633 17.7111 22.2697 16.1804C22.422 13.9922 22.4287 11.7856 22.3426 9.5947Z" fill="#68182B"/>
<path d="M12.3603 6.24555C12.3593 5.97482 12.44 5.93588 12.6501 5.86935C13.1126 5.72342 13.5658 5.39949 13.9866 5.25872C14.9796 4.92624 16.1111 5.07459 17.1313 5.16128C17.717 5.21132 18.3022 5.26614 18.888 5.31289C19.8696 5.39142 19.7976 6.23468 19.8733 6.96326C19.9872 8.05482 20.0299 9.15457 20.0634 10.2509C20.1013 11.4874 20.1008 12.7252 20.0717 13.9617C20.0532 14.7461 20.2631 17.2912 19.1633 17.397C17.1007 17.1929 14.8923 17.4181 12.8963 17.9735C12.7073 18.0259 12.5293 18.1032 12.3529 18.1693C12.1385 18.2499 12.0653 18.1592 12.0745 17.9272C12.2269 14.0362 12.3795 10.1403 12.3603 6.24555Z" fill="#E5E5E5"/>
<path d="M3.53851 8.71256C3.56935 7.96884 3.40974 5.65467 4.31338 5.33012C5.37121 4.95002 6.68532 4.91624 7.79716 4.8841C9.27012 4.84139 10.4263 5.22401 11.7321 5.82631C11.8779 5.89436 11.9512 5.98511 11.9521 6.15637C11.9741 10.0942 11.8193 14.0335 11.6648 17.9683C11.6543 18.2273 11.5109 18.3188 11.2067 18.1308C10.7305 17.8366 10.1707 17.6676 9.6345 17.5287C8.42045 17.2143 7.1154 17.2627 5.87545 17.3194C5.33609 17.3441 4.79722 17.3824 4.25799 17.4113C3.44032 17.4552 3.57073 16.2146 3.54431 15.6882C3.48727 14.5591 3.47332 13.4277 3.4699 12.2973C3.466 11.102 3.48917 9.90671 3.53851 8.71256Z" fill="#E5E5E5"/>
<path d="M21.5744 16.4088C21.5093 17.342 21.5912 18.8995 20.3374 18.9059C19.538 18.9101 18.7125 18.6917 17.8997 18.6827C16.1918 18.6641 14.2364 18.7582 12.6749 19.5184C12.1991 19.7498 11.8409 20.1125 11.2604 19.7904C10.9468 19.6166 10.6677 19.4292 10.331 19.2917C9.44967 18.931 8.452 18.8259 7.51188 18.7372C6.59299 18.6504 5.66393 18.6474 4.74318 18.7024C3.69643 18.7646 2.42209 19.3054 2.10753 17.8626C1.68169 15.91 1.81613 13.6957 1.82331 11.7109C1.82696 10.6986 1.85718 9.68582 1.91986 8.67518C1.94844 8.20936 1.98972 7.74317 2.05365 7.28089C2.13321 6.70595 2.34807 6.47945 2.70843 6.40486C2.93889 6.35698 2.96825 6.45993 2.95249 6.67091C2.92026 7.10157 2.92365 7.54014 2.90025 7.90853C2.82082 9.16544 2.79981 10.4264 2.79124 11.6855C2.78344 12.8508 2.80133 14.0164 2.84286 15.1811C2.8679 15.8827 2.71951 17.2102 3.31929 17.737C4.00629 18.3399 5.04111 18.0449 5.87551 18.0003C7.46087 17.9156 9.10629 17.9114 10.5825 18.5707C11.1887 18.8414 11.5113 19.1607 12.2027 18.971C12.8277 18.7996 13.408 18.5296 14.0559 18.3935C15.5426 18.0809 17.1207 17.9422 18.6484 18.0381C19.1682 18.0711 19.4755 18.1191 19.9009 17.8072C21.0334 16.9773 20.7428 14.5081 20.764 13.3599C20.8046 11.1516 20.7774 8.90962 20.5259 6.71011C20.4961 6.45274 20.5644 6.3353 20.8485 6.3615C21.0996 6.38482 21.3158 6.47971 21.3876 6.77212C21.4709 7.10989 21.5062 7.45999 21.5429 7.80509C21.6335 8.65302 21.6641 9.50828 21.689 10.3602C21.7481 12.3747 21.7141 14.3984 21.5744 16.4088Z" fill="#00EBED"/>
<path d="M20.7449 7.42767C20.7022 7.11396 20.6314 6.8251 20.5228 6.55957C20.5184 6.60319 20.5193 6.65246 20.5258 6.71018C20.7773 8.90968 20.8045 11.1516 20.764 13.36C20.7427 14.5081 21.0334 16.9773 19.9009 17.8073C19.4755 18.1192 19.1682 18.0712 18.6483 18.0382C17.1208 17.9422 15.5426 18.081 14.0559 18.3936C13.408 18.5297 12.8277 18.7997 12.2027 18.971C11.5113 19.1607 11.1887 18.8415 10.5825 18.5708C9.10624 17.9115 7.46085 17.9156 5.87549 18.0003C5.04106 18.045 4.00627 18.34 3.31927 17.7371C2.71949 17.2103 2.86788 15.8828 2.84285 15.1811C2.80131 14.0165 2.78343 12.8508 2.79122 11.6855C2.7998 10.4265 2.82081 9.16554 2.90024 7.9086C2.92366 7.5402 2.92025 7.10161 2.95247 6.67098C2.9536 6.65736 2.95373 6.64539 2.95424 6.63291C2.72907 7.32065 2.74553 8.15825 2.71331 8.82899C2.63362 10.4745 2.6496 12.1139 2.63413 13.76C2.62279 14.9591 2.43802 16.4069 2.89933 17.5481C3.30338 18.5478 4.52787 18.2601 5.36378 18.2094C6.88698 18.1173 8.47283 18.1377 9.93799 18.6041C10.5708 18.8058 11.1359 19.2562 11.8102 19.2992C12.3631 19.3342 12.9186 18.9495 13.4056 18.7477C14.0512 18.4804 14.8012 18.4151 15.4876 18.3378C16.2183 18.2558 16.9545 18.2171 17.6898 18.2079C18.5997 18.1967 19.7559 18.5459 20.4347 17.7455C21.1107 16.9491 21.0291 15.5985 21.0371 14.633C21.0495 13.1698 21.034 11.7072 20.9685 10.2452C20.9266 9.30544 20.8719 8.36042 20.7449 7.42767Z" fill="#19BFBB"/>
<path d="M2.05359 7.28097C1.98966 7.74325 1.94835 8.20944 1.9198 8.67527C1.85712 9.68591 1.8269 10.6987 1.82326 11.711C1.81633 13.6477 1.68946 15.8026 2.07905 17.7201C2.03538 16.276 1.97432 14.8319 1.96462 13.3872C1.95518 12.0105 1.97709 10.6326 2.06606 9.25844C2.10963 8.58467 2.17143 7.91129 2.27213 7.24371C2.31354 6.97046 2.39912 6.72106 2.49895 6.47705C2.26382 6.59375 2.11617 6.82854 2.05359 7.28097Z" fill="#6CFFFB"/>
<path d="M21.3213 18.2302C21.5466 17.6938 21.5367 16.9477 21.5743 16.4086C21.714 14.3982 21.748 12.3745 21.689 10.36C21.6641 9.50802 21.6335 8.65276 21.5428 7.80483C21.5061 7.45977 21.4709 7.10964 21.3875 6.77187C21.3374 6.56731 21.2155 6.46058 21.0615 6.40625C21.4345 7.13132 21.3965 8.24808 21.4396 8.95298C21.5212 10.2826 21.5716 11.6144 21.5926 12.9462C21.6143 14.3479 21.6091 15.7573 21.4761 17.154C21.4419 17.513 21.3964 17.8754 21.3213 18.2302Z" fill="#6CFFFB"/>
<path d="M11.665 17.9686C11.8194 14.0337 11.9743 10.0945 11.9522 6.15662C11.9514 5.98533 11.8781 5.89461 11.7322 5.82656C11.2232 5.59178 10.7366 5.39174 10.2455 5.23584C10.7506 5.57297 11.1295 6.04622 11.33 6.74041C11.6297 7.77854 11.537 8.91633 11.5339 9.98369C11.5289 11.901 11.5091 13.8301 11.3508 15.7426C11.2888 16.4945 11.1144 17.4573 10.1516 17.2277C9.24365 17.0112 8.33095 16.8422 7.39699 16.8049C6.34834 16.7633 5.39182 16.979 4.52295 17.396C4.97382 17.3697 5.42456 17.3403 5.87559 17.3196C7.11555 17.2629 8.4206 17.2145 9.63465 17.529C10.1709 17.6679 10.7306 17.8369 11.2068 18.131C11.5111 18.319 11.6544 18.2275 11.665 17.9686Z" fill="#C6C6C6"/>
<path d="M19.1633 17.3969C19.173 17.3961 19.1819 17.3935 19.1915 17.3921C18.5816 17.0448 17.84 16.8859 17.1032 16.8642C16.4516 16.845 15.7976 16.928 15.1583 17.0478C14.4618 17.1784 12.9207 17.8705 12.6276 17.0349C12.3899 16.3574 12.5456 15.4152 12.5673 14.7155C12.5981 13.7177 12.6422 12.7204 12.6783 11.7227C12.7163 10.6761 12.7076 9.62957 12.7348 8.58276C12.754 7.85305 12.7279 7.07164 12.8997 6.35893C13.0017 5.93698 13.2699 5.679 13.5684 5.44141C13.2711 5.59114 12.963 5.77047 12.6501 5.86916C12.44 5.93572 12.3593 5.97467 12.3603 6.24536C12.3795 10.1401 12.2269 14.036 12.0745 17.9271C12.0653 18.159 12.1384 18.2498 12.3529 18.1692C12.5293 18.103 12.7073 18.0258 12.8963 17.9734C14.8923 17.4179 17.1007 17.1927 19.1633 17.3969Z" fill="#C6C6C6"/>
<path d="M7.79716 4.88444C6.68532 4.91657 5.37121 4.95035 4.31338 5.33046C3.40974 5.655 3.56935 7.96917 3.53851 8.71289C3.48917 9.90705 3.466 11.1023 3.4699 12.2976C3.47329 13.428 3.48727 14.5594 3.54431 15.6885C3.56873 16.1741 3.46136 17.265 4.08608 17.3971C3.93805 16.9008 3.89048 16.3635 3.85333 15.8648C3.79581 15.0939 3.7787 14.3196 3.77126 13.5468C3.75476 11.8349 3.81357 10.1214 3.93212 8.4138C3.97881 7.74042 4.03043 7.06071 4.14598 6.39527C4.2838 5.60151 4.92792 5.52514 5.61631 5.40163C6.91758 5.1681 8.26378 5.12222 9.58759 5.05947C9.02477 4.93245 8.44198 4.86579 7.79716 4.88444Z" fill="#F4F4F4"/>
<path d="M19.614 17.155C20.1981 16.4831 20.0565 14.614 20.0717 13.9616C20.1008 12.7251 20.1013 11.4873 20.0634 10.2509C20.0299 9.15452 19.9873 8.05477 19.8733 6.96321C19.7976 6.23462 19.8696 5.39134 18.888 5.31284C18.6675 5.29519 18.4469 5.27502 18.2266 5.25586C18.8185 5.57915 19.3224 6.06888 19.5208 6.6427C19.7026 7.16851 19.675 7.76716 19.6852 8.31614C19.6973 8.97087 19.7529 9.62535 19.7739 10.2802C19.8203 11.7128 19.7995 13.1471 19.7949 14.5803C19.7922 15.4601 19.7497 16.3126 19.614 17.155Z" fill="#F4F4F4"/>
<path d="M4.7681 7.27913C6.5283 6.75471 8.66926 6.78824 10.4524 7.18134C10.7092 7.23793 10.6003 7.63152 10.344 7.57519C8.64058 7.1996 6.55598 7.17263 4.87646 7.67298C4.62357 7.74835 4.51659 7.35424 4.7681 7.27913Z" fill="#68182B"/>
<path d="M4.7681 8.71963C6.5283 8.19508 8.66926 8.22873 10.4524 8.62171C10.7092 8.6783 10.6003 9.07202 10.344 9.01568C8.64058 8.6401 6.55598 8.61303 4.87646 9.11348C4.62357 9.18872 4.51659 8.79461 4.7681 8.71963Z" fill="#68182B"/>
<path d="M4.7681 10.1597C6.5283 9.63568 8.66926 9.66908 10.4524 10.0622C10.7092 10.1188 10.6003 10.5124 10.344 10.456C8.64058 10.0804 6.55598 10.0535 4.87646 10.5537C4.62357 10.6289 4.51659 10.2346 4.7681 10.1597Z" fill="#68182B"/>
<path d="M4.7681 11.6C6.5283 11.0754 8.66926 11.1091 10.4524 11.5022C10.7092 11.5587 10.6003 11.9524 10.344 11.896C8.64058 11.5204 6.55598 11.4934 4.87646 11.9938C4.62357 12.0691 4.51659 11.6751 4.7681 11.6Z" fill="#68182B"/>
<path d="M4.7681 13.0404C6.5283 12.5159 8.66926 12.5495 10.4524 12.9425C10.7092 12.9991 10.6003 13.3928 10.344 13.3365C8.64058 12.9608 6.55598 12.9338 4.87646 13.4343C4.62357 13.5095 4.51659 13.1154 4.7681 13.0404Z" fill="#68182B"/>
<path d="M4.7681 14.4808C6.5283 13.9564 8.66926 13.9899 10.4524 14.383C10.7092 14.4396 10.6003 14.8332 10.344 14.7768C8.64058 14.4013 6.55598 14.3743 4.87646 14.8746C4.62357 14.95 4.51659 14.5559 4.7681 14.4808Z" fill="#68182B"/>
<path d="M4.7681 15.9213C6.5283 15.3967 8.66926 15.4304 10.4524 15.8235C10.7092 15.8799 10.6003 16.2737 10.344 16.2173C8.64058 15.8417 6.55598 15.8147 4.87646 16.3151C4.62357 16.3904 4.51659 15.9963 4.7681 15.9213Z" fill="#68182B"/>
<path d="M13.4013 7.18134C15.1844 6.78824 17.3252 6.75471 19.0856 7.27913C19.3371 7.35424 19.2298 7.74835 18.9772 7.67298C17.2977 7.17263 15.2131 7.1996 13.5095 7.57519C13.2534 7.63152 13.1444 7.23793 13.4013 7.18134Z" fill="#68182B"/>
<path d="M13.4013 8.62171C15.1844 8.22873 17.3252 8.19508 19.0856 8.71963C19.3371 8.79461 19.2298 9.18872 18.9772 9.11348C17.2977 8.613 15.2131 8.6401 13.5095 9.01568C13.2534 9.07202 13.1444 8.6783 13.4013 8.62171Z" fill="#68182B"/>
<path d="M13.4013 10.0622C15.1844 9.66908 17.3252 9.63568 19.0856 10.1597C19.3371 10.2346 19.2299 10.6289 18.9772 10.5537C17.2977 10.0535 15.2131 10.0804 13.5095 10.456C13.2534 10.5124 13.1444 10.1188 13.4013 10.0622Z" fill="#68182B"/>
<path d="M13.4013 11.5022C15.1844 11.1091 17.3252 11.0754 19.0856 11.6C19.3371 11.6751 19.2298 12.0691 18.9772 11.9938C17.2977 11.4933 15.2131 11.5204 13.5095 11.896C13.2534 11.9524 13.1444 11.5587 13.4013 11.5022Z" fill="#68182B"/>
<path d="M13.4013 12.9425C15.1844 12.5495 17.3252 12.5159 19.0856 13.0404C19.3371 13.1154 19.2298 13.5095 18.9772 13.4343C17.2977 12.9338 15.2131 12.9608 13.5095 13.3365C13.2534 13.3928 13.1444 12.9991 13.4013 12.9425Z" fill="#68182B"/>
<path d="M13.4013 14.383C15.1844 13.9899 17.3252 13.9564 19.0856 14.4808C19.3371 14.5559 19.2298 14.95 18.9772 14.8746C17.2977 14.3743 15.2131 14.4013 13.5095 14.7768C13.2534 14.8332 13.1444 14.4396 13.4013 14.383Z" fill="#68182B"/>
<path d="M13.4013 15.8235C15.1844 15.4304 17.3252 15.3967 19.0856 15.9213C19.3371 15.9963 19.2298 16.3904 18.9772 16.3151C17.2977 15.8146 15.2131 15.8417 13.5095 16.2173C13.2534 16.2737 13.1444 15.8799 13.4013 15.8235Z" fill="#68182B"/>
</svg>
