<svg width="40" height="41" viewBox="0 0 40 41" fill="none" xmlns="http://www.w3.org/2000/svg">
<rect x="0.5" y="0.5" width="38.7706" height="39.4146" rx="7.06098" stroke="#E5E5E5"/>
<path d="M24.4448 24.0088C24.4018 24.0459 23.0934 25.1754 23.1766 25.1035C23.136 25.0574 21.7876 23.5235 21.8725 23.6201L21.6812 23.4168C21.6812 23.4107 21.6751 23.4107 21.6751 23.4048C21.635 23.3597 20.6824 22.2847 20.7419 22.3519L22.0101 21.2695C22.4869 21.8023 23.9752 23.4706 24.4448 24.0088Z" fill="#D0DCEE"/>
<path d="M22.8295 24.7089C22.7783 24.651 20.6919 22.2955 20.7419 22.3519L22.01 21.2695C22.0483 21.3125 22.4722 21.7898 22.6263 21.9632C22.4691 22.2484 22.1251 22.4953 21.9861 22.8426C21.8964 23.0517 21.8964 23.309 22.0398 23.4825C22.2074 23.6738 22.4945 23.7039 22.6978 23.8593C22.9282 24.0338 23.0312 24.4057 22.8295 24.7089Z" fill="#A5C0DD"/>
<path d="M17.1222 10C13.1233 10 10 13.2382 10 17.1117C10 21.0421 13.1971 24.2234 17.1222 24.2234C21.0973 24.2234 24.2392 20.9896 24.2392 17.1117C24.2392 13.176 21.0474 10 17.1222 10ZM17.1222 22.1869C14.3008 22.1869 12.0312 19.9082 12.0312 17.1117C12.0312 14.308 14.2993 12.0206 17.1222 12.0206C19.9184 12.0206 22.2028 14.2997 22.2028 17.1117C22.2028 19.9228 19.937 22.1869 17.1222 22.1869Z" fill="#D0DCEE"/>
<path d="M29.4301 29.8151L29.143 30.0842C28.7004 30.5269 27.9467 30.5269 27.4382 30.0723C25.2758 28.1455 24.7487 27.6873 23.1615 26.28C22.3542 25.5594 21.8655 24.2985 22.6231 23.5404C22.935 23.2362 23.1376 22.9781 23.4426 22.8705C23.6759 22.7808 23.9331 22.7628 24.2022 22.8047C24.2451 22.8146 24.5562 22.8864 24.5133 22.8765C25.0283 23.0484 25.4441 23.3562 25.7694 23.7378C31.2267 30.2098 24.7079 22.4808 29.46 28.1103C29.9073 28.6471 29.8491 29.426 29.4301 29.8151Z" fill="#0CA567"/>
<path d="M29.3459 28.236C29.2155 28.81 28.242 28.7366 27.5775 28.5054C26.5996 28.1668 25.6777 27.59 25.0382 26.7685C23.8507 25.2697 24.0661 23.4495 24.6809 22.9375C25.0694 23.0943 25.4582 23.3701 25.7717 23.74C26.1365 24.1727 24.4502 22.1723 29.3395 27.9724C29.3584 28.0602 29.371 28.1542 29.3459 28.236Z" fill="#0FBE75"/>
<path d="M24.1662 18.0971C24.1662 18.1151 24.1602 18.127 24.1602 18.145C23.9558 19.5075 23.379 20.7569 22.4794 21.7877C22.1493 22.1779 21.4762 22.794 20.9661 23.0857C20.9123 23.1275 20.8584 23.1635 20.8046 23.1934C20.8046 23.1994 20.7986 23.1994 20.7986 23.1994C16.0753 26.0326 10.002 22.6573 10.002 17.1101C10.002 15.8525 10.3587 14.4615 11.1025 13.3119C11.1025 13.3059 11.1085 13.2999 11.1145 13.294C11.1564 13.2281 11.1983 13.1623 11.2461 13.1025C10.9829 14.3586 10.8633 15.6327 11.0009 16.9008C11.2341 18.9644 12.239 21.0221 13.9916 22.1346C15.6844 23.2113 17.9095 23.2771 19.7578 22.5115C21.7285 21.6951 23.2493 20.0323 24.1662 18.0971Z" fill="#A5C0DD"/>
<path d="M21.6439 17.6555C21.6439 18.9059 21.1902 20.0612 20.4305 20.9423C20.4041 20.974 20.3777 21.0003 20.3513 21.032C17.1302 23.7099 12.0315 21.4776 12.0315 17.1121C12.0315 15.8143 12.5169 14.622 13.324 13.7251C14.1945 13.0023 15.3235 12.5645 16.5528 12.5645C19.3595 12.5645 21.6439 14.8383 21.6439 17.6555Z" fill="#F2F8FD"/>
</svg>
