<svg width="188" height="80" viewBox="0 0 188 80" fill="none" xmlns="http://www.w3.org/2000/svg">
<rect x="0.03125" y="9.15527e-05" width="187" height="80" rx="20" fill="white"/>
<g clip-path="url(#clip0_6930_178457)">
<path d="M30.9826 56.4956C29.1317 56.4956 27.4543 56.1551 25.9622 55.4801C24.5073 54.8317 23.2135 53.8682 22.1738 52.6586C21.1239 51.426 20.3153 50.0056 19.7907 48.4721C19.2268 46.8266 18.9452 45.0971 18.9579 43.3571C18.9579 42.4136 19.0327 41.4851 19.1777 40.5491C19.3242 39.6191 19.5246 38.7296 19.7757 37.8866L23.4326 38.5886C23.2481 39.3836 23.1014 40.1871 22.9931 40.9961C22.8929 41.7581 22.8466 42.4736 22.8466 43.1426C22.8466 45.0221 23.1934 46.6136 23.8856 47.9171C24.5341 49.1727 25.5311 50.2131 26.7561 50.9126C27.9731 51.6086 29.3859 51.9566 30.9826 51.9566C32.5823 51.9566 33.9936 51.6146 35.2121 50.9261C36.4329 50.2395 37.4243 49.2062 38.0617 47.9561C38.7404 46.6601 39.0873 45.1151 39.0873 43.3166V33.0326L43.0088 33.3866V43.3166C43.0088 45.1556 42.7352 46.8746 42.1895 48.4586C41.6726 49.9952 40.8633 51.4165 39.8064 52.6436C38.7622 53.8494 37.469 54.8127 36.0164 55.4666C34.5319 56.1416 32.8544 56.4956 30.9826 56.4956ZM36.9822 47.3621C35.3646 47.3621 33.9533 47.0216 32.7542 46.3316C31.5895 45.6771 30.6233 44.7181 29.9585 43.5566C29.2933 42.389 28.9506 41.0644 28.9658 39.7196C28.9658 38.5826 29.1721 37.5326 29.5922 36.5771C29.9999 35.6341 30.5928 34.7832 31.3354 34.0751C32.8778 32.6145 34.9212 31.8056 37.0421 31.8161C38.1334 31.8161 39.1994 31.9826 40.2325 32.3171C41.2641 32.6516 42.1895 33.0116 43.0088 33.4076L41.3702 37.4321C39.7316 36.6296 38.2874 36.2291 37.0421 36.2291C36.2228 36.2291 35.5036 36.3896 34.8787 36.6971C34.2523 37.0121 33.7604 37.4261 33.4001 37.9466C33.0413 38.4686 32.8619 39.0371 32.8619 39.6656C32.8619 40.2536 33.0263 40.7891 33.3597 41.2706C33.6931 41.7506 34.1671 42.1331 34.7785 42.4136C35.3915 42.6956 36.1301 42.8411 36.9897 42.8411H41.4644V47.3696H36.9822V47.3621ZM34.7591 28.6721C34.4977 28.6793 34.2374 28.6339 33.9937 28.5386C33.7501 28.4433 33.5279 28.3 33.3403 28.1171C33.1524 27.9349 33.0044 27.7154 32.9058 27.4727C32.8073 27.2299 32.7602 26.9691 32.7677 26.7071C32.7677 26.0981 32.9621 25.6106 33.3403 25.2371C33.7201 24.8621 34.1925 24.6821 34.7591 24.6821C35.3242 24.6821 35.7967 24.8681 36.1764 25.2371C36.5562 25.6031 36.749 26.0981 36.749 26.7071C36.749 27.2756 36.5562 27.7421 36.1764 28.1171C35.7967 28.4921 35.3242 28.6721 34.7591 28.6721ZM39.319 28.6721C39.0578 28.6791 38.7979 28.6336 38.5544 28.5383C38.311 28.443 38.0891 28.2998 37.9017 28.1171C37.7138 27.9349 37.5658 27.7154 37.4672 27.4727C37.3687 27.2299 37.3216 26.9691 37.3291 26.7071C37.3291 26.0981 37.522 25.6106 37.9017 25.2371C38.2814 24.8621 38.7539 24.6821 39.319 24.6821C39.8856 24.6821 40.3581 24.8681 40.7378 25.2371C41.1176 25.6031 41.3104 26.0981 41.3104 26.7071C41.3104 27.2756 41.1161 27.7421 40.7378 28.1171C40.3581 28.4921 39.8856 28.6721 39.319 28.6721ZM53.8374 47.3621C52.2183 47.3621 50.807 47.0216 49.6079 46.3331C48.4432 45.6786 47.477 44.7196 46.8122 43.5581C46.1465 42.3896 45.8038 41.0639 45.8195 39.7181C45.8195 38.5826 46.0258 37.5326 46.4325 36.5771C46.8355 35.633 47.4267 34.7816 48.1697 34.0751C48.9226 33.3651 49.8014 32.8029 50.7606 32.4176C51.7541 32.0126 52.8174 31.8082 53.8898 31.8161C54.9812 31.8161 56.0471 31.9826 57.0787 32.3171C58.1103 32.6516 59.0372 33.0131 59.855 33.4076L58.2179 37.4321C56.5988 36.5501 55.1531 36.1091 53.8898 36.1091C53.0705 36.1091 52.3499 36.2756 51.7249 36.6101C51.1307 36.9157 50.6227 37.3666 50.2478 37.9211C49.889 38.4611 49.7081 39.0641 49.7081 39.7256C49.7081 40.3346 49.8741 40.8956 50.2075 41.4176C50.5409 41.9396 51.0133 42.3401 51.6263 42.6341C52.2392 42.9296 52.9778 43.0766 53.8359 43.0766H58.3106V47.3696H53.8359V47.3621H53.8374ZM47.0499 55.4996V50.9726H52.465C53.7507 50.9726 54.6552 50.7461 55.168 50.2976C55.6868 49.8491 55.9455 49.1606 55.9455 48.2381V33.4001H59.8685V48.2381C59.8685 49.7681 59.562 51.0731 58.9625 52.1636C58.3749 53.2339 57.4764 54.0993 56.3865 54.6446C55.2742 55.2131 53.969 55.4936 52.465 55.4936H47.0499V55.4996ZM58.9565 47.3621V42.8351H63.2847V47.3621H58.9565ZM63.2847 47.3621V42.8351C63.4775 42.8351 63.624 43.0421 63.7242 43.4501C63.8244 43.8581 63.8707 44.3996 63.8707 45.0701C63.8707 45.7571 63.8244 46.3061 63.7242 46.7276C63.624 47.1476 63.485 47.3621 63.2847 47.3621Z" fill="#0B945A"/>
<path d="M60.8268 47.3621C60.6339 47.3621 60.4874 47.1551 60.3872 46.7321C60.2886 46.3121 60.2407 45.7571 60.2407 45.0746C60.2407 44.3861 60.2886 43.8446 60.3872 43.4441C60.4874 43.0421 60.6339 42.8426 60.8268 42.8426V47.3621ZM60.8268 47.3621V42.8351C61.8793 42.8351 77.6162 42.8081 78.5626 42.7616C79.4471 42.7179 80.3304 42.6528 81.2118 42.5666C81.3314 42.5471 81.4375 42.6011 81.5317 42.7286C81.6319 42.8546 81.7321 42.9761 81.8382 43.0961C81.9444 43.2161 82.0445 43.2701 82.1447 43.2701C83.722 43.0361 85.0272 42.7076 86.0528 42.2876C87.0784 41.8661 87.8438 41.3771 88.3492 40.8161C88.856 40.2611 89.1086 39.6461 89.1086 38.9771C89.1086 38.3891 88.9621 37.8671 88.6691 37.4051C88.3729 36.9422 87.9597 36.5664 87.4716 36.3161C86.9647 36.0476 86.3652 35.9216 85.6865 35.9216C85.0002 35.9216 84.4007 36.0611 83.876 36.3356C83.3745 36.5867 82.9492 36.9679 82.644 37.4396C82.3541 37.8895 82.2014 38.4144 82.2045 38.9501C82.2045 39.6191 82.4706 40.2401 82.9969 40.8161C83.5231 41.3906 84.3215 41.8931 85.3934 42.3131C86.4654 42.7346 87.8304 43.0631 89.4884 43.2971C89.608 43.3166 89.7141 43.2626 89.8083 43.1366C89.9085 43.0091 90.0012 42.8816 90.1014 42.7556C90.2 42.6281 90.3077 42.5756 90.4198 42.5951C91.2002 42.6746 92.0315 42.7346 92.924 42.7691C93.8643 42.8097 94.8054 42.8297 95.7467 42.8291V47.3561C93.1901 47.3561 90.8534 47.1821 88.7229 46.8401C86.5999 46.4996 84.7551 45.9776 83.2092 45.2831C81.6648 44.5871 80.4523 43.6916 79.5941 42.5951C78.7345 41.4971 78.3084 40.1951 78.3084 38.6891C78.3084 37.3181 78.6418 36.1211 79.3011 35.1041C79.9682 34.0861 80.8851 33.2575 81.9638 32.6981C83.0761 32.1101 84.308 31.8161 85.6536 31.8161C87.0186 31.8161 88.2565 32.1026 89.3688 32.6861C90.4503 33.2414 91.3682 34.0708 92.0315 35.0921C92.6983 36.1151 93.0242 37.3316 93.0242 38.7221C93.0242 40.0736 92.6908 41.2436 92.012 42.2321C91.3333 43.2221 90.4198 44.0516 89.2492 44.7146C88.0771 45.3821 86.745 45.9041 85.2544 46.2851C83.7623 46.6661 82.1836 46.9406 80.5256 47.1086C78.881 47.2751 62.4848 47.3621 60.8268 47.3621ZM85.667 28.2041C85.3582 28.2119 85.051 28.1561 84.7645 28.0399C84.478 27.9238 84.2183 27.75 84.0015 27.5291C83.7821 27.3111 83.6093 27.0504 83.4936 26.7631C83.3779 26.4758 83.3219 26.1679 83.3288 25.8581C83.3288 25.1681 83.556 24.6071 84.0015 24.1661C84.2202 23.9486 84.4805 23.7777 84.7668 23.6638C85.053 23.5499 85.3592 23.4952 85.667 23.5031C86.3458 23.5031 86.9109 23.7251 87.3505 24.1661C87.79 24.6071 88.0098 25.1681 88.0098 25.8581C88.0098 26.5256 87.79 27.0806 87.352 27.5291C86.9109 27.9776 86.3458 28.2041 85.667 28.2041ZM95.7601 47.3621V42.8351C95.9545 42.8351 96.0995 43.0421 96.1997 43.4501C96.2998 43.8581 96.3462 44.3996 96.3462 45.0686C96.3462 45.7586 96.3013 46.3061 96.1997 46.7261C96.101 47.1476 95.9545 47.3621 95.7601 47.3621Z" fill="#0B945A"/>
<path d="M95.7604 47.3621C95.566 47.3621 95.421 47.1551 95.3208 46.7321C95.2207 46.3121 95.1743 45.7571 95.1743 45.0746C95.1743 44.3861 95.2207 43.8446 95.3208 43.4441C95.421 43.0421 95.5675 42.8426 95.7604 42.8426V47.3621ZM100.062 32.6381H103.95V47.3621H95.7604V42.8351H100.062V32.6381ZM99.7357 29.4956C99.1691 29.4956 98.6967 29.3081 98.3169 28.9406C98.129 28.7584 97.981 28.5389 97.8825 28.2962C97.7839 28.0534 97.7368 27.7926 97.7443 27.5306C97.7443 26.9201 97.9387 26.4326 98.3169 26.0576C98.6967 25.6826 99.1691 25.5026 99.7357 25.5026C100.301 25.5026 100.775 25.6901 101.155 26.0576C101.533 26.4266 101.727 26.9201 101.727 27.5291C101.727 28.0976 101.533 28.5656 101.155 28.9391C100.775 29.3141 100.302 29.4941 99.7342 29.4941L99.7357 29.4956ZM104.303 29.4956C103.738 29.4956 103.264 29.3081 102.884 28.9406C102.696 28.7584 102.548 28.5389 102.45 28.2962C102.351 28.0534 102.304 27.7926 102.312 27.5306C102.312 26.9201 102.506 26.4326 102.884 26.0576C103.264 25.6826 103.736 25.5026 104.305 25.5026C104.87 25.5026 105.342 25.6901 105.722 26.0576C106.102 26.4266 106.294 26.9201 106.294 27.5291C106.294 28.0976 106.1 28.5656 105.722 28.9391C105.342 29.3141 104.87 29.4956 104.303 29.4956Z" fill="#0B945A"/>
<mask id="mask0_6930_178457" style="mask-type:luminance" maskUnits="userSpaceOnUse" x="111" y="10" width="59" height="60">
<path d="M111.207 10.1336H169.031V69.8666H111.207V10.1336Z" fill="white"/>
</mask>
<g mask="url(#mask0_6930_178457)">
<path d="M156.033 28.2491C155.013 29.2691 153.974 30.3086 152.813 31.4741C156.102 34.7501 159.404 38.0351 162.695 41.3096L160.029 43.9901L150.252 34.1741L147.665 36.7601L145.209 39.2186L145.203 39.2126L141.929 42.4256C144.745 45.2276 147.574 48.0386 150.367 50.8211L152.76 48.4256L153.562 47.6246L155.36 45.8261C155.831 46.2941 156.299 46.7636 156.77 47.2286C156.195 47.8166 155.625 48.3911 154.978 49.0511L154.967 49.0391L149.358 54.6491L149.305 54.5981C147.87 56.0351 146.438 57.4751 144.997 58.9211C144.473 58.3916 143.916 57.8306 143.262 57.1751C144.949 55.5491 146.628 53.9351 148.352 52.2746L140.201 44.1896L131.903 52.4486L136.792 57.2666L135.043 59.1206C133.461 57.4827 131.879 55.8457 130.296 54.2096L127.213 57.2531L135.321 65.3726L140.184 60.3776L145.003 65.3006L169.027 41.2766C164.699 36.9312 160.367 32.5887 156.033 28.2491ZM150.283 44.3291L148.485 42.5186L150.253 40.7486L152.062 42.5486L150.283 44.3291ZM140.017 54.0041L138.212 52.1996L140.017 50.3951L141.82 52.1996L140.015 54.0056L140.017 54.0041ZM130.121 34.2956L122.006 42.3956L126.506 46.7711L124.742 48.4661L117.434 41.1311L127.235 31.3781L124.23 28.3001L111.207 41.3231L125.18 55.3031L138.084 42.3086C135.461 39.6656 132.77 36.9596 130.121 34.2956ZM128.297 42.2861L130.101 40.4816L131.904 42.2861L130.101 44.0906L128.297 42.2861ZM148.743 26.6861L152.032 29.9741L155.318 26.6861L152.031 23.3981L148.743 26.6861ZM145.065 30.4061L148.353 33.6956L151.641 30.4061L148.352 27.1181L145.065 30.4061Z" fill="#34853E"/>
<mask id="mask1_6930_178457" style="mask-type:luminance" maskUnits="userSpaceOnUse" x="130" y="8" width="20" height="15">
<path d="M130.418 8.79709H149.059V22.3466H130.418V8.79709Z" fill="white"/>
</mask>
<g mask="url(#mask1_6930_178457)">
<path d="M141.225 13.0151L145.522 17.0801L140.543 22.3751L135.116 17.2361L139.024 13.0796C139.165 12.9303 139.333 12.8103 139.519 12.7262C139.706 12.6422 139.907 12.5959 140.111 12.5899C140.316 12.5839 140.519 12.6184 140.71 12.6913C140.901 12.7643 141.076 12.8743 141.225 13.0151Z" fill="#F9C233"/>
<path d="M140.169 10.1336C143.116 11.3036 146.064 12.4676 149.011 13.6436C148.839 13.7081 148.672 13.7786 148.5 13.8431L148.525 15.0311C148.844 15.1061 148.962 15.5141 148.733 15.7436C148.974 16.3466 148.987 17.0141 149.011 17.6561L148.912 17.7146C148.844 17.4356 148.782 17.1521 148.709 16.8746C148.679 17.1686 148.66 17.4641 148.667 17.7596C148.464 17.8196 148.223 17.8196 148.047 17.6846C147.978 17.0381 147.961 16.3661 148.145 15.7316C148.099 15.6813 148.066 15.6207 148.048 15.5549C148.03 15.4891 148.028 15.4199 148.042 15.3531C148.056 15.2863 148.085 15.2237 148.128 15.1706C148.171 15.1175 148.225 15.0753 148.287 15.0476C148.28 14.6786 148.268 14.3111 148.256 13.9376L145.586 14.9981L145.562 13.9706C142.472 11.7956 137.912 11.2856 134.944 13.9466C134.941 14.3066 134.941 14.6666 134.937 15.0311C133.769 14.5511 132.598 14.0771 131.431 13.5986L140.169 10.1336Z" fill="#34853E"/>
<path d="M138.033 12.8156C140.477 12.1361 143.082 12.8936 145.155 14.2571C145.16 15.1631 145.538 16.1936 145.542 17.0996C143.778 17.0501 141.343 17.2436 140.187 18.7211H140.177C139.247 17.0786 136.775 17.1431 135.082 17.2901C135.086 16.3451 135.328 15.1451 135.331 14.2001C136.122 13.5481 137.043 13.0757 138.033 12.8156Z" fill="#34853E"/>
</g>
<path d="M136.9 66.6011L140.165 69.8681L143.43 66.6011L140.165 63.3356L136.9 66.6011Z" fill="#F9C233"/>
<path d="M140.505 34.9286L143.793 38.2166L147.079 34.9286L143.793 31.6406L140.505 34.9286ZM131.634 33.1676L136.684 38.2196L139.972 34.9316L134.921 29.8796L131.634 33.1676ZM125.304 26.8346L130.353 31.8851L133.642 28.5971L128.591 23.5466L125.304 26.8346Z" fill="#34853E"/>
<path d="M129.867 22.0466L140.218 32.4026L143.508 29.1146L133.154 18.7586L129.867 22.0466Z" fill="#F9C233"/>
<path d="M147.296 18.7601L136.944 29.1161L140.23 32.4041L150.584 22.0481L147.296 18.7601Z" fill="#F9C233"/>
</g>
</g>
<defs>
<clipPath id="clip0_6930_178457">
<rect width="151" height="60" fill="white" transform="translate(18.0312 10.0001)"/>
</clipPath>
</defs>
</svg>
