<svg width="145" height="348" viewBox="0 0 145 348" fill="none" xmlns="http://www.w3.org/2000/svg">
<path d="M124.343 215.776C124.343 215.776 74.1197 220.232 23.4915 215.776C23.4915 215.776 17.0111 270.455 10.9357 352.675C5.38036 427.858 1.21508 477.018 0 502.534C0 502.534 7.11504 507.8 13.1904 507.8C21.696 507.8 30.3769 503.749 30.3769 503.749C30.3769 503.749 36.2769 508.205 45.1874 508.205C57.7432 508.205 60.3488 504.559 60.3488 504.559C60.3488 504.559 66.2488 508.205 73.1342 508.205C84.0699 508.205 89.5106 504.964 89.5106 504.964C89.5106 504.964 96.3961 508.205 104.902 508.205C113.002 508.205 118.267 504.154 118.267 504.154C118.267 504.154 125.153 506.584 132.848 506.584C140.949 506.584 144.189 503.749 144.189 503.749C144.189 503.749 132.841 306.115 130.418 274.1C129.529 262.343 124.343 215.776 124.343 215.776Z" fill="#3F4042"/>
<path d="M122.076 101.661C122.076 119.048 121.974 139.805 122.886 182.667C123.44 208.699 128.218 248.178 131.458 276.125C131.458 276.125 118.836 288.783 73.0679 288.783C30.9453 288.783 14.5811 273.695 14.5811 273.695C14.5811 273.695 15.7977 260.994 18.3895 240.585C21.6297 215.069 23.6548 200.488 24.8699 175.781C26.78 136.944 23.2498 114.622 25.2749 98.8263C27.1133 84.4872 122.076 83.0303 122.076 101.661Z" fill="#E6E9EF"/>
<path d="M62.8066 345.992C62.8066 345.992 63.2117 490.181 62.8066 503.952" stroke="#2F3133" stroke-width="1.21508" stroke-miterlimit="10" stroke-linecap="round" stroke-linejoin="round"/>
<path d="M114.245 341.942C114.245 341.942 121.131 494.637 119.51 503.952" stroke="#2F3133" stroke-width="1.21508" stroke-miterlimit="10" stroke-linecap="round" stroke-linejoin="round"/>
<path d="M112.355 53.0584C112.355 36.6731 105.47 0.000106812 75.4978 0.000106812C40.6656 0.000106812 33.7801 34.3957 33.7801 50.6283C33.7801 57.6178 33.3751 71.2846 25.6796 83.8404C19.0947 94.5845 18.3892 105.712 18.3892 105.712C18.3892 105.712 45.5259 171.326 73.4726 171.326C97.7742 171.326 129.366 121.103 134.631 102.067C134.631 102.067 130.581 89.9158 123.291 80.1952C118.622 73.9707 112.355 62.374 112.355 53.0584Z" fill="#3F4042"/>
<path d="M46.679 56.1969C46.679 56.1969 45.5263 87.8865 74.8906 87.8865C98.9896 87.8865 101.398 56.1969 101.398 56.1969C101.398 56.1969 68.0829 39.4888 46.679 56.1969Z" fill="#2F3133"/>
<path d="M93.7241 154.315C93.7241 154.315 108.316 152.555 110.33 155.125V171.326L95.7492 171.408L93.7241 154.315Z" fill="#EFB3AB"/>
<path d="M46.3359 50.6283C46.3359 50.6283 66.8225 20.2513 74.0085 20.2513C81.1944 20.2513 101.824 47.3621 101.824 50.6283C101.824 59.9438 97.3691 83.0303 74.6877 83.0303C51.6013 83.0303 46.3359 63.0403 46.3359 50.6283Z" fill="#EFB3AB"/>
<path d="M61.322 155.53C61.322 155.53 48.8355 147.43 43.4166 148.678L43.4154 148.674C43.4154 148.674 38.6455 148.644 35.4081 149.454C33.1873 150.009 29.9074 154.085 30.1472 155.524C30.4364 157.258 31.7575 157.543 33.0787 157.124C31.1395 158.522 29.1484 161.281 29.3372 162.414C29.7418 164.842 32.1699 164.438 33.7888 163.223C35.4077 162.009 37.4307 161.2 37.4307 161.2H41.4758V161.809C40.1396 161.922 38.6742 162.109 37.4336 162.419C35.2129 162.974 31.9329 167.05 32.1727 168.489C32.5773 170.917 35.0055 170.513 36.6243 169.298C38.2432 168.084 40.2664 167.275 40.2664 167.275H41.4758V167.653C40.6855 167.82 39.9039 168.016 39.2007 168.249C37.0274 168.968 34.0605 173.277 34.4072 174.694C34.9917 177.086 37.383 176.501 38.9067 175.17C39.7916 174.396 40.8204 173.751 41.5296 173.344L58.4868 173.351L61.322 155.53ZM34.5984 156.344C34.5895 156.346 34.5794 156.351 34.57 156.353C34.5794 156.346 34.5895 156.34 34.5992 156.333C36.2181 155.119 38.2412 154.31 38.2412 154.31H41.4758V155.579C39.867 155.623 36.8597 155.779 34.5984 156.344Z" fill="#EFB3AB"/>
<path d="M133.417 105.712C129.711 116.887 121.266 130.418 109.925 145.404C110.688 155.103 110.33 167.276 110.33 167.276C110.33 167.276 79.9534 156.745 61.3222 151.48L54.0317 188.337C54.0317 188.337 122.131 216.774 137.872 206.563C145.333 201.723 146.399 178.927 143.542 155.53C140.661 131.933 133.823 107.745 133.417 105.712Z" fill="#E6E9EF"/>
<path d="M74.8901 197.045C74.8901 197.045 99.5331 206.857 125.486 208.634" stroke="#C2C6CC" stroke-width="1.21508" stroke-miterlimit="10" stroke-linecap="round" stroke-linejoin="round"/>
<path d="M110.127 145.607L110.532 167.478" stroke="#C2C6CC" stroke-width="1.21508" stroke-miterlimit="10" stroke-linecap="round" stroke-linejoin="round"/>
<path d="M110.532 167.478C110.532 167.478 117.013 170.718 122.683 175.174" stroke="#C2C6CC" stroke-width="1.21508" stroke-miterlimit="10" stroke-linecap="round" stroke-linejoin="round"/>
<path d="M18.3892 105.712C18.3892 105.712 29.7299 134.469 43.5008 148.644C41.0706 164.035 40.6656 168.086 40.6656 168.086C40.6656 168.086 76.7129 153.91 97.7742 153.91L98.9893 186.717C98.9893 186.717 29.9859 216.774 14.2446 206.563C-0.741359 196.842 13.1239 115.921 18.3892 105.712Z" fill="#E6E9EF"/>
<path d="M40.4632 167.478C40.4632 167.478 82.9908 151.682 97.5717 153.707L99.1918 186.919C99.1918 186.919 41.3988 211.045 22.2998 208.702" stroke="#C2C6CC" stroke-width="1.21508" stroke-miterlimit="10" stroke-linecap="round" stroke-linejoin="round"/>
<path d="M36.2232 167.274C36.2232 167.274 24.6674 171.528 21.4272 178.009" stroke="#C2C6CC" stroke-width="1.21508" stroke-miterlimit="10" stroke-linecap="round" stroke-linejoin="round"/>
<path d="M92.5454 41.158C91.865 39.9292 89.2749 38.1523 86.5571 37.9283C84.1229 37.7278 82.5539 38.2131 81.7223 38.6035C81.2699 38.8157 81.135 39.4079 81.4554 39.7918C81.7673 40.1653 82.2327 40.5067 82.839 40.3589C83.2286 40.2637 85.2793 39.953 87.142 40.3224C89.3255 40.7554 90.6973 41.3386 91.7054 41.8708C92.0902 42.0738 92.9674 41.9199 92.5454 41.158Z" fill="#423835"/>
<path d="M55.875 41.563C56.5555 40.3342 59.1456 38.5573 61.8633 38.3333C64.2975 38.1328 65.8666 38.6181 66.6981 39.0085C67.1505 39.2207 67.2854 39.8129 66.965 40.1968C66.6531 40.5703 66.1878 40.9117 65.5814 40.7639C65.1918 40.6687 63.1412 40.358 61.2784 40.7274C59.0949 41.1604 57.7231 41.7436 56.715 42.2758C56.3303 42.4788 55.4526 42.3249 55.875 41.563Z" fill="#423835"/>
<path d="M63.3411 46.4849C62.5441 46.6691 62.0475 47.4646 62.2318 48.2617C62.4161 49.0588 63.2116 49.5554 64.0087 49.3711C64.8057 49.1868 65.3023 48.3913 65.118 47.5942C64.9337 46.7971 64.1382 46.3006 63.3411 46.4849Z" fill="#302A2A"/>
<path d="M83.9979 46.4849C83.2008 46.6691 82.7042 47.4646 82.8885 48.2617C83.0728 49.0588 83.8683 49.5554 84.6654 49.3711C85.4625 49.1868 85.959 48.3913 85.7748 47.5942C85.5905 46.7971 84.795 46.3006 83.9979 46.4849Z" fill="#302A2A"/>
<path d="M72.0552 47.1856C72.0552 47.1856 76.3319 54.7409 72.0552 55.6911C68.41 56.5011 69.2201 61.3615 72.8653 61.3615" stroke="#BF6762" stroke-width="1.21508" stroke-miterlimit="10" stroke-linecap="round" stroke-linejoin="round"/>
<path d="M65.3721 66.8294C65.3721 66.8294 66.9922 72.0947 73.0676 72.0947C79.1429 72.0947 80.358 66.8294 80.358 66.8294C80.358 66.8294 72.6625 65.6143 65.3721 66.8294Z" fill="#9B3535"/>
<path d="M78.2572 66.5754C75.8606 66.3388 71.7192 66.0857 67.4507 66.5462C68.2044 67.5867 69.7594 68.8544 72.8647 68.8544C75.9417 68.8544 77.4957 67.6102 78.2572 66.5754Z" fill="#EDE2E2"/>
<path d="M122.683 79.5876C122.683 79.5876 112.962 114.825 93.9263 122.52" stroke="#2F3133" stroke-width="1.21508" stroke-miterlimit="10" stroke-linecap="round" stroke-linejoin="round"/>
<path d="M31.7407 69.1918C31.7407 69.1918 36.4131 102.269 51.399 112.395" stroke="#2F3133" stroke-width="1.21508" stroke-miterlimit="10" stroke-linecap="round" stroke-linejoin="round"/>
</svg>
